<?xml version="1.0" encoding="utf-8"?>
<!-- Generator: Adobe Illustrator 25.2.3, SVG Export Plug-In . SVG Version: 6.00 Build 0)  -->
<svg version="1.1" id="Layer_1" xmlns="http://www.w3.org/2000/svg" xmlns:xlink="http://www.w3.org/1999/xlink" x="0px" y="0px"
	 viewBox="0 0 621 63" style="enable-background:new 0 0 621 63;" xml:space="preserve">
<style type="text/css">
	.st0{fill:#C67190;}
	.st1{fill:none;stroke:#000000;stroke-miterlimit:10;}
	.st2{fill-rule:evenodd;clip-rule:evenodd;fill:#D2D2FF;}
	.st3{fill:#777777;}
	.st4{fill:#BABADB;}
	.st5{fill:#1B6D46;}
</style>
<path class="st0" d="M345.331,54h-15.661c-3.118,0-5.669-2.551-5.669-5.669V32.669c0-3.118,2.551-5.669,5.669-5.669h15.661
	c3.118,0,5.669,2.551,5.669,5.669v15.661C351,51.449,348.449,54,345.331,54z"/>
<g>
	<path d="M63.73,11.238v-1.112h0.967v1.112H63.73z M63.73,18v-5.704h0.967V18H63.73z"/>
	<path d="M66.169,18v-5.704h0.87v0.811c0.419-0.626,1.024-0.94,1.815-0.94c0.344,0,0.66,0.062,0.948,0.186
		c0.289,0.123,0.504,0.285,0.647,0.486s0.244,0.438,0.301,0.714c0.036,0.179,0.054,0.492,0.054,0.94V18h-0.967v-3.47
		c0-0.394-0.038-0.688-0.113-0.884c-0.075-0.195-0.208-0.351-0.4-0.467c-0.192-0.117-0.417-0.175-0.674-0.175
		c-0.412,0-0.767,0.131-1.066,0.392c-0.299,0.261-0.449,0.757-0.449,1.488V18H66.169z"/>
	<path d="M72.287,20.186v-7.89h0.881v0.741c0.208-0.29,0.442-0.508,0.704-0.652c0.261-0.146,0.578-0.218,0.951-0.218
		c0.487,0,0.917,0.125,1.289,0.376s0.653,0.604,0.843,1.061c0.19,0.457,0.285,0.957,0.285,1.501c0,0.583-0.105,1.109-0.314,1.577
		c-0.21,0.467-0.514,0.825-0.913,1.074c-0.399,0.249-0.819,0.373-1.26,0.373c-0.322,0-0.611-0.068-0.867-0.204
		c-0.256-0.136-0.467-0.308-0.631-0.516v2.777H72.287z M73.162,15.18c0,0.734,0.148,1.276,0.446,1.627s0.657,0.526,1.08,0.526
		c0.43,0,0.798-0.182,1.104-0.545c0.307-0.364,0.459-0.927,0.459-1.689c0-0.727-0.149-1.271-0.449-1.633
		c-0.299-0.362-0.656-0.542-1.071-0.542c-0.412,0-0.776,0.192-1.093,0.578C73.32,13.887,73.162,14.446,73.162,15.18z"/>
	<path d="M82.143,18v-0.838c-0.444,0.645-1.047,0.967-1.81,0.967c-0.336,0-0.651-0.064-0.942-0.193
		c-0.292-0.129-0.509-0.291-0.65-0.486c-0.141-0.195-0.241-0.434-0.298-0.717c-0.04-0.19-0.059-0.491-0.059-0.902v-3.534h0.967
		v3.164c0,0.505,0.02,0.845,0.059,1.021c0.061,0.254,0.19,0.454,0.387,0.599c0.197,0.145,0.44,0.217,0.73,0.217
		s0.562-0.074,0.816-0.223c0.254-0.148,0.434-0.351,0.54-0.606c0.105-0.256,0.158-0.628,0.158-1.115v-3.056h0.967V18H82.143z"/>
	<path d="M86.633,17.135l0.14,0.854c-0.272,0.057-0.516,0.086-0.73,0.086c-0.351,0-0.623-0.056-0.816-0.167s-0.33-0.257-0.408-0.438
		c-0.079-0.181-0.118-0.561-0.118-1.141v-3.282H83.99v-0.752h0.709v-1.413l0.961-0.58v1.993h0.972v0.752h-0.972v3.335
		c0,0.276,0.017,0.453,0.051,0.532c0.034,0.079,0.089,0.142,0.166,0.188c0.077,0.046,0.188,0.07,0.331,0.07
		C86.316,17.173,86.458,17.16,86.633,17.135z"/>
</g>
<g>
	<path d="M216.725,18v-5.704h0.865v0.8c0.179-0.279,0.417-0.504,0.714-0.674c0.297-0.17,0.636-0.255,1.015-0.255
		c0.422,0,0.769,0.088,1.039,0.263c0.271,0.175,0.461,0.421,0.572,0.736c0.451-0.666,1.039-0.999,1.762-0.999
		c0.566,0,1.001,0.157,1.305,0.47c0.304,0.313,0.457,0.796,0.457,1.448V18h-0.961v-3.593c0-0.387-0.031-0.665-0.094-0.835
		c-0.062-0.17-0.176-0.307-0.341-0.411s-0.358-0.156-0.58-0.156c-0.401,0-0.734,0.133-0.999,0.4
		c-0.265,0.267-0.397,0.693-0.397,1.281V18h-0.967v-3.706c0-0.43-0.079-0.752-0.236-0.967s-0.416-0.322-0.773-0.322
		c-0.272,0-0.523,0.072-0.755,0.215c-0.23,0.143-0.398,0.353-0.502,0.628s-0.156,0.673-0.156,1.192V18H216.725z"/>
	<path d="M229.793,16.163l0.999,0.124c-0.158,0.583-0.449,1.037-0.875,1.359s-0.97,0.483-1.633,0.483
		c-0.834,0-1.496-0.257-1.985-0.771c-0.488-0.514-0.733-1.235-0.733-2.162c0-0.959,0.247-1.705,0.741-2.234s1.135-0.795,1.923-0.795
		c0.763,0,1.386,0.26,1.869,0.779s0.725,1.25,0.725,2.191c0,0.057-0.002,0.143-0.005,0.258h-4.254
		c0.036,0.626,0.213,1.106,0.532,1.439s0.716,0.5,1.192,0.5c0.354,0,0.657-0.093,0.908-0.279S229.646,16.571,229.793,16.163z
		 M226.619,14.6h3.185c-0.043-0.48-0.165-0.84-0.365-1.08c-0.308-0.373-0.707-0.559-1.198-0.559c-0.444,0-0.817,0.148-1.12,0.446
		C226.818,13.705,226.651,14.103,226.619,14.6z"/>
	<path d="M234.117,17.135l0.14,0.854c-0.272,0.057-0.516,0.086-0.73,0.086c-0.351,0-0.623-0.056-0.816-0.167
		s-0.33-0.257-0.408-0.438c-0.079-0.181-0.118-0.561-0.118-1.141v-3.282h-0.709v-0.752h0.709v-1.413l0.961-0.58v1.993h0.972v0.752
		h-0.972v3.335c0,0.276,0.017,0.453,0.051,0.532c0.034,0.079,0.089,0.142,0.166,0.188c0.077,0.046,0.188,0.07,0.331,0.07
		C233.8,17.173,233.941,17.16,234.117,17.135z"/>
	<path d="M235.062,18v-7.874h0.967v2.825c0.451-0.523,1.021-0.784,1.708-0.784c0.422,0,0.79,0.083,1.101,0.25
		c0.312,0.166,0.534,0.396,0.669,0.69c0.134,0.293,0.201,0.72,0.201,1.278V18h-0.967v-3.615c0-0.483-0.104-0.835-0.314-1.055
		c-0.209-0.221-0.505-0.331-0.889-0.331c-0.287,0-0.556,0.074-0.809,0.223c-0.252,0.148-0.432,0.35-0.54,0.604
		s-0.161,0.605-0.161,1.053V18H235.062z"/>
	<path d="M240.82,15.148c0-1.056,0.293-1.839,0.881-2.347c0.491-0.422,1.088-0.634,1.794-0.634c0.784,0,1.425,0.257,1.923,0.771
		c0.498,0.514,0.747,1.224,0.747,2.13c0,0.734-0.11,1.312-0.331,1.732c-0.22,0.42-0.541,0.747-0.961,0.98
		c-0.421,0.233-0.88,0.349-1.378,0.349c-0.798,0-1.444-0.256-1.937-0.768C241.066,16.849,240.82,16.111,240.82,15.148z
		 M241.813,15.148c0,0.73,0.159,1.277,0.478,1.641c0.319,0.363,0.72,0.545,1.203,0.545c0.48,0,0.879-0.183,1.198-0.548
		s0.478-0.922,0.478-1.67c0-0.706-0.16-1.24-0.48-1.603c-0.321-0.364-0.719-0.545-1.195-0.545c-0.483,0-0.884,0.181-1.203,0.542
		S241.813,14.417,241.813,15.148z"/>
	<path d="M250.998,18v-0.72c-0.362,0.566-0.894,0.849-1.595,0.849c-0.455,0-0.873-0.125-1.254-0.376
		c-0.381-0.25-0.677-0.601-0.886-1.05c-0.21-0.45-0.314-0.966-0.314-1.55c0-0.569,0.095-1.086,0.285-1.55
		c0.19-0.463,0.475-0.819,0.854-1.066s0.804-0.371,1.273-0.371c0.344,0,0.65,0.072,0.918,0.218c0.269,0.145,0.487,0.333,0.655,0.566
		v-2.825h0.961V18H250.998z M247.942,15.153c0,0.73,0.154,1.276,0.462,1.638s0.671,0.542,1.09,0.542
		c0.422,0,0.781-0.173,1.077-0.519c0.295-0.345,0.443-0.873,0.443-1.582c0-0.781-0.15-1.354-0.451-1.719s-0.671-0.548-1.112-0.548
		c-0.43,0-0.789,0.175-1.077,0.526C248.086,13.845,247.942,14.398,247.942,15.153z"/>
</g>
<g>
	<path d="M378.365,15.148c0-1.056,0.293-1.839,0.881-2.347c0.491-0.422,1.088-0.634,1.794-0.634c0.784,0,1.425,0.257,1.923,0.771
		c0.498,0.514,0.747,1.224,0.747,2.13c0,0.734-0.11,1.312-0.331,1.732c-0.22,0.42-0.541,0.747-0.961,0.98
		c-0.421,0.233-0.88,0.349-1.378,0.349c-0.798,0-1.444-0.256-1.937-0.768C378.611,16.849,378.365,16.111,378.365,15.148z
		 M379.359,15.148c0,0.73,0.159,1.277,0.478,1.641c0.319,0.363,0.72,0.545,1.203,0.545c0.48,0,0.879-0.183,1.198-0.548
		s0.478-0.922,0.478-1.67c0-0.706-0.16-1.24-0.48-1.603c-0.321-0.364-0.719-0.545-1.195-0.545c-0.483,0-0.884,0.181-1.203,0.542
		S379.359,14.417,379.359,15.148z"/>
	<path d="M388.581,18v-0.838c-0.444,0.645-1.047,0.967-1.81,0.967c-0.336,0-0.651-0.064-0.942-0.193
		c-0.292-0.129-0.509-0.291-0.65-0.486c-0.141-0.195-0.241-0.434-0.298-0.717c-0.04-0.19-0.059-0.491-0.059-0.902v-3.534h0.967
		v3.164c0,0.505,0.02,0.845,0.059,1.021c0.061,0.254,0.19,0.454,0.387,0.599c0.197,0.145,0.44,0.217,0.73,0.217
		s0.562-0.074,0.816-0.223c0.254-0.148,0.434-0.351,0.54-0.606c0.105-0.256,0.158-0.628,0.158-1.115v-3.056h0.967V18H388.581z"/>
	<path d="M393.071,17.135l0.14,0.854c-0.272,0.057-0.516,0.086-0.73,0.086c-0.351,0-0.623-0.056-0.816-0.167
		s-0.33-0.257-0.408-0.438c-0.079-0.181-0.118-0.561-0.118-1.141v-3.282h-0.709v-0.752h0.709v-1.413l0.961-0.58v1.993h0.972v0.752
		h-0.972v3.335c0,0.276,0.017,0.453,0.051,0.532c0.034,0.079,0.089,0.142,0.166,0.188c0.077,0.046,0.188,0.07,0.331,0.07
		C392.754,17.173,392.896,17.16,393.071,17.135z"/>
	<path d="M394.017,20.186v-7.89h0.881v0.741c0.208-0.29,0.442-0.508,0.704-0.652c0.261-0.146,0.578-0.218,0.951-0.218
		c0.487,0,0.917,0.125,1.289,0.376s0.653,0.604,0.843,1.061c0.19,0.457,0.285,0.957,0.285,1.501c0,0.583-0.105,1.109-0.314,1.577
		c-0.21,0.467-0.514,0.825-0.913,1.074c-0.399,0.249-0.819,0.373-1.26,0.373c-0.322,0-0.611-0.068-0.867-0.204
		c-0.256-0.136-0.467-0.308-0.631-0.516v2.777H394.017z M394.892,15.18c0,0.734,0.148,1.276,0.446,1.627s0.657,0.526,1.08,0.526
		c0.43,0,0.798-0.182,1.104-0.545c0.307-0.364,0.459-0.927,0.459-1.689c0-0.727-0.149-1.271-0.449-1.633
		c-0.299-0.362-0.656-0.542-1.071-0.542c-0.412,0-0.776,0.192-1.093,0.578C395.05,13.887,394.892,14.446,394.892,15.18z"/>
	<path d="M403.873,18v-0.838c-0.444,0.645-1.047,0.967-1.81,0.967c-0.336,0-0.651-0.064-0.942-0.193
		c-0.292-0.129-0.509-0.291-0.65-0.486c-0.141-0.195-0.241-0.434-0.298-0.717c-0.04-0.19-0.059-0.491-0.059-0.902v-3.534h0.967
		v3.164c0,0.505,0.02,0.845,0.059,1.021c0.061,0.254,0.19,0.454,0.387,0.599c0.197,0.145,0.44,0.217,0.73,0.217
		s0.562-0.074,0.816-0.223c0.254-0.148,0.434-0.351,0.54-0.606c0.105-0.256,0.158-0.628,0.158-1.115v-3.056h0.967V18H403.873z"/>
	<path d="M408.363,17.135l0.14,0.854c-0.272,0.057-0.516,0.086-0.73,0.086c-0.351,0-0.623-0.056-0.816-0.167
		s-0.33-0.257-0.408-0.438c-0.079-0.181-0.118-0.561-0.118-1.141v-3.282h-0.709v-0.752h0.709v-1.413l0.961-0.58v1.993h0.972v0.752
		h-0.972v3.335c0,0.276,0.017,0.453,0.051,0.532c0.034,0.079,0.089,0.142,0.166,0.188c0.077,0.046,0.188,0.07,0.331,0.07
		C408.046,17.173,408.188,17.16,408.363,17.135z"/>
</g>
<g>
	<path d="M524.836,17.135l0.14,0.854c-0.272,0.057-0.516,0.086-0.73,0.086c-0.351,0-0.623-0.056-0.816-0.167
		s-0.33-0.257-0.408-0.438c-0.079-0.181-0.118-0.561-0.118-1.141v-3.282h-0.709v-0.752h0.709v-1.413l0.961-0.58v1.993h0.972v0.752
		h-0.972v3.335c0,0.276,0.017,0.453,0.051,0.532c0.034,0.079,0.089,0.142,0.166,0.188c0.077,0.046,0.188,0.07,0.331,0.07
		C524.519,17.173,524.661,17.16,524.836,17.135z"/>
	<path d="M529.503,17.296c-0.358,0.304-0.703,0.519-1.034,0.645c-0.331,0.125-0.687,0.188-1.066,0.188
		c-0.626,0-1.108-0.153-1.445-0.459c-0.336-0.307-0.505-0.698-0.505-1.174c0-0.279,0.063-0.534,0.19-0.766
		c0.127-0.23,0.294-0.416,0.5-0.556c0.206-0.14,0.438-0.245,0.695-0.317c0.19-0.05,0.476-0.099,0.859-0.145
		c0.781-0.093,1.355-0.204,1.724-0.333c0.003-0.132,0.005-0.217,0.005-0.252c0-0.394-0.091-0.671-0.274-0.833
		c-0.247-0.218-0.614-0.328-1.101-0.328c-0.455,0-0.791,0.08-1.007,0.239c-0.217,0.16-0.377,0.441-0.481,0.846l-0.945-0.129
		c0.086-0.405,0.228-0.731,0.424-0.98c0.197-0.249,0.481-0.44,0.854-0.575c0.373-0.134,0.804-0.201,1.294-0.201
		c0.487,0,0.883,0.057,1.187,0.172s0.528,0.259,0.671,0.433c0.143,0.173,0.244,0.393,0.301,0.658
		c0.032,0.165,0.048,0.462,0.048,0.892v1.289c0,0.899,0.021,1.467,0.062,1.706c0.041,0.238,0.123,0.466,0.244,0.685h-1.01
		C529.597,17.799,529.532,17.565,529.503,17.296z M529.423,15.137c-0.351,0.143-0.877,0.265-1.579,0.365
		c-0.397,0.057-0.679,0.122-0.843,0.193s-0.292,0.176-0.381,0.314c-0.089,0.138-0.134,0.291-0.134,0.459
		c0,0.258,0.098,0.473,0.293,0.645c0.195,0.172,0.48,0.258,0.856,0.258c0.373,0,0.704-0.082,0.994-0.245
		c0.29-0.163,0.503-0.386,0.639-0.668c0.104-0.218,0.156-0.541,0.156-0.967V15.137z"/>
	<path d="M531.512,16.297l0.956-0.15c0.054,0.383,0.203,0.677,0.449,0.881c0.245,0.204,0.588,0.306,1.028,0.306
		c0.444,0,0.773-0.09,0.988-0.271c0.215-0.181,0.322-0.393,0.322-0.636c0-0.218-0.095-0.39-0.285-0.516
		c-0.132-0.086-0.462-0.195-0.988-0.328c-0.709-0.179-1.201-0.334-1.474-0.465c-0.274-0.13-0.482-0.312-0.623-0.542
		c-0.142-0.231-0.212-0.486-0.212-0.766c0-0.254,0.058-0.49,0.174-0.706c0.117-0.217,0.275-0.397,0.476-0.54
		c0.15-0.111,0.355-0.205,0.615-0.282c0.259-0.077,0.538-0.115,0.835-0.115c0.448,0,0.841,0.064,1.179,0.193
		c0.339,0.129,0.588,0.304,0.75,0.523c0.161,0.221,0.272,0.515,0.333,0.884l-0.945,0.129c-0.043-0.293-0.167-0.523-0.374-0.688
		c-0.206-0.165-0.497-0.247-0.873-0.247c-0.444,0-0.761,0.073-0.951,0.22s-0.285,0.319-0.285,0.516c0,0.125,0.04,0.238,0.118,0.338
		c0.079,0.104,0.202,0.19,0.371,0.258c0.097,0.036,0.381,0.118,0.854,0.247c0.684,0.183,1.161,0.332,1.431,0.448
		c0.271,0.117,0.483,0.286,0.637,0.508s0.231,0.498,0.231,0.827c0,0.322-0.094,0.626-0.282,0.91
		c-0.188,0.285-0.459,0.505-0.814,0.661c-0.354,0.155-0.755,0.233-1.203,0.233c-0.741,0-1.306-0.154-1.695-0.462
		C531.868,17.359,531.62,16.902,531.512,16.297z"/>
	<path d="M537.404,18v-7.874h0.967v4.49l2.288-2.32h1.251l-2.181,2.116L542.131,18h-1.192l-1.885-2.917l-0.682,0.655V18H537.404z"/>
	<path d="M542.512,16.297l0.956-0.15c0.054,0.383,0.203,0.677,0.449,0.881c0.245,0.204,0.588,0.306,1.028,0.306
		c0.444,0,0.773-0.09,0.988-0.271c0.215-0.181,0.322-0.393,0.322-0.636c0-0.218-0.095-0.39-0.285-0.516
		c-0.132-0.086-0.462-0.195-0.988-0.328c-0.709-0.179-1.201-0.334-1.474-0.465c-0.274-0.13-0.482-0.312-0.623-0.542
		c-0.142-0.231-0.212-0.486-0.212-0.766c0-0.254,0.058-0.49,0.174-0.706c0.117-0.217,0.275-0.397,0.476-0.54
		c0.15-0.111,0.355-0.205,0.615-0.282c0.259-0.077,0.538-0.115,0.835-0.115c0.448,0,0.841,0.064,1.179,0.193
		c0.339,0.129,0.588,0.304,0.75,0.523c0.161,0.221,0.272,0.515,0.333,0.884l-0.945,0.129c-0.043-0.293-0.167-0.523-0.374-0.688
		c-0.206-0.165-0.497-0.247-0.873-0.247c-0.444,0-0.761,0.073-0.951,0.22s-0.285,0.319-0.285,0.516c0,0.125,0.04,0.238,0.118,0.338
		c0.079,0.104,0.202,0.19,0.371,0.258c0.097,0.036,0.381,0.118,0.854,0.247c0.684,0.183,1.161,0.332,1.431,0.448
		c0.271,0.117,0.483,0.286,0.637,0.508s0.231,0.498,0.231,0.827c0,0.322-0.094,0.626-0.282,0.91
		c-0.188,0.285-0.459,0.505-0.814,0.661c-0.354,0.155-0.755,0.233-1.203,0.233c-0.741,0-1.306-0.154-1.695-0.462
		C542.868,17.359,542.62,16.902,542.512,16.297z"/>
</g>
<line class="st1" x1="9" y1="23.811" x2="612" y2="23.811"/>
<polygon class="st2" points="153,27.461 298.914,27.461 319.491,40.73 298.914,54 153,54 173.573,40.73 "/>
<g>
	<path d="M216.302,41.961l0.956-0.15c0.054,0.383,0.203,0.677,0.449,0.881c0.245,0.204,0.588,0.306,1.028,0.306
		c0.444,0,0.773-0.09,0.988-0.271c0.215-0.181,0.322-0.393,0.322-0.636c0-0.218-0.095-0.39-0.285-0.516
		c-0.132-0.086-0.462-0.195-0.988-0.328c-0.709-0.179-1.201-0.334-1.474-0.465c-0.274-0.13-0.482-0.312-0.623-0.542
		c-0.142-0.231-0.212-0.486-0.212-0.766c0-0.254,0.058-0.49,0.174-0.706c0.117-0.217,0.275-0.397,0.476-0.54
		c0.15-0.111,0.355-0.205,0.615-0.282c0.259-0.077,0.538-0.115,0.835-0.115c0.448,0,0.841,0.064,1.179,0.193
		c0.339,0.129,0.588,0.304,0.75,0.523c0.161,0.221,0.272,0.515,0.333,0.884l-0.945,0.129c-0.043-0.293-0.167-0.523-0.374-0.688
		c-0.206-0.165-0.497-0.247-0.873-0.247c-0.444,0-0.761,0.073-0.951,0.22s-0.285,0.319-0.285,0.516c0,0.125,0.04,0.238,0.118,0.338
		c0.079,0.104,0.202,0.19,0.371,0.258c0.097,0.036,0.381,0.118,0.854,0.247c0.684,0.183,1.161,0.332,1.431,0.448
		c0.271,0.117,0.483,0.286,0.637,0.508s0.231,0.498,0.231,0.827c0,0.322-0.094,0.626-0.282,0.91
		c-0.188,0.285-0.459,0.505-0.814,0.661c-0.354,0.155-0.755,0.233-1.203,0.233c-0.741,0-1.306-0.154-1.695-0.462
		C216.657,43.022,216.409,42.566,216.302,41.961z"/>
	<path d="M226.093,41.827l0.999,0.124c-0.158,0.583-0.449,1.037-0.875,1.359s-0.97,0.483-1.633,0.483
		c-0.834,0-1.496-0.257-1.985-0.771c-0.488-0.514-0.733-1.235-0.733-2.162c0-0.959,0.247-1.705,0.741-2.234s1.135-0.795,1.923-0.795
		c0.763,0,1.386,0.26,1.869,0.779s0.725,1.25,0.725,2.191c0,0.057-0.002,0.143-0.005,0.258h-4.254
		c0.036,0.626,0.213,1.106,0.532,1.439s0.716,0.5,1.192,0.5c0.354,0,0.657-0.093,0.908-0.279S225.946,42.235,226.093,41.827z
		 M222.919,40.264h3.185c-0.043-0.48-0.165-0.84-0.365-1.08c-0.308-0.373-0.707-0.559-1.198-0.559c-0.444,0-0.817,0.148-1.12,0.446
		C223.119,39.369,222.951,39.766,222.919,40.264z"/>
	<path d="M231.942,45.85v-2.793c-0.15,0.211-0.361,0.387-0.631,0.526c-0.271,0.14-0.558,0.209-0.862,0.209
		c-0.677,0-1.26-0.271-1.748-0.811c-0.489-0.541-0.733-1.282-0.733-2.224c0-0.573,0.1-1.087,0.298-1.542
		c0.199-0.455,0.487-0.799,0.865-1.034c0.377-0.234,0.792-0.352,1.243-0.352c0.706,0,1.26,0.297,1.665,0.892v-0.763h0.87v7.89
		H231.942z M228.961,40.795c0,0.734,0.154,1.285,0.462,1.651c0.308,0.367,0.677,0.551,1.106,0.551c0.412,0,0.766-0.175,1.063-0.523
		c0.297-0.35,0.446-0.88,0.446-1.593c0-0.759-0.157-1.33-0.47-1.713c-0.313-0.383-0.682-0.575-1.104-0.575
		c-0.419,0-0.774,0.178-1.066,0.534C229.107,39.484,228.961,40.04,228.961,40.795z"/>
	<path d="M234.247,44.136l0.94,0.14c0.04,0.29,0.148,0.501,0.328,0.634c0.24,0.179,0.567,0.269,0.983,0.269
		c0.448,0,0.793-0.089,1.037-0.269s0.408-0.43,0.494-0.752c0.05-0.197,0.073-0.61,0.07-1.241c-0.422,0.498-0.949,0.747-1.579,0.747
		c-0.784,0-1.391-0.283-1.821-0.849s-0.645-1.244-0.645-2.036c0-0.544,0.099-1.046,0.295-1.506c0.197-0.46,0.482-0.816,0.857-1.066
		c0.374-0.25,0.813-0.376,1.318-0.376c0.673,0,1.228,0.272,1.665,0.816v-0.688h0.892v4.931c0,0.888-0.09,1.518-0.271,1.888
		c-0.181,0.371-0.467,0.664-0.859,0.878c-0.392,0.215-0.875,0.322-1.447,0.322c-0.68,0-1.23-0.153-1.649-0.459
		C234.435,45.213,234.232,44.752,234.247,44.136z M235.047,40.709c0,0.749,0.148,1.294,0.446,1.638s0.669,0.516,1.117,0.516
		c0.444,0,0.816-0.171,1.117-0.513c0.301-0.342,0.451-0.878,0.451-1.608c0-0.698-0.155-1.225-0.465-1.579
		c-0.31-0.354-0.683-0.532-1.12-0.532c-0.43,0-0.795,0.174-1.096,0.524C235.197,39.503,235.047,40.022,235.047,40.709z"/>
	<path d="M240.531,43.664v-5.704h0.87v0.865c0.222-0.405,0.427-0.671,0.615-0.8c0.188-0.129,0.395-0.193,0.621-0.193
		c0.326,0,0.657,0.104,0.994,0.312l-0.333,0.897c-0.236-0.14-0.473-0.209-0.709-0.209c-0.211,0-0.401,0.063-0.569,0.19
		c-0.168,0.127-0.288,0.304-0.36,0.529c-0.107,0.344-0.161,0.72-0.161,1.128v2.986H240.531z"/>
	<path d="M247.927,42.96c-0.358,0.304-0.703,0.519-1.034,0.645c-0.331,0.125-0.687,0.188-1.066,0.188
		c-0.626,0-1.108-0.153-1.445-0.459c-0.336-0.307-0.505-0.698-0.505-1.174c0-0.279,0.063-0.534,0.19-0.766
		c0.127-0.23,0.294-0.416,0.5-0.556c0.206-0.14,0.438-0.245,0.695-0.317c0.19-0.05,0.476-0.099,0.859-0.145
		c0.781-0.093,1.355-0.204,1.724-0.333c0.003-0.132,0.005-0.217,0.005-0.252c0-0.394-0.091-0.671-0.274-0.833
		c-0.247-0.218-0.614-0.328-1.101-0.328c-0.455,0-0.791,0.08-1.007,0.239c-0.217,0.16-0.377,0.441-0.481,0.846l-0.945-0.129
		c0.086-0.405,0.228-0.731,0.424-0.98c0.197-0.249,0.481-0.44,0.854-0.575c0.373-0.134,0.804-0.201,1.294-0.201
		c0.487,0,0.883,0.057,1.187,0.172s0.528,0.259,0.671,0.433c0.143,0.173,0.244,0.393,0.301,0.658
		c0.032,0.165,0.048,0.462,0.048,0.892v1.289c0,0.899,0.021,1.467,0.062,1.706c0.041,0.238,0.123,0.466,0.244,0.685h-1.01
		C248.02,43.463,247.956,43.229,247.927,42.96z M247.846,40.801c-0.351,0.143-0.877,0.265-1.579,0.365
		c-0.397,0.057-0.679,0.122-0.843,0.193s-0.292,0.176-0.381,0.314c-0.089,0.138-0.134,0.291-0.134,0.459
		c0,0.258,0.098,0.473,0.293,0.645c0.195,0.172,0.48,0.258,0.856,0.258c0.373,0,0.704-0.082,0.994-0.245
		c0.29-0.163,0.503-0.386,0.639-0.668c0.104-0.218,0.156-0.541,0.156-0.967V40.801z"/>
	<path d="M173.01,49.724l0.519,0.067c-0.057,0.357-0.202,0.637-0.435,0.839s-0.52,0.303-0.86,0.303
		c-0.426,0-0.768-0.139-1.027-0.417s-0.388-0.677-0.388-1.197c0-0.336,0.056-0.63,0.167-0.882s0.281-0.441,0.508-0.567
		s0.475-0.189,0.743-0.189c0.338,0,0.614,0.085,0.829,0.256s0.353,0.414,0.413,0.728l-0.513,0.079
		c-0.049-0.209-0.135-0.366-0.259-0.472s-0.274-0.158-0.45-0.158c-0.266,0-0.481,0.095-0.647,0.286s-0.249,0.492-0.249,0.904
		c0,0.418,0.08,0.722,0.24,0.911s0.369,0.284,0.627,0.284c0.207,0,0.38-0.063,0.519-0.19S172.973,49.988,173.01,49.724z"/>
	<path d="M173.784,49.308c0-0.576,0.16-1.003,0.48-1.28c0.268-0.23,0.594-0.346,0.979-0.346c0.428,0,0.777,0.14,1.049,0.42
		s0.407,0.667,0.407,1.162c0,0.4-0.06,0.715-0.18,0.945s-0.295,0.408-0.524,0.535s-0.48,0.19-0.751,0.19
		c-0.436,0-0.788-0.14-1.056-0.419S173.784,49.833,173.784,49.308z M174.326,49.308c0,0.398,0.087,0.697,0.261,0.895
		s0.393,0.297,0.656,0.297c0.262,0,0.479-0.1,0.653-0.299s0.261-0.503,0.261-0.911c0-0.385-0.087-0.676-0.262-0.875
		s-0.392-0.297-0.652-0.297c-0.264,0-0.482,0.099-0.656,0.296S174.326,48.91,174.326,49.308z"/>
	<path d="M177.311,50.864v-3.111h0.475v0.472c0.121-0.221,0.233-0.366,0.335-0.437s0.215-0.105,0.338-0.105
		c0.178,0,0.358,0.057,0.542,0.17l-0.182,0.489c-0.129-0.076-0.258-0.114-0.387-0.114c-0.115,0-0.219,0.035-0.311,0.104
		s-0.157,0.166-0.196,0.289c-0.059,0.188-0.088,0.393-0.088,0.615v1.629H177.311z"/>
	<path d="M181.445,49.862l0.545,0.067c-0.086,0.318-0.245,0.565-0.478,0.741s-0.529,0.264-0.891,0.264
		c-0.455,0-0.816-0.14-1.083-0.42s-0.4-0.673-0.4-1.179c0-0.523,0.135-0.93,0.404-1.219s0.619-0.434,1.049-0.434
		c0.416,0,0.756,0.142,1.02,0.425s0.396,0.682,0.396,1.195c0,0.031-0.001,0.078-0.003,0.141h-2.32
		c0.02,0.342,0.116,0.604,0.29,0.785s0.391,0.272,0.65,0.272c0.193,0,0.358-0.051,0.495-0.152S181.365,50.084,181.445,49.862z
		 M179.713,49.009h1.737c-0.023-0.262-0.09-0.458-0.199-0.589c-0.168-0.203-0.386-0.305-0.653-0.305
		c-0.242,0-0.446,0.081-0.611,0.243S179.731,48.738,179.713,49.009z"/>
	<path d="M184.445,50.864v-2.701h-0.466v-0.41h0.466v-0.331c0-0.209,0.019-0.364,0.056-0.466c0.051-0.137,0.14-0.248,0.268-0.333
		s0.307-0.127,0.538-0.127c0.148,0,0.312,0.018,0.492,0.053l-0.079,0.46c-0.109-0.02-0.213-0.029-0.311-0.029
		c-0.16,0-0.273,0.034-0.34,0.103s-0.1,0.196-0.1,0.384v0.287h0.606v0.41h-0.606v2.701H184.445z"/>
	<path d="M188.025,50.864v-0.457c-0.242,0.352-0.571,0.527-0.987,0.527c-0.184,0-0.355-0.035-0.514-0.105s-0.277-0.159-0.354-0.265
		s-0.131-0.237-0.163-0.391c-0.021-0.104-0.032-0.268-0.032-0.492v-1.928h0.527v1.726c0,0.275,0.011,0.461,0.032,0.557
		c0.033,0.139,0.104,0.248,0.211,0.327s0.24,0.119,0.398,0.119s0.307-0.041,0.445-0.122s0.237-0.191,0.294-0.331
		s0.086-0.342,0.086-0.608v-1.667h0.527v3.111H188.025z"/>
	<path d="M189.323,50.864v-3.111h0.475v0.442c0.229-0.342,0.559-0.513,0.99-0.513c0.188,0,0.36,0.034,0.517,0.101
		s0.275,0.156,0.353,0.265s0.133,0.239,0.164,0.39c0.02,0.098,0.029,0.269,0.029,0.513v1.913h-0.527v-1.893
		c0-0.215-0.021-0.375-0.062-0.482s-0.114-0.191-0.218-0.255s-0.227-0.095-0.368-0.095c-0.225,0-0.418,0.071-0.582,0.214
		s-0.245,0.413-0.245,0.812v1.699H189.323z"/>
	<path d="M194.69,49.724l0.519,0.067c-0.057,0.357-0.202,0.637-0.435,0.839s-0.52,0.303-0.86,0.303
		c-0.426,0-0.768-0.139-1.027-0.417s-0.388-0.677-0.388-1.197c0-0.336,0.056-0.63,0.167-0.882s0.281-0.441,0.508-0.567
		s0.475-0.189,0.743-0.189c0.338,0,0.614,0.085,0.829,0.256s0.353,0.414,0.413,0.728l-0.513,0.079
		c-0.049-0.209-0.135-0.366-0.259-0.472s-0.274-0.158-0.45-0.158c-0.266,0-0.481,0.095-0.647,0.286s-0.249,0.492-0.249,0.904
		c0,0.418,0.08,0.722,0.24,0.911s0.369,0.284,0.627,0.284c0.207,0,0.38-0.063,0.519-0.19S194.653,49.988,194.69,49.724z"/>
	<path d="M196.811,50.392l0.076,0.466c-0.148,0.031-0.281,0.047-0.398,0.047c-0.191,0-0.34-0.03-0.445-0.091s-0.18-0.14-0.223-0.239
		s-0.064-0.306-0.064-0.623v-1.79h-0.387v-0.41h0.387v-0.771l0.524-0.316v1.087h0.53v0.41h-0.53v1.819
		c0,0.15,0.009,0.247,0.028,0.29s0.049,0.077,0.091,0.103s0.102,0.038,0.18,0.038C196.638,50.413,196.715,50.406,196.811,50.392z"/>
	<path d="M197.33,47.175v-0.606h0.527v0.606H197.33z M197.33,50.864v-3.111h0.527v3.111H197.33z"/>
	<path d="M198.463,49.308c0-0.576,0.16-1.003,0.48-1.28c0.268-0.23,0.594-0.346,0.979-0.346c0.428,0,0.777,0.14,1.049,0.42
		s0.407,0.667,0.407,1.162c0,0.4-0.06,0.715-0.18,0.945s-0.295,0.408-0.524,0.535s-0.48,0.19-0.751,0.19
		c-0.436,0-0.788-0.14-1.056-0.419S198.463,49.833,198.463,49.308z M199.005,49.308c0,0.398,0.087,0.697,0.261,0.895
		s0.393,0.297,0.656,0.297c0.262,0,0.479-0.1,0.653-0.299s0.261-0.503,0.261-0.911c0-0.385-0.087-0.676-0.262-0.875
		s-0.392-0.297-0.652-0.297c-0.264,0-0.482,0.099-0.656,0.296S199.005,48.91,199.005,49.308z"/>
	<path d="M201.997,50.864v-3.111h0.475v0.442c0.229-0.342,0.559-0.513,0.99-0.513c0.188,0,0.36,0.034,0.517,0.101
		s0.275,0.156,0.353,0.265s0.133,0.239,0.164,0.39c0.02,0.098,0.029,0.269,0.029,0.513v1.913h-0.527v-1.893
		c0-0.215-0.021-0.375-0.062-0.482s-0.114-0.191-0.218-0.255s-0.227-0.095-0.368-0.095c-0.225,0-0.418,0.071-0.582,0.214
		s-0.245,0.413-0.245,0.812v1.699H201.997z"/>
	<path d="M207.364,50.48c-0.195,0.166-0.383,0.283-0.564,0.352s-0.375,0.103-0.582,0.103c-0.342,0-0.604-0.083-0.788-0.25
		s-0.275-0.38-0.275-0.64c0-0.152,0.035-0.292,0.104-0.417s0.16-0.227,0.272-0.303s0.239-0.134,0.379-0.173
		c0.104-0.027,0.26-0.054,0.469-0.079c0.426-0.051,0.739-0.111,0.94-0.182c0.002-0.072,0.003-0.118,0.003-0.138
		c0-0.215-0.05-0.366-0.149-0.454c-0.135-0.119-0.335-0.179-0.601-0.179c-0.248,0-0.431,0.043-0.549,0.13s-0.206,0.241-0.262,0.461
		l-0.516-0.07c0.047-0.221,0.124-0.399,0.231-0.535s0.263-0.24,0.466-0.313s0.438-0.11,0.706-0.11c0.266,0,0.481,0.031,0.647,0.094
		s0.288,0.141,0.366,0.236s0.133,0.214,0.164,0.359c0.018,0.09,0.026,0.252,0.026,0.486v0.703c0,0.49,0.011,0.8,0.034,0.93
		s0.067,0.254,0.133,0.374h-0.551C207.415,50.754,207.379,50.626,207.364,50.48z M207.32,49.302
		c-0.191,0.078-0.479,0.145-0.861,0.199c-0.217,0.031-0.37,0.066-0.46,0.105s-0.159,0.096-0.208,0.171s-0.073,0.159-0.073,0.25
		c0,0.141,0.053,0.258,0.16,0.352s0.262,0.141,0.467,0.141c0.203,0,0.384-0.044,0.542-0.133s0.274-0.21,0.349-0.365
		c0.057-0.119,0.085-0.295,0.085-0.527V49.302z"/>
	<path d="M208.659,50.864v-4.295h0.527v4.295H208.659z"/>
	<path d="M210.006,47.175v-0.606h0.527v0.606H210.006z M210.006,50.864v-3.111h0.527v3.111H210.006z"/>
	<path d="M212.488,50.392l0.076,0.466c-0.148,0.031-0.281,0.047-0.398,0.047c-0.191,0-0.34-0.03-0.445-0.091s-0.18-0.14-0.223-0.239
		s-0.064-0.306-0.064-0.623v-1.79h-0.387v-0.41h0.387v-0.771l0.524-0.316v1.087h0.53v0.41h-0.53v1.819
		c0,0.15,0.009,0.247,0.028,0.29s0.049,0.077,0.091,0.103s0.102,0.038,0.18,0.038C212.315,50.413,212.392,50.406,212.488,50.392z"/>
	<path d="M212.98,52.062l-0.059-0.495c0.115,0.031,0.216,0.047,0.302,0.047c0.117,0,0.211-0.02,0.281-0.059s0.128-0.094,0.173-0.164
		c0.033-0.053,0.087-0.184,0.161-0.393c0.01-0.029,0.025-0.072,0.047-0.129l-1.181-3.117h0.568l0.647,1.802
		c0.084,0.229,0.159,0.469,0.226,0.721c0.061-0.242,0.133-0.479,0.217-0.709l0.665-1.813h0.527l-1.184,3.164
		c-0.127,0.342-0.226,0.577-0.296,0.706c-0.094,0.174-0.201,0.301-0.322,0.382s-0.266,0.122-0.434,0.122
		C213.218,52.126,213.105,52.105,212.98,52.062z"/>
	<path d="M218.678,52.126c-0.291-0.367-0.537-0.797-0.738-1.289s-0.302-1.002-0.302-1.529c0-0.465,0.075-0.91,0.226-1.336
		c0.176-0.494,0.447-0.986,0.814-1.477h0.378c-0.236,0.406-0.393,0.696-0.469,0.87c-0.119,0.27-0.213,0.551-0.281,0.844
		c-0.084,0.365-0.126,0.732-0.126,1.102c0,0.939,0.292,1.878,0.876,2.815H218.678z"/>
	<path d="M219.458,49.935l0.521-0.082c0.029,0.209,0.111,0.369,0.245,0.48s0.321,0.167,0.561,0.167c0.242,0,0.422-0.049,0.539-0.148
		s0.176-0.214,0.176-0.347c0-0.119-0.052-0.213-0.155-0.281c-0.072-0.047-0.252-0.106-0.539-0.179
		c-0.387-0.098-0.655-0.182-0.804-0.253s-0.263-0.17-0.34-0.296s-0.116-0.265-0.116-0.417c0-0.139,0.032-0.267,0.095-0.385
		s0.15-0.216,0.259-0.294c0.082-0.061,0.194-0.112,0.335-0.154s0.293-0.063,0.456-0.063c0.244,0,0.458,0.035,0.643,0.105
		s0.321,0.166,0.409,0.286s0.148,0.281,0.182,0.482l-0.516,0.07c-0.023-0.16-0.091-0.285-0.204-0.375s-0.271-0.135-0.476-0.135
		c-0.242,0-0.415,0.04-0.519,0.12s-0.155,0.174-0.155,0.281c0,0.068,0.021,0.13,0.064,0.185c0.043,0.057,0.11,0.104,0.202,0.141
		c0.053,0.02,0.208,0.064,0.466,0.135c0.373,0.1,0.633,0.181,0.781,0.245s0.263,0.156,0.347,0.277s0.126,0.271,0.126,0.451
		c0,0.176-0.051,0.341-0.154,0.497s-0.25,0.275-0.444,0.36s-0.412,0.127-0.656,0.127c-0.404,0-0.712-0.084-0.924-0.252
		S219.516,50.265,219.458,49.935z"/>
	<path d="M222.671,47.175v-0.606h0.527v0.606H222.671z M222.671,50.864v-3.111h0.527v3.111H222.671z"/>
	<path d="M224.001,50.864v-3.111h0.472v0.437c0.098-0.152,0.228-0.275,0.39-0.368s0.347-0.139,0.554-0.139
		c0.23,0,0.419,0.048,0.567,0.144s0.251,0.229,0.312,0.401c0.246-0.363,0.566-0.545,0.961-0.545c0.309,0,0.546,0.085,0.712,0.256
		s0.249,0.434,0.249,0.79v2.136h-0.524v-1.96c0-0.211-0.017-0.363-0.051-0.456s-0.096-0.167-0.186-0.224s-0.195-0.085-0.316-0.085
		c-0.219,0-0.4,0.073-0.545,0.218s-0.217,0.378-0.217,0.699v1.808h-0.527v-2.021c0-0.234-0.043-0.41-0.129-0.527
		s-0.227-0.176-0.422-0.176c-0.148,0-0.286,0.039-0.412,0.117s-0.217,0.192-0.274,0.343s-0.085,0.367-0.085,0.65v1.614H224.001z"/>
	<path d="M231.039,50.864v-0.457c-0.242,0.352-0.571,0.527-0.987,0.527c-0.184,0-0.355-0.035-0.514-0.105s-0.277-0.159-0.354-0.265
		s-0.131-0.237-0.163-0.391c-0.021-0.104-0.032-0.268-0.032-0.492v-1.928h0.527v1.726c0,0.275,0.011,0.461,0.032,0.557
		c0.033,0.139,0.104,0.248,0.211,0.327s0.24,0.119,0.398,0.119s0.307-0.041,0.445-0.122s0.237-0.191,0.294-0.331
		s0.086-0.342,0.086-0.608v-1.667h0.527v3.111H231.039z"/>
	<path d="M232.325,50.864v-4.295h0.527v4.295H232.325z"/>
	<path d="M235.7,50.48c-0.195,0.166-0.383,0.283-0.564,0.352s-0.375,0.103-0.582,0.103c-0.342,0-0.604-0.083-0.788-0.25
		s-0.275-0.38-0.275-0.64c0-0.152,0.035-0.292,0.104-0.417s0.16-0.227,0.272-0.303s0.239-0.134,0.379-0.173
		c0.104-0.027,0.26-0.054,0.469-0.079c0.426-0.051,0.739-0.111,0.94-0.182c0.002-0.072,0.003-0.118,0.003-0.138
		c0-0.215-0.05-0.366-0.149-0.454c-0.135-0.119-0.335-0.179-0.601-0.179c-0.248,0-0.431,0.043-0.549,0.13s-0.206,0.241-0.262,0.461
		l-0.516-0.07c0.047-0.221,0.124-0.399,0.231-0.535s0.263-0.24,0.466-0.313s0.438-0.11,0.706-0.11c0.266,0,0.481,0.031,0.647,0.094
		s0.288,0.141,0.366,0.236s0.133,0.214,0.164,0.359c0.018,0.09,0.026,0.252,0.026,0.486v0.703c0,0.49,0.011,0.8,0.034,0.93
		s0.067,0.254,0.133,0.374h-0.551C235.75,50.754,235.715,50.626,235.7,50.48z M235.656,49.302c-0.191,0.078-0.479,0.145-0.861,0.199
		c-0.217,0.031-0.37,0.066-0.46,0.105s-0.159,0.096-0.208,0.171s-0.073,0.159-0.073,0.25c0,0.141,0.053,0.258,0.16,0.352
		s0.262,0.141,0.467,0.141c0.203,0,0.384-0.044,0.542-0.133s0.274-0.21,0.349-0.365c0.057-0.119,0.085-0.295,0.085-0.527V49.302z"/>
	<path d="M238.158,50.392l0.076,0.466c-0.148,0.031-0.281,0.047-0.398,0.047c-0.191,0-0.34-0.03-0.445-0.091s-0.18-0.14-0.223-0.239
		s-0.064-0.306-0.064-0.623v-1.79h-0.387v-0.41h0.387v-0.771l0.524-0.316v1.087h0.53v0.41h-0.53v1.819
		c0,0.15,0.009,0.247,0.028,0.29s0.049,0.077,0.091,0.103s0.102,0.038,0.18,0.038C237.985,50.413,238.062,50.406,238.158,50.392z"/>
	<path d="M238.477,49.308c0-0.576,0.16-1.003,0.48-1.28c0.268-0.23,0.594-0.346,0.979-0.346c0.428,0,0.777,0.14,1.049,0.42
		s0.407,0.667,0.407,1.162c0,0.4-0.06,0.715-0.18,0.945s-0.295,0.408-0.524,0.535s-0.48,0.19-0.751,0.19
		c-0.436,0-0.788-0.14-1.056-0.419S238.477,49.833,238.477,49.308z M239.019,49.308c0,0.398,0.087,0.697,0.261,0.895
		s0.393,0.297,0.656,0.297c0.262,0,0.479-0.1,0.653-0.299s0.261-0.503,0.261-0.911c0-0.385-0.087-0.676-0.262-0.875
		s-0.392-0.297-0.652-0.297c-0.264,0-0.482,0.099-0.656,0.296S239.019,48.91,239.019,49.308z"/>
	<path d="M242.004,50.864v-3.111h0.475v0.472c0.121-0.221,0.233-0.366,0.335-0.437s0.215-0.105,0.338-0.105
		c0.178,0,0.358,0.057,0.542,0.17l-0.182,0.489c-0.129-0.076-0.258-0.114-0.387-0.114c-0.115,0-0.219,0.035-0.311,0.104
		s-0.157,0.166-0.196,0.289c-0.059,0.188-0.088,0.393-0.088,0.615v1.629H242.004z"/>
	<path d="M243.815,50.864v-0.601h0.601v0.601c0,0.221-0.039,0.399-0.117,0.535s-0.202,0.241-0.372,0.315l-0.146-0.226
		c0.111-0.049,0.193-0.121,0.246-0.215s0.082-0.231,0.088-0.409H243.815z"/>
	<path d="M247,50.864v-4.295h0.527v4.295H247z"/>
	<path d="M250.474,49.862l0.545,0.067c-0.086,0.318-0.245,0.565-0.478,0.741s-0.529,0.264-0.891,0.264
		c-0.455,0-0.816-0.14-1.083-0.42s-0.4-0.673-0.4-1.179c0-0.523,0.135-0.93,0.404-1.219s0.619-0.434,1.049-0.434
		c0.416,0,0.756,0.142,1.02,0.425s0.396,0.682,0.396,1.195c0,0.031-0.001,0.078-0.003,0.141h-2.32
		c0.02,0.342,0.116,0.604,0.29,0.785s0.391,0.272,0.65,0.272c0.193,0,0.358-0.051,0.495-0.152S250.394,50.084,250.474,49.862z
		 M248.743,49.009h1.737c-0.023-0.262-0.09-0.458-0.199-0.589c-0.168-0.203-0.386-0.305-0.653-0.305
		c-0.242,0-0.446,0.081-0.611,0.243S248.76,48.738,248.743,49.009z"/>
	<path d="M253.711,50.48c-0.195,0.166-0.383,0.283-0.564,0.352s-0.375,0.103-0.582,0.103c-0.342,0-0.604-0.083-0.788-0.25
		s-0.275-0.38-0.275-0.64c0-0.152,0.035-0.292,0.104-0.417s0.16-0.227,0.272-0.303s0.239-0.134,0.379-0.173
		c0.104-0.027,0.26-0.054,0.469-0.079c0.426-0.051,0.739-0.111,0.94-0.182c0.002-0.072,0.003-0.118,0.003-0.138
		c0-0.215-0.05-0.366-0.149-0.454c-0.135-0.119-0.335-0.179-0.601-0.179c-0.248,0-0.431,0.043-0.549,0.13s-0.206,0.241-0.262,0.461
		l-0.516-0.07c0.047-0.221,0.124-0.399,0.231-0.535s0.263-0.24,0.466-0.313s0.438-0.11,0.706-0.11c0.266,0,0.481,0.031,0.647,0.094
		s0.288,0.141,0.366,0.236s0.133,0.214,0.164,0.359c0.018,0.09,0.026,0.252,0.026,0.486v0.703c0,0.49,0.011,0.8,0.034,0.93
		s0.067,0.254,0.133,0.374h-0.551C253.762,50.754,253.727,50.626,253.711,50.48z M253.667,49.302
		c-0.191,0.078-0.479,0.145-0.861,0.199c-0.217,0.031-0.37,0.066-0.46,0.105s-0.159,0.096-0.208,0.171s-0.073,0.159-0.073,0.25
		c0,0.141,0.053,0.258,0.16,0.352s0.262,0.141,0.467,0.141c0.203,0,0.384-0.044,0.542-0.133s0.274-0.21,0.349-0.365
		c0.057-0.119,0.085-0.295,0.085-0.527V49.302z"/>
	<path d="M255.012,50.864v-3.111h0.475v0.472c0.121-0.221,0.233-0.366,0.335-0.437s0.215-0.105,0.338-0.105
		c0.178,0,0.358,0.057,0.542,0.17l-0.182,0.489c-0.129-0.076-0.258-0.114-0.387-0.114c-0.115,0-0.219,0.035-0.311,0.104
		s-0.157,0.166-0.196,0.289c-0.059,0.188-0.088,0.393-0.088,0.615v1.629H255.012z"/>
	<path d="M257.016,50.864v-3.111h0.475v0.442c0.229-0.342,0.559-0.513,0.99-0.513c0.188,0,0.36,0.034,0.517,0.101
		s0.275,0.156,0.353,0.265s0.133,0.239,0.164,0.39c0.02,0.098,0.029,0.269,0.029,0.513v1.913h-0.527v-1.893
		c0-0.215-0.021-0.375-0.062-0.482s-0.114-0.191-0.218-0.255s-0.227-0.095-0.368-0.095c-0.225,0-0.418,0.071-0.582,0.214
		s-0.245,0.413-0.245,0.812v1.699H257.016z"/>
	<path d="M262.483,49.862l0.545,0.067c-0.086,0.318-0.245,0.565-0.478,0.741s-0.529,0.264-0.891,0.264
		c-0.455,0-0.816-0.14-1.083-0.42s-0.4-0.673-0.4-1.179c0-0.523,0.135-0.93,0.404-1.219s0.619-0.434,1.049-0.434
		c0.416,0,0.756,0.142,1.02,0.425s0.396,0.682,0.396,1.195c0,0.031-0.001,0.078-0.003,0.141h-2.32
		c0.02,0.342,0.116,0.604,0.29,0.785s0.391,0.272,0.65,0.272c0.193,0,0.358-0.051,0.495-0.152S262.403,50.084,262.483,49.862z
		 M260.751,49.009h1.737c-0.023-0.262-0.09-0.458-0.199-0.589c-0.168-0.203-0.386-0.305-0.653-0.305
		c-0.242,0-0.446,0.081-0.611,0.243S260.769,48.738,260.751,49.009z"/>
	<path d="M263.684,50.864v-3.111h0.475v0.472c0.121-0.221,0.233-0.366,0.335-0.437s0.215-0.105,0.338-0.105
		c0.178,0,0.358,0.057,0.542,0.17l-0.182,0.489c-0.129-0.076-0.258-0.114-0.387-0.114c-0.115,0-0.219,0.035-0.311,0.104
		s-0.157,0.166-0.196,0.289c-0.059,0.188-0.088,0.393-0.088,0.615v1.629H263.684z"/>
	<path d="M265.495,50.864v-0.601h0.601v0.601c0,0.221-0.039,0.399-0.117,0.535s-0.202,0.241-0.372,0.315l-0.146-0.226
		c0.111-0.049,0.193-0.121,0.246-0.215s0.082-0.231,0.088-0.409H265.495z"/>
	<path d="M270.821,49.862l0.545,0.067c-0.086,0.318-0.245,0.565-0.478,0.741s-0.529,0.264-0.891,0.264
		c-0.455,0-0.816-0.14-1.083-0.42s-0.4-0.673-0.4-1.179c0-0.523,0.135-0.93,0.404-1.219s0.619-0.434,1.049-0.434
		c0.416,0,0.756,0.142,1.02,0.425s0.396,0.682,0.396,1.195c0,0.031-0.001,0.078-0.003,0.141h-2.32
		c0.02,0.342,0.116,0.604,0.29,0.785S269.741,50.5,270,50.5c0.193,0,0.358-0.051,0.495-0.152S270.741,50.084,270.821,49.862z
		 M269.089,49.009h1.737c-0.023-0.262-0.09-0.458-0.199-0.589c-0.168-0.203-0.386-0.305-0.653-0.305
		c-0.242,0-0.446,0.081-0.611,0.243S269.107,48.738,269.089,49.009z"/>
	<path d="M272.892,50.864l-1.184-3.111h0.557l0.668,1.863c0.072,0.201,0.139,0.41,0.199,0.627c0.047-0.164,0.112-0.361,0.196-0.592
		l0.691-1.898h0.542l-1.178,3.111H272.892z"/>
	<path d="M277.058,50.48c-0.195,0.166-0.383,0.283-0.564,0.352s-0.375,0.103-0.582,0.103c-0.342,0-0.604-0.083-0.788-0.25
		s-0.275-0.38-0.275-0.64c0-0.152,0.035-0.292,0.104-0.417s0.16-0.227,0.272-0.303s0.239-0.134,0.379-0.173
		c0.104-0.027,0.26-0.054,0.469-0.079c0.426-0.051,0.739-0.111,0.94-0.182c0.002-0.072,0.003-0.118,0.003-0.138
		c0-0.215-0.05-0.366-0.149-0.454c-0.135-0.119-0.335-0.179-0.601-0.179c-0.248,0-0.431,0.043-0.549,0.13s-0.206,0.241-0.262,0.461
		l-0.516-0.07c0.047-0.221,0.124-0.399,0.231-0.535s0.263-0.24,0.466-0.313s0.438-0.11,0.706-0.11c0.266,0,0.481,0.031,0.647,0.094
		s0.288,0.141,0.366,0.236s0.133,0.214,0.164,0.359c0.018,0.09,0.026,0.252,0.026,0.486v0.703c0,0.49,0.011,0.8,0.034,0.93
		s0.067,0.254,0.133,0.374h-0.551C277.109,50.754,277.074,50.626,277.058,50.48z M277.014,49.302
		c-0.191,0.078-0.479,0.145-0.861,0.199c-0.217,0.031-0.37,0.066-0.46,0.105s-0.159,0.096-0.208,0.171s-0.073,0.159-0.073,0.25
		c0,0.141,0.053,0.258,0.16,0.352s0.262,0.141,0.467,0.141c0.203,0,0.384-0.044,0.542-0.133s0.274-0.21,0.349-0.365
		c0.057-0.119,0.085-0.295,0.085-0.527V49.302z"/>
	<path d="M278.353,50.864v-4.295h0.527v4.295H278.353z"/>
	<path d="M281.737,50.864v-0.457c-0.242,0.352-0.571,0.527-0.987,0.527c-0.184,0-0.355-0.035-0.514-0.105s-0.277-0.159-0.354-0.265
		s-0.131-0.237-0.163-0.391c-0.021-0.104-0.032-0.268-0.032-0.492v-1.928h0.527v1.726c0,0.275,0.011,0.461,0.032,0.557
		c0.033,0.139,0.104,0.248,0.211,0.327s0.24,0.119,0.398,0.119s0.307-0.041,0.445-0.122s0.237-0.191,0.294-0.331
		s0.086-0.342,0.086-0.608v-1.667h0.527v3.111H281.737z"/>
	<path d="M285.065,50.48c-0.195,0.166-0.383,0.283-0.564,0.352s-0.375,0.103-0.582,0.103c-0.342,0-0.604-0.083-0.788-0.25
		s-0.275-0.38-0.275-0.64c0-0.152,0.035-0.292,0.104-0.417s0.16-0.227,0.272-0.303s0.239-0.134,0.379-0.173
		c0.104-0.027,0.26-0.054,0.469-0.079c0.426-0.051,0.739-0.111,0.94-0.182c0.002-0.072,0.003-0.118,0.003-0.138
		c0-0.215-0.05-0.366-0.149-0.454c-0.135-0.119-0.335-0.179-0.601-0.179c-0.248,0-0.431,0.043-0.549,0.13s-0.206,0.241-0.262,0.461
		l-0.516-0.07c0.047-0.221,0.124-0.399,0.231-0.535s0.263-0.24,0.466-0.313s0.438-0.11,0.706-0.11c0.266,0,0.481,0.031,0.647,0.094
		s0.288,0.141,0.366,0.236s0.133,0.214,0.164,0.359c0.018,0.09,0.026,0.252,0.026,0.486v0.703c0,0.49,0.011,0.8,0.034,0.93
		s0.067,0.254,0.133,0.374h-0.551C285.116,50.754,285.081,50.626,285.065,50.48z M285.021,49.302
		c-0.191,0.078-0.479,0.145-0.861,0.199c-0.217,0.031-0.37,0.066-0.46,0.105s-0.159,0.096-0.208,0.171s-0.073,0.159-0.073,0.25
		c0,0.141,0.053,0.258,0.16,0.352s0.262,0.141,0.467,0.141c0.203,0,0.384-0.044,0.542-0.133s0.274-0.21,0.349-0.365
		c0.057-0.119,0.085-0.295,0.085-0.527V49.302z"/>
	<path d="M287.523,50.392l0.076,0.466c-0.148,0.031-0.281,0.047-0.398,0.047c-0.191,0-0.34-0.03-0.445-0.091s-0.18-0.14-0.223-0.239
		s-0.064-0.306-0.064-0.623v-1.79h-0.387v-0.41h0.387v-0.771l0.524-0.316v1.087h0.53v0.41h-0.53v1.819
		c0,0.15,0.009,0.247,0.028,0.29s0.049,0.077,0.091,0.103s0.102,0.038,0.18,0.038C287.35,50.413,287.427,50.406,287.523,50.392z"/>
	<path d="M287.842,49.308c0-0.576,0.16-1.003,0.48-1.28c0.268-0.23,0.594-0.346,0.979-0.346c0.428,0,0.777,0.14,1.049,0.42
		s0.407,0.667,0.407,1.162c0,0.4-0.06,0.715-0.18,0.945s-0.295,0.408-0.524,0.535s-0.48,0.19-0.751,0.19
		c-0.436,0-0.788-0.14-1.056-0.419S287.842,49.833,287.842,49.308z M288.384,49.308c0,0.398,0.087,0.697,0.261,0.895
		s0.393,0.297,0.656,0.297c0.262,0,0.479-0.1,0.653-0.299s0.261-0.503,0.261-0.911c0-0.385-0.087-0.676-0.262-0.875
		s-0.392-0.297-0.652-0.297c-0.264,0-0.482,0.099-0.656,0.296S288.384,48.91,288.384,49.308z"/>
	<path d="M291.37,50.864v-3.111h0.475v0.472c0.121-0.221,0.233-0.366,0.335-0.437s0.215-0.105,0.338-0.105
		c0.178,0,0.358,0.057,0.542,0.17l-0.182,0.489c-0.129-0.076-0.258-0.114-0.387-0.114c-0.115,0-0.219,0.035-0.311,0.104
		s-0.157,0.166-0.196,0.289c-0.059,0.188-0.088,0.393-0.088,0.615v1.629H291.37z"/>
	<path d="M293.719,52.126h-0.378c0.584-0.938,0.876-1.876,0.876-2.815c0-0.367-0.042-0.731-0.126-1.093
		c-0.066-0.293-0.159-0.574-0.278-0.844c-0.076-0.176-0.233-0.469-0.472-0.879h0.378c0.367,0.49,0.639,0.982,0.814,1.477
		c0.15,0.426,0.226,0.871,0.226,1.336c0,0.527-0.101,1.037-0.303,1.529S294.008,51.759,293.719,52.126z"/>
</g>
<path class="st3" d="M339.165,45h-3.331c-1.559,0-2.835-1.276-2.835-2.835v-3.331c0-1.559,1.276-2.835,2.835-2.835h3.331
	c1.559,0,2.835,1.276,2.835,2.835v3.331C342,43.724,340.724,45,339.165,45z"/>
<path class="st4" d="M66.331,54H50.669C47.551,54,45,51.449,45,48.331V32.669C45,29.551,47.551,27,50.669,27h15.661
	C69.449,27,72,29.551,72,32.669v15.661C72,51.449,69.449,54,66.331,54z"/>
<path class="st3" d="M60.165,45h-3.331C55.275,45,54,43.724,54,42.165v-3.331C54,37.276,55.275,36,56.834,36h3.331
	C61.724,36,63,37.276,63,38.835v3.331C63,43.724,61.724,45,60.165,45z"/>
<g>
	<path d="M471.367,37.49l0.727,0.09c-0.115,0.424-0.327,0.754-0.637,0.988s-0.706,0.352-1.188,0.352
		c-0.607,0-1.088-0.188-1.443-0.561c-0.355-0.374-0.533-0.898-0.533-1.572c0-0.698,0.18-1.24,0.539-1.625
		c0.359-0.386,0.826-0.578,1.398-0.578c0.555,0,1.008,0.188,1.359,0.566c0.352,0.377,0.527,0.908,0.527,1.594
		c0,0.041-0.001,0.104-0.004,0.188h-3.094c0.026,0.455,0.155,0.805,0.387,1.047s0.521,0.363,0.867,0.363
		c0.258,0,0.478-0.068,0.66-0.203C471.116,38.003,471.26,37.787,471.367,37.49z M469.059,36.354h2.316
		c-0.031-0.35-0.12-0.611-0.266-0.785c-0.224-0.271-0.514-0.406-0.871-0.406c-0.323,0-0.594,0.107-0.814,0.324
		C469.204,35.702,469.082,35.991,469.059,36.354z"/>
	<path d="M474.129,38.826l-1.578-4.148h0.742l0.891,2.484c0.096,0.268,0.185,0.547,0.266,0.836c0.062-0.219,0.15-0.482,0.262-0.789
		l0.922-2.531h0.723l-1.57,4.148H474.129z"/>
	<path d="M479.684,38.314c-0.26,0.221-0.511,0.377-0.752,0.469c-0.241,0.091-0.5,0.137-0.775,0.137
		c-0.456,0-0.806-0.111-1.051-0.334s-0.367-0.508-0.367-0.854c0-0.203,0.046-0.389,0.139-0.557s0.213-0.303,0.363-0.404
		s0.318-0.179,0.506-0.23c0.138-0.037,0.346-0.072,0.625-0.105c0.568-0.068,0.986-0.148,1.254-0.242
		c0.002-0.097,0.004-0.158,0.004-0.184c0-0.287-0.066-0.488-0.199-0.605c-0.18-0.159-0.447-0.238-0.801-0.238
		c-0.331,0-0.575,0.058-0.732,0.174c-0.158,0.115-0.274,0.32-0.35,0.615l-0.688-0.094c0.062-0.295,0.166-0.532,0.309-0.713
		c0.143-0.182,0.35-0.32,0.621-0.418s0.584-0.146,0.941-0.146c0.354,0,0.642,0.041,0.863,0.125c0.221,0.083,0.384,0.188,0.488,0.314
		c0.104,0.126,0.177,0.285,0.219,0.479c0.023,0.119,0.035,0.336,0.035,0.648v0.938c0,0.653,0.015,1.066,0.045,1.24
		c0.03,0.173,0.089,0.339,0.178,0.498h-0.734C479.751,38.68,479.705,38.51,479.684,38.314z M479.625,36.744
		c-0.255,0.104-0.638,0.192-1.148,0.266c-0.289,0.041-0.494,0.088-0.613,0.141c-0.12,0.052-0.212,0.128-0.277,0.229
		c-0.065,0.1-0.098,0.211-0.098,0.334c0,0.188,0.071,0.344,0.213,0.469s0.35,0.188,0.623,0.188c0.271,0,0.512-0.06,0.723-0.178
		c0.211-0.119,0.366-0.281,0.465-0.486c0.076-0.159,0.113-0.394,0.113-0.703V36.744z"/>
	<path d="M481.41,38.826V33.1h0.703v5.727H481.41z"/>
	<path d="M485.922,38.826v-0.609c-0.323,0.469-0.762,0.703-1.316,0.703c-0.245,0-0.473-0.047-0.686-0.141s-0.37-0.212-0.473-0.354
		c-0.103-0.143-0.175-0.316-0.217-0.521c-0.029-0.139-0.043-0.357-0.043-0.656v-2.57h0.703v2.301c0,0.367,0.014,0.614,0.043,0.742
		c0.044,0.185,0.138,0.33,0.281,0.436s0.32,0.158,0.531,0.158s0.409-0.055,0.594-0.162c0.185-0.108,0.316-0.256,0.393-0.441
		c0.077-0.187,0.115-0.457,0.115-0.811v-2.223h0.703v4.148H485.922z"/>
	<path d="M490.359,38.314c-0.26,0.221-0.511,0.377-0.752,0.469c-0.241,0.091-0.5,0.137-0.775,0.137
		c-0.456,0-0.806-0.111-1.051-0.334s-0.367-0.508-0.367-0.854c0-0.203,0.046-0.389,0.139-0.557s0.213-0.303,0.363-0.404
		s0.318-0.179,0.506-0.23c0.138-0.037,0.346-0.072,0.625-0.105c0.568-0.068,0.986-0.148,1.254-0.242
		c0.002-0.097,0.004-0.158,0.004-0.184c0-0.287-0.066-0.488-0.199-0.605c-0.18-0.159-0.447-0.238-0.801-0.238
		c-0.331,0-0.575,0.058-0.732,0.174c-0.158,0.115-0.274,0.32-0.35,0.615l-0.688-0.094c0.062-0.295,0.166-0.532,0.309-0.713
		c0.143-0.182,0.35-0.32,0.621-0.418s0.584-0.146,0.941-0.146c0.354,0,0.642,0.041,0.863,0.125c0.221,0.083,0.384,0.188,0.488,0.314
		c0.104,0.126,0.177,0.285,0.219,0.479c0.023,0.119,0.035,0.336,0.035,0.648v0.938c0,0.653,0.015,1.066,0.045,1.24
		c0.03,0.173,0.089,0.339,0.178,0.498H490.5C490.427,38.68,490.38,38.51,490.359,38.314z M490.301,36.744
		c-0.255,0.104-0.638,0.192-1.148,0.266c-0.289,0.041-0.494,0.088-0.613,0.141c-0.12,0.052-0.212,0.128-0.277,0.229
		c-0.065,0.1-0.098,0.211-0.098,0.334c0,0.188,0.071,0.344,0.213,0.469s0.35,0.188,0.623,0.188c0.271,0,0.512-0.06,0.723-0.178
		c0.211-0.119,0.366-0.281,0.465-0.486c0.076-0.159,0.113-0.394,0.113-0.703V36.744z"/>
	<path d="M493.637,38.197l0.102,0.621c-0.198,0.041-0.375,0.062-0.531,0.062c-0.255,0-0.453-0.041-0.594-0.121
		c-0.141-0.081-0.24-0.188-0.297-0.318c-0.057-0.132-0.086-0.408-0.086-0.83v-2.387h-0.516v-0.547h0.516V33.65l0.699-0.422v1.449
		h0.707v0.547h-0.707v2.426c0,0.2,0.012,0.329,0.037,0.387c0.025,0.057,0.065,0.103,0.121,0.137c0.056,0.033,0.136,0.051,0.24,0.051
		C493.406,38.225,493.509,38.215,493.637,38.197z"/>
	<path d="M497.164,37.49l0.727,0.09c-0.115,0.424-0.327,0.754-0.637,0.988s-0.706,0.352-1.188,0.352
		c-0.607,0-1.088-0.188-1.443-0.561c-0.355-0.374-0.533-0.898-0.533-1.572c0-0.698,0.18-1.24,0.539-1.625
		c0.359-0.386,0.826-0.578,1.398-0.578c0.555,0,1.008,0.188,1.359,0.566c0.352,0.377,0.527,0.908,0.527,1.594
		c0,0.041-0.001,0.104-0.004,0.188h-3.094c0.026,0.455,0.155,0.805,0.387,1.047s0.521,0.363,0.867,0.363
		c0.258,0,0.478-0.068,0.66-0.203C496.913,38.003,497.057,37.787,497.164,37.49z M494.855,36.354h2.316
		c-0.031-0.35-0.12-0.611-0.266-0.785c-0.224-0.271-0.514-0.406-0.871-0.406c-0.323,0-0.594,0.107-0.814,0.324
		C495,35.702,494.879,35.991,494.855,36.354z"/>
	<path d="M502.531,38.197l0.102,0.621c-0.198,0.041-0.375,0.062-0.531,0.062c-0.255,0-0.453-0.041-0.594-0.121
		c-0.141-0.081-0.24-0.188-0.297-0.318c-0.057-0.132-0.086-0.408-0.086-0.83v-2.387h-0.516v-0.547h0.516V33.65l0.699-0.422v1.449
		h0.707v0.547h-0.707v2.426c0,0.2,0.012,0.329,0.037,0.387c0.025,0.057,0.065,0.103,0.121,0.137c0.056,0.033,0.136,0.051,0.24,0.051
		C502.301,38.225,502.404,38.215,502.531,38.197z"/>
	<path d="M503.211,38.826v-4.148h0.633v0.629c0.162-0.295,0.311-0.488,0.447-0.582s0.287-0.141,0.451-0.141
		c0.237,0,0.478,0.075,0.723,0.227l-0.242,0.652c-0.172-0.102-0.344-0.152-0.516-0.152c-0.154,0-0.292,0.046-0.414,0.139
		c-0.123,0.092-0.209,0.221-0.262,0.385c-0.078,0.25-0.117,0.523-0.117,0.82v2.172H503.211z"/>
	<path d="M508.59,38.314c-0.26,0.221-0.511,0.377-0.752,0.469c-0.241,0.091-0.5,0.137-0.775,0.137c-0.456,0-0.806-0.111-1.051-0.334
		s-0.367-0.508-0.367-0.854c0-0.203,0.046-0.389,0.139-0.557s0.213-0.303,0.363-0.404s0.318-0.179,0.506-0.23
		c0.138-0.037,0.346-0.072,0.625-0.105c0.568-0.068,0.986-0.148,1.254-0.242c0.002-0.097,0.004-0.158,0.004-0.184
		c0-0.287-0.066-0.488-0.199-0.605c-0.18-0.159-0.447-0.238-0.801-0.238c-0.331,0-0.575,0.058-0.732,0.174
		c-0.158,0.115-0.274,0.32-0.35,0.615l-0.688-0.094c0.062-0.295,0.166-0.532,0.309-0.713c0.143-0.182,0.35-0.32,0.621-0.418
		s0.584-0.146,0.941-0.146c0.354,0,0.642,0.041,0.863,0.125c0.221,0.083,0.384,0.188,0.488,0.314
		c0.104,0.126,0.177,0.285,0.219,0.479c0.023,0.119,0.035,0.336,0.035,0.648v0.938c0,0.653,0.015,1.066,0.045,1.24
		c0.03,0.173,0.089,0.339,0.178,0.498h-0.734C508.658,38.68,508.611,38.51,508.59,38.314z M508.531,36.744
		c-0.255,0.104-0.638,0.192-1.148,0.266c-0.289,0.041-0.494,0.088-0.613,0.141c-0.12,0.052-0.212,0.128-0.277,0.229
		c-0.065,0.1-0.098,0.211-0.098,0.334c0,0.188,0.071,0.344,0.213,0.469s0.35,0.188,0.623,0.188c0.271,0,0.512-0.06,0.723-0.178
		c0.211-0.119,0.366-0.281,0.465-0.486c0.076-0.159,0.113-0.394,0.113-0.703V36.744z"/>
	<path d="M510.336,33.908V33.1h0.703v0.809H510.336z M510.336,38.826v-4.148h0.703v4.148H510.336z"/>
	<path d="M512.109,38.826v-4.148h0.633v0.59c0.305-0.456,0.745-0.684,1.32-0.684c0.25,0,0.48,0.045,0.689,0.135
		s0.367,0.207,0.471,0.354c0.104,0.146,0.177,0.318,0.219,0.52c0.026,0.13,0.039,0.357,0.039,0.684v2.551h-0.703v-2.523
		c0-0.287-0.027-0.501-0.082-0.643c-0.055-0.143-0.152-0.256-0.291-0.34c-0.139-0.085-0.303-0.127-0.49-0.127
		c-0.299,0-0.558,0.095-0.775,0.285c-0.217,0.189-0.326,0.551-0.326,1.082v2.266H512.109z"/>
	<path d="M519.398,37.49l0.727,0.09c-0.115,0.424-0.327,0.754-0.637,0.988s-0.706,0.352-1.188,0.352
		c-0.607,0-1.088-0.188-1.443-0.561c-0.355-0.374-0.533-0.898-0.533-1.572c0-0.698,0.18-1.24,0.539-1.625
		c0.359-0.386,0.826-0.578,1.398-0.578c0.555,0,1.008,0.188,1.359,0.566c0.352,0.377,0.527,0.908,0.527,1.594
		c0,0.041-0.001,0.104-0.004,0.188h-3.094c0.026,0.455,0.155,0.805,0.387,1.047s0.521,0.363,0.867,0.363
		c0.258,0,0.478-0.068,0.66-0.203C519.147,38.003,519.292,37.787,519.398,37.49z M517.09,36.354h2.316
		c-0.031-0.35-0.12-0.611-0.266-0.785c-0.224-0.271-0.514-0.406-0.871-0.406c-0.323,0-0.594,0.107-0.814,0.324
		C517.235,35.702,517.113,35.991,517.09,36.354z"/>
	<path d="M523.699,38.826v-0.523c-0.263,0.411-0.65,0.617-1.16,0.617c-0.331,0-0.635-0.092-0.912-0.273
		c-0.277-0.183-0.492-0.438-0.645-0.764c-0.152-0.327-0.229-0.703-0.229-1.127c0-0.414,0.069-0.79,0.207-1.127
		c0.138-0.338,0.345-0.596,0.621-0.775s0.584-0.27,0.926-0.27c0.25,0,0.473,0.053,0.668,0.158s0.354,0.242,0.477,0.412V33.1h0.699
		v5.727H523.699z M521.477,36.756c0,0.531,0.112,0.928,0.336,1.191c0.224,0.263,0.488,0.395,0.793,0.395
		c0.307,0,0.568-0.126,0.783-0.377c0.215-0.252,0.322-0.635,0.322-1.15c0-0.568-0.109-0.984-0.328-1.25s-0.488-0.398-0.809-0.398
		c-0.312,0-0.574,0.127-0.783,0.383C521.582,35.804,521.477,36.206,521.477,36.756z"/>
	<path d="M527.68,38.826v-4.148h0.629v0.582c0.13-0.203,0.303-0.367,0.52-0.49c0.216-0.124,0.462-0.186,0.738-0.186
		c0.307,0,0.559,0.063,0.756,0.191c0.197,0.127,0.335,0.306,0.416,0.535c0.328-0.484,0.755-0.727,1.281-0.727
		c0.412,0,0.728,0.113,0.949,0.342c0.221,0.228,0.332,0.578,0.332,1.053v2.848h-0.699v-2.613c0-0.281-0.023-0.484-0.068-0.607
		c-0.045-0.124-0.128-0.224-0.248-0.299c-0.12-0.076-0.26-0.113-0.422-0.113c-0.292,0-0.534,0.097-0.727,0.291
		c-0.193,0.193-0.289,0.504-0.289,0.932v2.41h-0.703v-2.695c0-0.312-0.057-0.547-0.172-0.703s-0.302-0.234-0.562-0.234
		c-0.198,0-0.381,0.052-0.549,0.156c-0.168,0.104-0.29,0.256-0.365,0.457c-0.076,0.2-0.113,0.489-0.113,0.867v2.152H527.68z"/>
	<path d="M534.082,36.752c0-0.769,0.213-1.338,0.641-1.707c0.357-0.308,0.792-0.461,1.305-0.461c0.57,0,1.037,0.187,1.398,0.561
		c0.362,0.373,0.543,0.89,0.543,1.549c0,0.533-0.08,0.953-0.24,1.26c-0.16,0.306-0.393,0.543-0.699,0.713
		c-0.306,0.169-0.64,0.254-1.002,0.254c-0.581,0-1.05-0.187-1.408-0.559C534.261,37.988,534.082,37.452,534.082,36.752z
		 M534.805,36.752c0,0.531,0.116,0.929,0.348,1.193c0.232,0.264,0.523,0.396,0.875,0.396c0.349,0,0.639-0.133,0.871-0.398
		s0.348-0.671,0.348-1.215c0-0.514-0.117-0.902-0.35-1.166c-0.233-0.265-0.523-0.396-0.869-0.396c-0.352,0-0.643,0.131-0.875,0.395
		C534.92,35.823,534.805,36.221,534.805,36.752z"/>
	<path d="M541.484,38.826v-0.523c-0.263,0.411-0.65,0.617-1.16,0.617c-0.331,0-0.635-0.092-0.912-0.273
		c-0.277-0.183-0.492-0.438-0.645-0.764c-0.152-0.327-0.229-0.703-0.229-1.127c0-0.414,0.069-0.79,0.207-1.127
		c0.138-0.338,0.345-0.596,0.621-0.775s0.584-0.27,0.926-0.27c0.25,0,0.473,0.053,0.668,0.158s0.354,0.242,0.477,0.412V33.1h0.699
		v5.727H541.484z M539.262,36.756c0,0.531,0.112,0.928,0.336,1.191c0.224,0.263,0.488,0.395,0.793,0.395
		c0.307,0,0.568-0.126,0.783-0.377c0.215-0.252,0.322-0.635,0.322-1.15c0-0.568-0.109-0.984-0.328-1.25s-0.488-0.398-0.809-0.398
		c-0.312,0-0.574,0.127-0.783,0.383C539.367,35.804,539.262,36.206,539.262,36.756z"/>
	<path d="M546.082,37.49l0.727,0.09c-0.115,0.424-0.327,0.754-0.637,0.988s-0.706,0.352-1.188,0.352
		c-0.607,0-1.088-0.188-1.443-0.561c-0.355-0.374-0.533-0.898-0.533-1.572c0-0.698,0.18-1.24,0.539-1.625
		c0.359-0.386,0.826-0.578,1.398-0.578c0.555,0,1.008,0.188,1.359,0.566c0.352,0.377,0.527,0.908,0.527,1.594
		c0,0.041-0.001,0.104-0.004,0.188h-3.094c0.026,0.455,0.155,0.805,0.387,1.047s0.521,0.363,0.867,0.363
		c0.258,0,0.478-0.068,0.66-0.203C545.831,38.003,545.975,37.787,546.082,37.49z M543.773,36.354h2.316
		c-0.031-0.35-0.12-0.611-0.266-0.785c-0.224-0.271-0.514-0.406-0.871-0.406c-0.323,0-0.594,0.107-0.814,0.324
		C543.918,35.702,543.797,35.991,543.773,36.354z"/>
	<path d="M547.676,38.826V33.1h0.703v5.727H547.676z"/>
	<path d="M554.531,37.49l0.727,0.09c-0.115,0.424-0.327,0.754-0.637,0.988s-0.706,0.352-1.188,0.352
		c-0.607,0-1.088-0.188-1.443-0.561c-0.355-0.374-0.533-0.898-0.533-1.572c0-0.698,0.18-1.24,0.539-1.625
		c0.359-0.386,0.826-0.578,1.398-0.578c0.555,0,1.008,0.188,1.359,0.566c0.352,0.377,0.527,0.908,0.527,1.594
		c0,0.041-0.001,0.104-0.004,0.188h-3.094c0.026,0.455,0.155,0.805,0.387,1.047s0.521,0.363,0.867,0.363
		c0.258,0,0.478-0.068,0.66-0.203C554.28,38.003,554.424,37.787,554.531,37.49z M552.223,36.354h2.316
		c-0.031-0.35-0.12-0.611-0.266-0.785c-0.224-0.271-0.514-0.406-0.871-0.406c-0.323,0-0.594,0.107-0.814,0.324
		C552.368,35.702,552.246,35.991,552.223,36.354z"/>
	<path d="M555.672,38.826l1.516-2.156l-1.402-1.992h0.879l0.637,0.973c0.12,0.185,0.216,0.34,0.289,0.465
		c0.115-0.172,0.22-0.324,0.316-0.457l0.699-0.98h0.84l-1.434,1.953l1.543,2.195h-0.863l-0.852-1.289l-0.227-0.348l-1.09,1.637
		H555.672z"/>
	<path d="M560.141,40.416v-5.738h0.641v0.539c0.151-0.211,0.322-0.369,0.512-0.475s0.42-0.158,0.691-0.158
		c0.354,0,0.667,0.091,0.938,0.273c0.271,0.182,0.475,0.439,0.613,0.771s0.207,0.695,0.207,1.092c0,0.424-0.076,0.807-0.229,1.146
		s-0.374,0.6-0.664,0.781c-0.291,0.181-0.596,0.271-0.916,0.271c-0.234,0-0.445-0.05-0.631-0.148
		c-0.186-0.1-0.339-0.225-0.459-0.375v2.02H560.141z M560.777,36.775c0,0.533,0.108,0.928,0.324,1.184
		c0.216,0.255,0.478,0.383,0.785,0.383c0.312,0,0.58-0.133,0.803-0.396c0.223-0.265,0.334-0.674,0.334-1.229
		c0-0.529-0.109-0.925-0.326-1.188c-0.217-0.264-0.477-0.395-0.779-0.395c-0.299,0-0.564,0.14-0.795,0.42
		C560.893,35.834,560.777,36.241,560.777,36.775z"/>
	<path d="M567.43,37.49l0.727,0.09c-0.115,0.424-0.327,0.754-0.637,0.988s-0.706,0.352-1.188,0.352
		c-0.607,0-1.088-0.188-1.443-0.561c-0.355-0.374-0.533-0.898-0.533-1.572c0-0.698,0.18-1.24,0.539-1.625
		c0.359-0.386,0.826-0.578,1.398-0.578c0.555,0,1.008,0.188,1.359,0.566c0.352,0.377,0.527,0.908,0.527,1.594
		c0,0.041-0.001,0.104-0.004,0.188h-3.094c0.026,0.455,0.155,0.805,0.387,1.047s0.521,0.363,0.867,0.363
		c0.258,0,0.478-0.068,0.66-0.203C567.178,38.003,567.323,37.787,567.43,37.49z M565.121,36.354h2.316
		c-0.031-0.35-0.12-0.611-0.266-0.785c-0.224-0.271-0.514-0.406-0.871-0.406c-0.323,0-0.594,0.107-0.814,0.324
		C565.266,35.702,565.145,35.991,565.121,36.354z"/>
	<path d="M569.031,38.826v-4.148h0.633v0.629c0.162-0.295,0.311-0.488,0.447-0.582s0.287-0.141,0.451-0.141
		c0.237,0,0.478,0.075,0.723,0.227l-0.242,0.652c-0.172-0.102-0.344-0.152-0.516-0.152c-0.154,0-0.292,0.046-0.414,0.139
		c-0.123,0.092-0.209,0.221-0.262,0.385c-0.078,0.25-0.117,0.523-0.117,0.82v2.172H569.031z"/>
	<path d="M571.707,33.908V33.1h0.703v0.809H571.707z M571.707,38.826v-4.148h0.703v4.148H571.707z"/>
	<path d="M573.48,38.826v-4.148h0.629v0.582c0.13-0.203,0.303-0.367,0.52-0.49c0.216-0.124,0.462-0.186,0.738-0.186
		c0.307,0,0.559,0.063,0.756,0.191c0.197,0.127,0.335,0.306,0.416,0.535c0.328-0.484,0.755-0.727,1.281-0.727
		c0.412,0,0.728,0.113,0.949,0.342c0.221,0.228,0.332,0.578,0.332,1.053v2.848h-0.699v-2.613c0-0.281-0.023-0.484-0.068-0.607
		c-0.045-0.124-0.128-0.224-0.248-0.299c-0.12-0.076-0.26-0.113-0.422-0.113c-0.292,0-0.534,0.097-0.727,0.291
		c-0.193,0.193-0.289,0.504-0.289,0.932v2.41h-0.703v-2.695c0-0.312-0.057-0.547-0.172-0.703s-0.302-0.234-0.562-0.234
		c-0.198,0-0.381,0.052-0.549,0.156c-0.168,0.104-0.29,0.256-0.365,0.457c-0.076,0.2-0.113,0.489-0.113,0.867v2.152H573.48z"/>
	<path d="M582.984,37.49l0.727,0.09c-0.115,0.424-0.327,0.754-0.637,0.988s-0.706,0.352-1.188,0.352
		c-0.607,0-1.088-0.188-1.443-0.561c-0.355-0.374-0.533-0.898-0.533-1.572c0-0.698,0.18-1.24,0.539-1.625
		c0.359-0.386,0.826-0.578,1.398-0.578c0.555,0,1.008,0.188,1.359,0.566c0.352,0.377,0.527,0.908,0.527,1.594
		c0,0.041-0.001,0.104-0.004,0.188h-3.094c0.026,0.455,0.155,0.805,0.387,1.047s0.521,0.363,0.867,0.363
		c0.258,0,0.478-0.068,0.66-0.203C582.733,38.003,582.877,37.787,582.984,37.49z M580.676,36.354h2.316
		c-0.031-0.35-0.12-0.611-0.266-0.785c-0.224-0.271-0.514-0.406-0.871-0.406c-0.323,0-0.594,0.107-0.814,0.324
		C580.821,35.702,580.699,35.991,580.676,36.354z"/>
	<path d="M584.594,38.826v-4.148h0.633v0.59c0.305-0.456,0.745-0.684,1.32-0.684c0.25,0,0.48,0.045,0.689,0.135
		s0.367,0.207,0.471,0.354c0.104,0.146,0.177,0.318,0.219,0.52c0.026,0.13,0.039,0.357,0.039,0.684v2.551h-0.703v-2.523
		c0-0.287-0.027-0.501-0.082-0.643c-0.055-0.143-0.152-0.256-0.291-0.34c-0.139-0.085-0.303-0.127-0.49-0.127
		c-0.299,0-0.558,0.095-0.775,0.285c-0.217,0.189-0.326,0.551-0.326,1.082v2.266H584.594z"/>
	<path d="M590.578,38.197l0.102,0.621c-0.198,0.041-0.375,0.062-0.531,0.062c-0.255,0-0.453-0.041-0.594-0.121
		c-0.141-0.081-0.24-0.188-0.297-0.318c-0.057-0.132-0.086-0.408-0.086-0.83v-2.387h-0.516v-0.547h0.516V33.65l0.699-0.422v1.449
		h0.707v0.547h-0.707v2.426c0,0.2,0.012,0.329,0.037,0.387c0.025,0.057,0.065,0.103,0.121,0.137c0.056,0.033,0.136,0.051,0.24,0.051
		C590.348,38.225,590.451,38.215,590.578,38.197z"/>
	<path d="M593.973,38.314c-0.26,0.221-0.511,0.377-0.752,0.469c-0.241,0.091-0.5,0.137-0.775,0.137
		c-0.456,0-0.806-0.111-1.051-0.334s-0.367-0.508-0.367-0.854c0-0.203,0.046-0.389,0.139-0.557s0.213-0.303,0.363-0.404
		s0.318-0.179,0.506-0.23c0.138-0.037,0.346-0.072,0.625-0.105c0.568-0.068,0.986-0.148,1.254-0.242
		c0.002-0.097,0.004-0.158,0.004-0.184c0-0.287-0.066-0.488-0.199-0.605c-0.18-0.159-0.447-0.238-0.801-0.238
		c-0.331,0-0.575,0.058-0.732,0.174c-0.158,0.115-0.274,0.32-0.35,0.615l-0.688-0.094c0.062-0.295,0.166-0.532,0.309-0.713
		c0.143-0.182,0.35-0.32,0.621-0.418s0.584-0.146,0.941-0.146c0.354,0,0.642,0.041,0.863,0.125c0.221,0.083,0.384,0.188,0.488,0.314
		c0.104,0.126,0.177,0.285,0.219,0.479c0.023,0.119,0.035,0.336,0.035,0.648v0.938c0,0.653,0.015,1.066,0.045,1.24
		c0.03,0.173,0.089,0.339,0.178,0.498h-0.734C594.041,38.68,593.994,38.51,593.973,38.314z M593.914,36.744
		c-0.255,0.104-0.638,0.192-1.148,0.266c-0.289,0.041-0.494,0.088-0.613,0.141c-0.12,0.052-0.212,0.128-0.277,0.229
		c-0.065,0.1-0.098,0.211-0.098,0.334c0,0.188,0.071,0.344,0.213,0.469s0.35,0.188,0.623,0.188c0.271,0,0.512-0.06,0.723-0.178
		c0.211-0.119,0.366-0.281,0.465-0.486c0.076-0.159,0.113-0.394,0.113-0.703V36.744z"/>
	<path d="M595.699,38.826V33.1h0.703v5.727H595.699z"/>
	<path d="M602.406,38.826v-0.523c-0.263,0.411-0.65,0.617-1.16,0.617c-0.331,0-0.635-0.092-0.912-0.273
		c-0.277-0.183-0.492-0.438-0.645-0.764c-0.152-0.327-0.229-0.703-0.229-1.127c0-0.414,0.069-0.79,0.207-1.127
		c0.138-0.338,0.345-0.596,0.621-0.775s0.584-0.27,0.926-0.27c0.25,0,0.473,0.053,0.668,0.158s0.354,0.242,0.477,0.412V33.1h0.699
		v5.727H602.406z M600.184,36.756c0,0.531,0.112,0.928,0.336,1.191c0.224,0.263,0.488,0.395,0.793,0.395
		c0.307,0,0.568-0.126,0.783-0.377c0.215-0.252,0.322-0.635,0.322-1.15c0-0.568-0.109-0.984-0.328-1.25s-0.488-0.398-0.809-0.398
		c-0.312,0-0.574,0.127-0.783,0.383C600.289,35.804,600.184,36.206,600.184,36.756z"/>
	<path d="M606.871,38.314c-0.26,0.221-0.511,0.377-0.752,0.469c-0.241,0.091-0.5,0.137-0.775,0.137
		c-0.456,0-0.806-0.111-1.051-0.334s-0.367-0.508-0.367-0.854c0-0.203,0.046-0.389,0.139-0.557s0.213-0.303,0.363-0.404
		s0.318-0.179,0.506-0.23c0.138-0.037,0.346-0.072,0.625-0.105c0.568-0.068,0.986-0.148,1.254-0.242
		c0.002-0.097,0.004-0.158,0.004-0.184c0-0.287-0.066-0.488-0.199-0.605c-0.18-0.159-0.447-0.238-0.801-0.238
		c-0.331,0-0.575,0.058-0.732,0.174c-0.158,0.115-0.274,0.32-0.35,0.615l-0.688-0.094c0.062-0.295,0.166-0.532,0.309-0.713
		c0.143-0.182,0.35-0.32,0.621-0.418s0.584-0.146,0.941-0.146c0.354,0,0.642,0.041,0.863,0.125c0.221,0.083,0.384,0.188,0.488,0.314
		c0.104,0.126,0.177,0.285,0.219,0.479c0.023,0.119,0.035,0.336,0.035,0.648v0.938c0,0.653,0.015,1.066,0.045,1.24
		c0.03,0.173,0.089,0.339,0.178,0.498h-0.734C606.939,38.68,606.892,38.51,606.871,38.314z M606.812,36.744
		c-0.255,0.104-0.638,0.192-1.148,0.266c-0.289,0.041-0.494,0.088-0.613,0.141c-0.12,0.052-0.212,0.128-0.277,0.229
		c-0.065,0.1-0.098,0.211-0.098,0.334c0,0.188,0.071,0.344,0.213,0.469s0.35,0.188,0.623,0.188c0.271,0,0.512-0.06,0.723-0.178
		c0.211-0.119,0.366-0.281,0.465-0.486c0.076-0.159,0.113-0.394,0.113-0.703V36.744z"/>
	<path d="M610.148,38.197l0.102,0.621c-0.198,0.041-0.375,0.062-0.531,0.062c-0.255,0-0.453-0.041-0.594-0.121
		c-0.141-0.081-0.24-0.188-0.297-0.318c-0.057-0.132-0.086-0.408-0.086-0.83v-2.387h-0.516v-0.547h0.516V33.65l0.699-0.422v1.449
		h0.707v0.547h-0.707v2.426c0,0.2,0.012,0.329,0.037,0.387c0.025,0.057,0.065,0.103,0.121,0.137c0.056,0.033,0.136,0.051,0.24,0.051
		C609.918,38.225,610.021,38.215,610.148,38.197z"/>
	<path d="M613.543,38.314c-0.26,0.221-0.511,0.377-0.752,0.469c-0.241,0.091-0.5,0.137-0.775,0.137
		c-0.456,0-0.806-0.111-1.051-0.334s-0.367-0.508-0.367-0.854c0-0.203,0.046-0.389,0.139-0.557s0.213-0.303,0.363-0.404
		s0.318-0.179,0.506-0.23c0.138-0.037,0.346-0.072,0.625-0.105c0.568-0.068,0.986-0.148,1.254-0.242
		c0.002-0.097,0.004-0.158,0.004-0.184c0-0.287-0.066-0.488-0.199-0.605c-0.18-0.159-0.447-0.238-0.801-0.238
		c-0.331,0-0.575,0.058-0.732,0.174c-0.158,0.115-0.274,0.32-0.35,0.615l-0.688-0.094c0.062-0.295,0.166-0.532,0.309-0.713
		c0.143-0.182,0.35-0.32,0.621-0.418s0.584-0.146,0.941-0.146c0.354,0,0.642,0.041,0.863,0.125c0.221,0.083,0.384,0.188,0.488,0.314
		c0.104,0.126,0.177,0.285,0.219,0.479c0.023,0.119,0.035,0.336,0.035,0.648v0.938c0,0.653,0.015,1.066,0.045,1.24
		c0.03,0.173,0.089,0.339,0.178,0.498h-0.734C613.611,38.68,613.564,38.51,613.543,38.314z M613.484,36.744
		c-0.255,0.104-0.638,0.192-1.148,0.266c-0.289,0.041-0.494,0.088-0.613,0.141c-0.12,0.052-0.212,0.128-0.277,0.229
		c-0.065,0.1-0.098,0.211-0.098,0.334c0,0.188,0.071,0.344,0.213,0.469s0.35,0.188,0.623,0.188c0.271,0,0.512-0.06,0.723-0.178
		c0.211-0.119,0.366-0.281,0.465-0.486c0.076-0.159,0.113-0.394,0.113-0.703V36.744z"/>
	<path d="M615.469,38.826v-0.801h0.801v0.801c0,0.294-0.052,0.531-0.156,0.713c-0.104,0.181-0.27,0.32-0.496,0.42l-0.195-0.301
		c0.148-0.065,0.258-0.161,0.328-0.287c0.07-0.127,0.109-0.309,0.117-0.545H615.469z"/>
	<path d="M471.246,48.426v-0.609c-0.323,0.469-0.762,0.703-1.316,0.703c-0.245,0-0.473-0.047-0.686-0.141s-0.37-0.211-0.473-0.354
		c-0.103-0.142-0.175-0.315-0.217-0.521c-0.029-0.138-0.043-0.356-0.043-0.656v-2.57h0.703v2.301c0,0.367,0.014,0.615,0.043,0.742
		c0.044,0.186,0.138,0.33,0.281,0.436s0.32,0.158,0.531,0.158s0.409-0.054,0.594-0.162c0.185-0.107,0.316-0.255,0.393-0.441
		c0.077-0.186,0.115-0.456,0.115-0.811v-2.223h0.703v4.148H471.246z"/>
	<path d="M472.695,47.188l0.695-0.109c0.039,0.279,0.148,0.492,0.326,0.641s0.428,0.223,0.748,0.223
		c0.323,0,0.562-0.065,0.719-0.197c0.156-0.131,0.234-0.285,0.234-0.463c0-0.158-0.069-0.283-0.207-0.375
		c-0.096-0.062-0.336-0.142-0.719-0.238c-0.516-0.13-0.873-0.242-1.072-0.338c-0.199-0.095-0.35-0.227-0.453-0.395
		s-0.154-0.354-0.154-0.557c0-0.185,0.042-0.355,0.127-0.514c0.084-0.157,0.2-0.288,0.346-0.393c0.109-0.08,0.258-0.148,0.447-0.205
		c0.189-0.056,0.391-0.084,0.607-0.084c0.326,0,0.611,0.047,0.857,0.141s0.428,0.221,0.545,0.381s0.198,0.375,0.242,0.643
		l-0.688,0.094c-0.031-0.213-0.122-0.38-0.271-0.5c-0.15-0.119-0.361-0.18-0.635-0.18c-0.323,0-0.553,0.054-0.691,0.16
		c-0.138,0.107-0.207,0.232-0.207,0.375c0,0.092,0.029,0.174,0.086,0.246c0.057,0.076,0.147,0.139,0.27,0.188
		c0.07,0.026,0.277,0.086,0.621,0.18c0.498,0.133,0.844,0.242,1.041,0.326c0.197,0.085,0.351,0.208,0.463,0.369
		c0.112,0.162,0.168,0.362,0.168,0.602c0,0.234-0.068,0.455-0.205,0.662s-0.334,0.367-0.592,0.48s-0.549,0.17-0.875,0.17
		c-0.539,0-0.95-0.111-1.232-0.336C472.954,47.96,472.773,47.628,472.695,47.188z"/>
	<path d="M476.98,43.508v-0.809h0.703v0.809H476.98z M476.98,48.426v-4.148h0.703v4.148H476.98z"/>
	<path d="M478.754,48.426v-4.148h0.633v0.59c0.305-0.455,0.745-0.684,1.32-0.684c0.25,0,0.48,0.045,0.689,0.135
		s0.367,0.208,0.471,0.354c0.104,0.146,0.177,0.319,0.219,0.52c0.026,0.131,0.039,0.358,0.039,0.684v2.551h-0.703v-2.523
		c0-0.286-0.027-0.5-0.082-0.643c-0.055-0.142-0.152-0.255-0.291-0.34c-0.139-0.084-0.303-0.127-0.49-0.127
		c-0.299,0-0.558,0.096-0.775,0.285c-0.217,0.19-0.326,0.551-0.326,1.082v2.266H478.754z"/>
	<path d="M483.074,48.77l0.684,0.102c0.029,0.211,0.108,0.365,0.238,0.461c0.174,0.131,0.413,0.195,0.715,0.195
		c0.326,0,0.577-0.064,0.754-0.195c0.177-0.13,0.297-0.312,0.359-0.547c0.037-0.143,0.053-0.443,0.051-0.902
		c-0.307,0.362-0.69,0.543-1.148,0.543c-0.57,0-1.012-0.205-1.324-0.617c-0.312-0.411-0.469-0.904-0.469-1.48
		c0-0.396,0.072-0.761,0.215-1.096c0.143-0.334,0.351-0.593,0.623-0.775c0.272-0.182,0.592-0.273,0.959-0.273
		c0.49,0,0.893,0.198,1.211,0.594v-0.5h0.648v3.586c0,0.646-0.066,1.104-0.197,1.373s-0.34,0.482-0.625,0.639
		s-0.636,0.234-1.053,0.234c-0.495,0-0.895-0.111-1.199-0.334S483.064,49.218,483.074,48.77z M483.656,46.277
		c0,0.545,0.108,0.941,0.324,1.191s0.487,0.375,0.812,0.375c0.323,0,0.594-0.124,0.812-0.373c0.219-0.248,0.328-0.639,0.328-1.17
		c0-0.508-0.113-0.891-0.338-1.148s-0.497-0.387-0.814-0.387c-0.312,0-0.578,0.127-0.797,0.381S483.656,45.777,483.656,46.277z"/>
	<path d="M490.043,48.426v-3.602h-0.621v-0.547h0.621v-0.441c0-0.278,0.025-0.485,0.074-0.621c0.068-0.182,0.187-0.33,0.357-0.443
		s0.41-0.17,0.717-0.17c0.198,0,0.417,0.023,0.656,0.07l-0.105,0.613c-0.146-0.025-0.284-0.039-0.414-0.039
		c-0.213,0-0.365,0.046-0.453,0.137c-0.088,0.092-0.133,0.262-0.133,0.512v0.383h0.809v0.547h-0.809v3.602H490.043z"/>
	<path d="M494.938,47.09l0.727,0.09c-0.115,0.425-0.327,0.754-0.637,0.988s-0.706,0.352-1.188,0.352
		c-0.607,0-1.088-0.187-1.443-0.561c-0.355-0.373-0.533-0.897-0.533-1.572c0-0.697,0.18-1.239,0.539-1.625
		c0.359-0.385,0.826-0.578,1.398-0.578c0.555,0,1.008,0.189,1.359,0.566c0.352,0.378,0.527,0.909,0.527,1.594
		c0,0.042-0.001,0.104-0.004,0.188h-3.094c0.026,0.456,0.155,0.805,0.387,1.047s0.521,0.363,0.867,0.363
		c0.258,0,0.478-0.067,0.66-0.203C494.686,47.604,494.831,47.387,494.938,47.09z M492.629,45.953h2.316
		c-0.031-0.349-0.12-0.61-0.266-0.785c-0.224-0.271-0.514-0.406-0.871-0.406c-0.323,0-0.594,0.108-0.814,0.324
		C492.774,45.303,492.652,45.592,492.629,45.953z"/>
	<path d="M499.254,47.914c-0.26,0.222-0.511,0.378-0.752,0.469c-0.241,0.092-0.5,0.137-0.775,0.137
		c-0.456,0-0.806-0.111-1.051-0.334s-0.367-0.507-0.367-0.854c0-0.203,0.046-0.389,0.139-0.557s0.213-0.303,0.363-0.404
		s0.318-0.178,0.506-0.23c0.138-0.036,0.346-0.071,0.625-0.105c0.568-0.067,0.986-0.148,1.254-0.242
		c0.002-0.096,0.004-0.157,0.004-0.184c0-0.286-0.066-0.488-0.199-0.605c-0.18-0.158-0.447-0.238-0.801-0.238
		c-0.331,0-0.575,0.059-0.732,0.174c-0.158,0.116-0.274,0.321-0.35,0.615l-0.688-0.094c0.062-0.294,0.166-0.531,0.309-0.713
		c0.143-0.181,0.35-0.32,0.621-0.418s0.584-0.146,0.941-0.146c0.354,0,0.642,0.042,0.863,0.125c0.221,0.084,0.384,0.188,0.488,0.314
		c0.104,0.127,0.177,0.286,0.219,0.479c0.023,0.12,0.035,0.336,0.035,0.648v0.938c0,0.654,0.015,1.067,0.045,1.24
		c0.03,0.174,0.089,0.34,0.178,0.498h-0.734C499.322,48.28,499.275,48.109,499.254,47.914z M499.195,46.344
		c-0.255,0.104-0.638,0.193-1.148,0.266c-0.289,0.042-0.494,0.089-0.613,0.141c-0.12,0.053-0.212,0.129-0.277,0.229
		c-0.065,0.101-0.098,0.212-0.098,0.334c0,0.188,0.071,0.344,0.213,0.469s0.35,0.188,0.623,0.188c0.271,0,0.512-0.059,0.723-0.178
		c0.211-0.118,0.366-0.28,0.465-0.486c0.076-0.158,0.113-0.393,0.113-0.703V46.344z"/>
	<path d="M502.531,47.797l0.102,0.621c-0.198,0.042-0.375,0.062-0.531,0.062c-0.255,0-0.453-0.04-0.594-0.121
		c-0.141-0.08-0.24-0.187-0.297-0.318c-0.057-0.131-0.086-0.408-0.086-0.83v-2.387h-0.516v-0.547h0.516V43.25l0.699-0.422v1.449
		h0.707v0.547h-0.707v2.426c0,0.201,0.012,0.33,0.037,0.387c0.025,0.058,0.065,0.104,0.121,0.137
		c0.056,0.034,0.136,0.051,0.24,0.051C502.301,47.824,502.404,47.815,502.531,47.797z"/>
	<path d="M505.938,48.426v-0.609c-0.323,0.469-0.762,0.703-1.316,0.703c-0.245,0-0.473-0.047-0.686-0.141s-0.37-0.211-0.473-0.354
		c-0.103-0.142-0.175-0.315-0.217-0.521c-0.029-0.138-0.043-0.356-0.043-0.656v-2.57h0.703v2.301c0,0.367,0.014,0.615,0.043,0.742
		c0.044,0.186,0.138,0.33,0.281,0.436s0.32,0.158,0.531,0.158s0.409-0.054,0.594-0.162c0.185-0.107,0.316-0.255,0.393-0.441
		c0.077-0.186,0.115-0.456,0.115-0.811v-2.223h0.703v4.148H505.938z"/>
	<path d="M507.66,48.426v-4.148h0.633v0.629c0.162-0.294,0.311-0.488,0.447-0.582s0.287-0.141,0.451-0.141
		c0.237,0,0.478,0.076,0.723,0.227l-0.242,0.652c-0.172-0.102-0.344-0.152-0.516-0.152c-0.154,0-0.292,0.047-0.414,0.139
		c-0.123,0.093-0.209,0.221-0.262,0.385c-0.078,0.25-0.117,0.523-0.117,0.82v2.172H507.66z"/>
	<path d="M513.172,47.09l0.727,0.09c-0.115,0.425-0.327,0.754-0.637,0.988s-0.706,0.352-1.188,0.352
		c-0.607,0-1.088-0.187-1.443-0.561c-0.355-0.373-0.533-0.897-0.533-1.572c0-0.697,0.18-1.239,0.539-1.625
		c0.359-0.385,0.826-0.578,1.398-0.578c0.555,0,1.008,0.189,1.359,0.566c0.352,0.378,0.527,0.909,0.527,1.594
		c0,0.042-0.001,0.104-0.004,0.188h-3.094c0.026,0.456,0.155,0.805,0.387,1.047s0.521,0.363,0.867,0.363
		c0.258,0,0.478-0.067,0.66-0.203C512.92,47.604,513.065,47.387,513.172,47.09z M510.863,45.953h2.316
		c-0.031-0.349-0.12-0.61-0.266-0.785c-0.224-0.271-0.514-0.406-0.871-0.406c-0.323,0-0.594,0.108-0.814,0.324
		C511.008,45.303,510.887,45.592,510.863,45.953z"/>
	<path d="M517.008,43.508v-0.809h0.703v0.809H517.008z M517.008,48.426v-4.148h0.703v4.148H517.008z"/>
	<path d="M518.781,48.426v-4.148h0.629v0.582c0.13-0.203,0.303-0.366,0.52-0.49c0.216-0.123,0.462-0.186,0.738-0.186
		c0.307,0,0.559,0.064,0.756,0.191c0.197,0.128,0.335,0.307,0.416,0.535c0.328-0.484,0.755-0.727,1.281-0.727
		c0.412,0,0.728,0.114,0.949,0.342c0.221,0.229,0.332,0.579,0.332,1.053v2.848h-0.699v-2.613c0-0.281-0.023-0.483-0.068-0.607
		c-0.045-0.123-0.128-0.223-0.248-0.299c-0.12-0.075-0.26-0.113-0.422-0.113c-0.292,0-0.534,0.098-0.727,0.291
		c-0.193,0.194-0.289,0.505-0.289,0.932v2.41h-0.703V45.73c0-0.312-0.057-0.547-0.172-0.703s-0.302-0.234-0.562-0.234
		c-0.198,0-0.381,0.053-0.549,0.156c-0.168,0.104-0.29,0.257-0.365,0.457c-0.076,0.201-0.113,0.49-0.113,0.867v2.152H518.781z"/>
	<path d="M525.445,50.016v-5.738h0.641v0.539c0.151-0.211,0.322-0.369,0.512-0.475s0.42-0.158,0.691-0.158
		c0.354,0,0.667,0.092,0.938,0.273c0.271,0.183,0.475,0.439,0.613,0.771s0.207,0.696,0.207,1.092c0,0.425-0.076,0.807-0.229,1.146
		s-0.374,0.601-0.664,0.781c-0.291,0.182-0.596,0.271-0.916,0.271c-0.234,0-0.445-0.049-0.631-0.148
		c-0.186-0.099-0.339-0.224-0.459-0.375v2.02H525.445z M526.082,46.375c0,0.534,0.108,0.929,0.324,1.184
		c0.216,0.256,0.478,0.383,0.785,0.383c0.312,0,0.58-0.132,0.803-0.396c0.223-0.264,0.334-0.674,0.334-1.229
		c0-0.528-0.109-0.924-0.326-1.188c-0.217-0.263-0.477-0.395-0.779-0.395c-0.299,0-0.564,0.141-0.795,0.42
		C526.197,45.435,526.082,45.842,526.082,46.375z"/>
	<path d="M529.633,46.352c0-0.768,0.213-1.337,0.641-1.707c0.357-0.307,0.792-0.461,1.305-0.461c0.57,0,1.037,0.188,1.398,0.561
		c0.362,0.374,0.543,0.891,0.543,1.549c0,0.534-0.08,0.954-0.24,1.26c-0.16,0.307-0.393,0.544-0.699,0.713
		c-0.306,0.17-0.64,0.254-1.002,0.254c-0.581,0-1.05-0.186-1.408-0.559C529.812,47.589,529.633,47.053,529.633,46.352z
		 M530.355,46.352c0,0.531,0.116,0.93,0.348,1.193c0.232,0.265,0.523,0.396,0.875,0.396c0.349,0,0.639-0.133,0.871-0.398
		s0.348-0.67,0.348-1.215c0-0.513-0.117-0.901-0.35-1.166c-0.233-0.264-0.523-0.396-0.869-0.396c-0.352,0-0.643,0.132-0.875,0.395
		C530.471,45.424,530.355,45.82,530.355,46.352z"/>
	<path d="M534.336,48.426v-4.148h0.633v0.629c0.162-0.294,0.311-0.488,0.447-0.582s0.287-0.141,0.451-0.141
		c0.237,0,0.478,0.076,0.723,0.227l-0.242,0.652c-0.172-0.102-0.344-0.152-0.516-0.152c-0.154,0-0.292,0.047-0.414,0.139
		c-0.123,0.093-0.209,0.221-0.262,0.385c-0.078,0.25-0.117,0.523-0.117,0.82v2.172H534.336z"/>
	<path d="M538.543,47.797l0.102,0.621c-0.198,0.042-0.375,0.062-0.531,0.062c-0.255,0-0.453-0.04-0.594-0.121
		c-0.141-0.08-0.24-0.187-0.297-0.318c-0.057-0.131-0.086-0.408-0.086-0.83v-2.387h-0.516v-0.547h0.516V43.25l0.699-0.422v1.449
		h0.707v0.547h-0.707v2.426c0,0.201,0.012,0.33,0.037,0.387c0.025,0.058,0.065,0.104,0.121,0.137
		c0.056,0.034,0.136,0.051,0.24,0.051C538.312,47.824,538.416,47.815,538.543,47.797z"/>
	<path d="M541.938,47.914c-0.26,0.222-0.511,0.378-0.752,0.469c-0.241,0.092-0.5,0.137-0.775,0.137
		c-0.456,0-0.806-0.111-1.051-0.334s-0.367-0.507-0.367-0.854c0-0.203,0.046-0.389,0.139-0.557s0.213-0.303,0.363-0.404
		s0.318-0.178,0.506-0.23c0.138-0.036,0.346-0.071,0.625-0.105c0.568-0.067,0.986-0.148,1.254-0.242
		c0.002-0.096,0.004-0.157,0.004-0.184c0-0.286-0.066-0.488-0.199-0.605c-0.18-0.158-0.447-0.238-0.801-0.238
		c-0.331,0-0.575,0.059-0.732,0.174c-0.158,0.116-0.274,0.321-0.35,0.615l-0.688-0.094c0.062-0.294,0.166-0.531,0.309-0.713
		c0.143-0.181,0.35-0.32,0.621-0.418s0.584-0.146,0.941-0.146c0.354,0,0.642,0.042,0.863,0.125c0.221,0.084,0.384,0.188,0.488,0.314
		c0.104,0.127,0.177,0.286,0.219,0.479c0.023,0.12,0.035,0.336,0.035,0.648v0.938c0,0.654,0.015,1.067,0.045,1.24
		c0.03,0.174,0.089,0.34,0.178,0.498h-0.734C542.005,48.28,541.958,48.109,541.938,47.914z M541.879,46.344
		c-0.255,0.104-0.638,0.193-1.148,0.266c-0.289,0.042-0.494,0.089-0.613,0.141c-0.12,0.053-0.212,0.129-0.277,0.229
		c-0.065,0.101-0.098,0.212-0.098,0.334c0,0.188,0.071,0.344,0.213,0.469s0.35,0.188,0.623,0.188c0.271,0,0.512-0.059,0.723-0.178
		c0.211-0.118,0.366-0.28,0.465-0.486c0.076-0.158,0.113-0.393,0.113-0.703V46.344z"/>
	<path d="M543.68,48.426v-4.148h0.633v0.59c0.305-0.455,0.745-0.684,1.32-0.684c0.25,0,0.48,0.045,0.689,0.135
		s0.367,0.208,0.471,0.354c0.104,0.146,0.177,0.319,0.219,0.52c0.026,0.131,0.039,0.358,0.039,0.684v2.551h-0.703v-2.523
		c0-0.286-0.027-0.5-0.082-0.643c-0.055-0.142-0.152-0.255-0.291-0.34c-0.139-0.084-0.303-0.127-0.49-0.127
		c-0.299,0-0.558,0.096-0.775,0.285c-0.217,0.19-0.326,0.551-0.326,1.082v2.266H543.68z"/>
	<path d="M550.836,46.906l0.691,0.09c-0.076,0.477-0.269,0.85-0.58,1.119s-0.693,0.404-1.146,0.404
		c-0.568,0-1.024-0.186-1.369-0.557s-0.518-0.902-0.518-1.596c0-0.447,0.074-0.84,0.223-1.176s0.375-0.588,0.678-0.756
		s0.633-0.252,0.99-0.252c0.451,0,0.819,0.114,1.105,0.342c0.287,0.229,0.47,0.552,0.551,0.971l-0.684,0.105
		c-0.065-0.278-0.18-0.488-0.346-0.629s-0.365-0.211-0.6-0.211c-0.354,0-0.642,0.127-0.863,0.381s-0.332,0.656-0.332,1.205
		c0,0.558,0.107,0.963,0.32,1.215c0.213,0.253,0.492,0.379,0.836,0.379c0.276,0,0.506-0.084,0.691-0.254
		C550.669,47.519,550.787,47.258,550.836,46.906z"/>
	<path d="M554.969,47.09l0.727,0.09c-0.115,0.425-0.327,0.754-0.637,0.988s-0.706,0.352-1.188,0.352
		c-0.607,0-1.088-0.187-1.443-0.561c-0.355-0.373-0.533-0.897-0.533-1.572c0-0.697,0.18-1.239,0.539-1.625
		c0.359-0.385,0.826-0.578,1.398-0.578c0.555,0,1.008,0.189,1.359,0.566c0.352,0.378,0.527,0.909,0.527,1.594
		c0,0.042-0.001,0.104-0.004,0.188h-3.094c0.026,0.456,0.155,0.805,0.387,1.047s0.521,0.363,0.867,0.363
		c0.258,0,0.478-0.067,0.66-0.203C554.717,47.604,554.862,47.387,554.969,47.09z M552.66,45.953h2.316
		c-0.031-0.349-0.12-0.61-0.266-0.785c-0.224-0.271-0.514-0.406-0.871-0.406c-0.323,0-0.594,0.108-0.814,0.324
		C552.805,45.303,552.684,45.592,552.66,45.953z"/>
	<path d="M561.641,47.09l0.727,0.09c-0.115,0.425-0.327,0.754-0.637,0.988s-0.706,0.352-1.188,0.352
		c-0.607,0-1.088-0.187-1.443-0.561c-0.355-0.373-0.533-0.897-0.533-1.572c0-0.697,0.18-1.239,0.539-1.625
		c0.359-0.385,0.826-0.578,1.398-0.578c0.555,0,1.008,0.189,1.359,0.566c0.352,0.378,0.527,0.909,0.527,1.594
		c0,0.042-0.001,0.104-0.004,0.188h-3.094c0.026,0.456,0.155,0.805,0.387,1.047s0.521,0.363,0.867,0.363
		c0.258,0,0.478-0.067,0.66-0.203C561.389,47.604,561.534,47.387,561.641,47.09z M559.332,45.953h2.316
		c-0.031-0.349-0.12-0.61-0.266-0.785c-0.224-0.271-0.514-0.406-0.871-0.406c-0.323,0-0.594,0.108-0.814,0.324
		C559.477,45.303,559.355,45.592,559.332,45.953z"/>
	<path d="M564.402,48.426l-1.578-4.148h0.742l0.891,2.484c0.096,0.269,0.185,0.547,0.266,0.836c0.062-0.219,0.15-0.481,0.262-0.789
		l0.922-2.531h0.723l-1.57,4.148H564.402z"/>
	<path d="M569.957,47.914c-0.26,0.222-0.511,0.378-0.752,0.469c-0.241,0.092-0.5,0.137-0.775,0.137
		c-0.456,0-0.806-0.111-1.051-0.334s-0.367-0.507-0.367-0.854c0-0.203,0.046-0.389,0.139-0.557s0.213-0.303,0.363-0.404
		s0.318-0.178,0.506-0.23c0.138-0.036,0.346-0.071,0.625-0.105c0.568-0.067,0.986-0.148,1.254-0.242
		c0.002-0.096,0.004-0.157,0.004-0.184c0-0.286-0.066-0.488-0.199-0.605c-0.18-0.158-0.447-0.238-0.801-0.238
		c-0.331,0-0.575,0.059-0.732,0.174c-0.158,0.116-0.274,0.321-0.35,0.615l-0.688-0.094c0.062-0.294,0.166-0.531,0.309-0.713
		c0.143-0.181,0.35-0.32,0.621-0.418s0.584-0.146,0.941-0.146c0.354,0,0.642,0.042,0.863,0.125c0.221,0.084,0.384,0.188,0.488,0.314
		c0.104,0.127,0.177,0.286,0.219,0.479c0.023,0.12,0.035,0.336,0.035,0.648v0.938c0,0.654,0.015,1.067,0.045,1.24
		c0.03,0.174,0.089,0.34,0.178,0.498h-0.734C570.025,48.28,569.978,48.109,569.957,47.914z M569.898,46.344
		c-0.255,0.104-0.638,0.193-1.148,0.266c-0.289,0.042-0.494,0.089-0.613,0.141c-0.12,0.053-0.212,0.129-0.277,0.229
		c-0.065,0.101-0.098,0.212-0.098,0.334c0,0.188,0.071,0.344,0.213,0.469s0.35,0.188,0.623,0.188c0.271,0,0.512-0.059,0.723-0.178
		c0.211-0.118,0.366-0.28,0.465-0.486c0.076-0.158,0.113-0.393,0.113-0.703V46.344z"/>
	<path d="M571.684,48.426v-5.727h0.703v5.727H571.684z"/>
	<path d="M576.195,48.426v-0.609c-0.323,0.469-0.762,0.703-1.316,0.703c-0.245,0-0.473-0.047-0.686-0.141s-0.37-0.211-0.473-0.354
		c-0.103-0.142-0.175-0.315-0.217-0.521c-0.029-0.138-0.043-0.356-0.043-0.656v-2.57h0.703v2.301c0,0.367,0.014,0.615,0.043,0.742
		c0.044,0.186,0.138,0.33,0.281,0.436s0.32,0.158,0.531,0.158s0.409-0.054,0.594-0.162c0.185-0.107,0.316-0.255,0.393-0.441
		c0.077-0.186,0.115-0.456,0.115-0.811v-2.223h0.703v4.148H576.195z"/>
	<path d="M580.633,47.914c-0.26,0.222-0.511,0.378-0.752,0.469c-0.241,0.092-0.5,0.137-0.775,0.137
		c-0.456,0-0.806-0.111-1.051-0.334s-0.367-0.507-0.367-0.854c0-0.203,0.046-0.389,0.139-0.557s0.213-0.303,0.363-0.404
		s0.318-0.178,0.506-0.23c0.138-0.036,0.346-0.071,0.625-0.105c0.568-0.067,0.986-0.148,1.254-0.242
		c0.002-0.096,0.004-0.157,0.004-0.184c0-0.286-0.066-0.488-0.199-0.605c-0.18-0.158-0.447-0.238-0.801-0.238
		c-0.331,0-0.575,0.059-0.732,0.174c-0.158,0.116-0.274,0.321-0.35,0.615l-0.688-0.094c0.062-0.294,0.166-0.531,0.309-0.713
		c0.143-0.181,0.35-0.32,0.621-0.418s0.584-0.146,0.941-0.146c0.354,0,0.642,0.042,0.863,0.125c0.221,0.084,0.384,0.188,0.488,0.314
		c0.104,0.127,0.177,0.286,0.219,0.479c0.023,0.12,0.035,0.336,0.035,0.648v0.938c0,0.654,0.015,1.067,0.045,1.24
		c0.03,0.174,0.089,0.34,0.178,0.498h-0.734C580.701,48.28,580.654,48.109,580.633,47.914z M580.574,46.344
		c-0.255,0.104-0.638,0.193-1.148,0.266c-0.289,0.042-0.494,0.089-0.613,0.141c-0.12,0.053-0.212,0.129-0.277,0.229
		c-0.065,0.101-0.098,0.212-0.098,0.334c0,0.188,0.071,0.344,0.213,0.469s0.35,0.188,0.623,0.188c0.271,0,0.512-0.059,0.723-0.178
		c0.211-0.118,0.366-0.28,0.465-0.486c0.076-0.158,0.113-0.393,0.113-0.703V46.344z"/>
	<path d="M583.91,47.797l0.102,0.621c-0.198,0.042-0.375,0.062-0.531,0.062c-0.255,0-0.453-0.04-0.594-0.121
		c-0.141-0.08-0.24-0.187-0.297-0.318c-0.057-0.131-0.086-0.408-0.086-0.83v-2.387h-0.516v-0.547h0.516V43.25l0.699-0.422v1.449
		h0.707v0.547h-0.707v2.426c0,0.201,0.012,0.33,0.037,0.387c0.025,0.058,0.065,0.104,0.121,0.137
		c0.056,0.034,0.136,0.051,0.24,0.051C583.68,47.824,583.783,47.815,583.91,47.797z"/>
	<path d="M584.336,46.352c0-0.768,0.213-1.337,0.641-1.707c0.357-0.307,0.792-0.461,1.305-0.461c0.57,0,1.037,0.188,1.398,0.561
		c0.362,0.374,0.543,0.891,0.543,1.549c0,0.534-0.08,0.954-0.24,1.26c-0.16,0.307-0.393,0.544-0.699,0.713
		c-0.306,0.17-0.64,0.254-1.002,0.254c-0.581,0-1.05-0.186-1.408-0.559C584.515,47.589,584.336,47.053,584.336,46.352z
		 M585.059,46.352c0,0.531,0.116,0.93,0.348,1.193c0.232,0.265,0.523,0.396,0.875,0.396c0.349,0,0.639-0.133,0.871-0.398
		s0.348-0.67,0.348-1.215c0-0.513-0.117-0.901-0.35-1.166c-0.233-0.264-0.523-0.396-0.869-0.396c-0.352,0-0.643,0.132-0.875,0.395
		C585.174,45.424,585.059,45.82,585.059,46.352z"/>
	<path d="M589.039,48.426v-4.148h0.633v0.629c0.162-0.294,0.311-0.488,0.447-0.582s0.287-0.141,0.451-0.141
		c0.237,0,0.478,0.076,0.723,0.227l-0.242,0.652c-0.172-0.102-0.344-0.152-0.516-0.152c-0.154,0-0.292,0.047-0.414,0.139
		c-0.123,0.093-0.209,0.221-0.262,0.385c-0.078,0.25-0.117,0.523-0.117,0.82v2.172H589.039z"/>
	<path d="M591.43,47.188l0.695-0.109c0.039,0.279,0.148,0.492,0.326,0.641s0.428,0.223,0.748,0.223c0.323,0,0.562-0.065,0.719-0.197
		c0.156-0.131,0.234-0.285,0.234-0.463c0-0.158-0.069-0.283-0.207-0.375c-0.096-0.062-0.336-0.142-0.719-0.238
		c-0.516-0.13-0.873-0.242-1.072-0.338c-0.199-0.095-0.35-0.227-0.453-0.395s-0.154-0.354-0.154-0.557
		c0-0.185,0.042-0.355,0.127-0.514c0.084-0.157,0.2-0.288,0.346-0.393c0.109-0.08,0.258-0.148,0.447-0.205
		c0.189-0.056,0.391-0.084,0.607-0.084c0.326,0,0.611,0.047,0.857,0.141s0.428,0.221,0.545,0.381s0.198,0.375,0.242,0.643
		l-0.688,0.094c-0.031-0.213-0.122-0.38-0.271-0.5c-0.15-0.119-0.361-0.18-0.635-0.18c-0.323,0-0.553,0.054-0.691,0.16
		c-0.138,0.107-0.207,0.232-0.207,0.375c0,0.092,0.029,0.174,0.086,0.246c0.057,0.076,0.147,0.139,0.27,0.188
		c0.07,0.026,0.277,0.086,0.621,0.18c0.498,0.133,0.844,0.242,1.041,0.326c0.197,0.085,0.351,0.208,0.463,0.369
		c0.112,0.162,0.168,0.362,0.168,0.602c0,0.234-0.068,0.455-0.205,0.662s-0.334,0.367-0.592,0.48s-0.549,0.17-0.875,0.17
		c-0.539,0-0.95-0.111-1.232-0.336C591.688,47.96,591.508,47.628,591.43,47.188z"/>
</g>
<path class="st0" d="M102.331,54H86.669C83.551,54,81,51.449,81,48.331V32.669C81,29.551,83.551,27,86.669,27h15.661
	c3.118,0,5.669,2.551,5.669,5.669v15.661C108,51.449,105.449,54,102.331,54z"/>
<path class="st5" d="M30.331,54H14.669C11.551,54,9,51.449,9,48.331V32.669C9,29.551,11.551,27,14.669,27h15.661
	C33.449,27,36,29.551,36,32.669v15.661C36,51.449,33.449,54,30.331,54z"/>
<g>
</g>
<g>
</g>
<g>
</g>
<g>
</g>
<g>
</g>
<g>
</g>
<g>
</g>
<g>
</g>
<g>
</g>
<g>
</g>
<g>
</g>
</svg>
