<?xml version="1.0" encoding="utf-8"?>
<!-- Generator: Adobe Illustrator 25.2.3, SVG Export Plug-In . SVG Version: 6.00 Build 0)  -->
<svg version="1.1" id="Layer_1" xmlns="http://www.w3.org/2000/svg" xmlns:xlink="http://www.w3.org/1999/xlink" x="0px" y="0px"
	 viewBox="0 0 621 63" style="enable-background:new 0 0 621 63;" xml:space="preserve">
<style type="text/css">
	.st0{fill:none;stroke:#000000;stroke-miterlimit:10;}
	.st1{fill:#71AA8F;}
	.st2{fill:#777777;}
	.st3{fill:#BABADB;}
	.st4{fill:#AD798A;}
	.st5{fill:#C67190;}
	.st6{fill-rule:evenodd;clip-rule:evenodd;fill:#D2D2FF;}
	.st7{fill:#8E8E8E;}
</style>
<g>
	<path d="M63.73,11.238v-1.112h0.967v1.112H63.73z M63.73,18v-5.704h0.967V18H63.73z"/>
	<path d="M66.169,18v-5.704h0.87v0.811c0.419-0.626,1.024-0.94,1.815-0.94c0.344,0,0.66,0.062,0.948,0.186
		c0.289,0.123,0.504,0.285,0.647,0.486s0.244,0.438,0.301,0.714c0.036,0.179,0.054,0.492,0.054,0.94V18h-0.967v-3.47
		c0-0.394-0.038-0.688-0.113-0.884c-0.075-0.195-0.208-0.351-0.4-0.467c-0.192-0.117-0.417-0.175-0.674-0.175
		c-0.412,0-0.767,0.131-1.066,0.392c-0.299,0.261-0.449,0.757-0.449,1.488V18H66.169z"/>
	<path d="M72.287,20.186v-7.89h0.881v0.741c0.208-0.29,0.442-0.508,0.704-0.652c0.261-0.146,0.578-0.218,0.951-0.218
		c0.487,0,0.917,0.125,1.289,0.376s0.653,0.604,0.843,1.061c0.19,0.457,0.285,0.957,0.285,1.501c0,0.583-0.105,1.109-0.314,1.577
		c-0.21,0.467-0.514,0.825-0.913,1.074c-0.399,0.249-0.819,0.373-1.26,0.373c-0.322,0-0.611-0.068-0.867-0.204
		c-0.256-0.136-0.467-0.308-0.631-0.516v2.777H72.287z M73.162,15.18c0,0.734,0.148,1.276,0.446,1.627s0.657,0.526,1.08,0.526
		c0.43,0,0.798-0.182,1.104-0.545c0.307-0.364,0.459-0.927,0.459-1.689c0-0.727-0.149-1.271-0.449-1.633
		c-0.299-0.362-0.656-0.542-1.071-0.542c-0.412,0-0.776,0.192-1.093,0.578C73.32,13.887,73.162,14.446,73.162,15.18z"/>
	<path d="M82.143,18v-0.838c-0.444,0.645-1.047,0.967-1.81,0.967c-0.336,0-0.651-0.064-0.942-0.193
		c-0.292-0.129-0.509-0.291-0.65-0.486c-0.141-0.195-0.241-0.434-0.298-0.717c-0.04-0.19-0.059-0.491-0.059-0.902v-3.534h0.967
		v3.164c0,0.505,0.02,0.845,0.059,1.021c0.061,0.254,0.19,0.454,0.387,0.599c0.197,0.145,0.44,0.217,0.73,0.217
		s0.562-0.074,0.816-0.223c0.254-0.148,0.434-0.351,0.54-0.606c0.105-0.256,0.158-0.628,0.158-1.115v-3.056h0.967V18H82.143z"/>
	<path d="M86.633,17.135l0.14,0.854c-0.272,0.057-0.516,0.086-0.73,0.086c-0.351,0-0.623-0.056-0.816-0.167s-0.33-0.257-0.408-0.438
		c-0.079-0.181-0.118-0.561-0.118-1.141v-3.282H83.99v-0.752h0.709v-1.413l0.961-0.58v1.993h0.972v0.752h-0.972v3.335
		c0,0.276,0.017,0.453,0.051,0.532c0.034,0.079,0.089,0.142,0.166,0.188c0.077,0.046,0.188,0.07,0.331,0.07
		C86.316,17.173,86.458,17.16,86.633,17.135z"/>
</g>
<g>
	<path d="M216.725,18v-5.704h0.865v0.8c0.179-0.279,0.417-0.504,0.714-0.674c0.297-0.17,0.636-0.255,1.015-0.255
		c0.422,0,0.769,0.088,1.039,0.263c0.271,0.175,0.461,0.421,0.572,0.736c0.451-0.666,1.039-0.999,1.762-0.999
		c0.566,0,1.001,0.157,1.305,0.47c0.304,0.313,0.457,0.796,0.457,1.448V18h-0.961v-3.593c0-0.387-0.031-0.665-0.094-0.835
		c-0.062-0.17-0.176-0.307-0.341-0.411s-0.358-0.156-0.58-0.156c-0.401,0-0.734,0.133-0.999,0.4
		c-0.265,0.267-0.397,0.693-0.397,1.281V18h-0.967v-3.706c0-0.43-0.079-0.752-0.236-0.967s-0.416-0.322-0.773-0.322
		c-0.272,0-0.523,0.072-0.755,0.215c-0.23,0.143-0.398,0.353-0.502,0.628s-0.156,0.673-0.156,1.192V18H216.725z"/>
	<path d="M229.793,16.163l0.999,0.124c-0.158,0.583-0.449,1.037-0.875,1.359s-0.97,0.483-1.633,0.483
		c-0.834,0-1.496-0.257-1.985-0.771c-0.488-0.514-0.733-1.235-0.733-2.162c0-0.959,0.247-1.705,0.741-2.234s1.135-0.795,1.923-0.795
		c0.763,0,1.386,0.26,1.869,0.779s0.725,1.25,0.725,2.191c0,0.057-0.002,0.143-0.005,0.258h-4.254
		c0.036,0.626,0.213,1.106,0.532,1.439s0.716,0.5,1.192,0.5c0.354,0,0.657-0.093,0.908-0.279S229.646,16.571,229.793,16.163z
		 M226.619,14.6h3.185c-0.043-0.48-0.165-0.84-0.365-1.08c-0.308-0.373-0.707-0.559-1.198-0.559c-0.444,0-0.817,0.148-1.12,0.446
		C226.818,13.705,226.651,14.103,226.619,14.6z"/>
	<path d="M234.117,17.135l0.14,0.854c-0.272,0.057-0.516,0.086-0.73,0.086c-0.351,0-0.623-0.056-0.816-0.167
		s-0.33-0.257-0.408-0.438c-0.079-0.181-0.118-0.561-0.118-1.141v-3.282h-0.709v-0.752h0.709v-1.413l0.961-0.58v1.993h0.972v0.752
		h-0.972v3.335c0,0.276,0.017,0.453,0.051,0.532c0.034,0.079,0.089,0.142,0.166,0.188c0.077,0.046,0.188,0.07,0.331,0.07
		C233.8,17.173,233.941,17.16,234.117,17.135z"/>
	<path d="M235.062,18v-7.874h0.967v2.825c0.451-0.523,1.021-0.784,1.708-0.784c0.422,0,0.79,0.083,1.101,0.25
		c0.312,0.166,0.534,0.396,0.669,0.69c0.134,0.293,0.201,0.72,0.201,1.278V18h-0.967v-3.615c0-0.483-0.104-0.835-0.314-1.055
		c-0.209-0.221-0.505-0.331-0.889-0.331c-0.287,0-0.556,0.074-0.809,0.223c-0.252,0.148-0.432,0.35-0.54,0.604
		s-0.161,0.605-0.161,1.053V18H235.062z"/>
	<path d="M240.82,15.148c0-1.056,0.293-1.839,0.881-2.347c0.491-0.422,1.088-0.634,1.794-0.634c0.784,0,1.425,0.257,1.923,0.771
		c0.498,0.514,0.747,1.224,0.747,2.13c0,0.734-0.11,1.312-0.331,1.732c-0.22,0.42-0.541,0.747-0.961,0.98
		c-0.421,0.233-0.88,0.349-1.378,0.349c-0.798,0-1.444-0.256-1.937-0.768C241.066,16.849,240.82,16.111,240.82,15.148z
		 M241.813,15.148c0,0.73,0.159,1.277,0.478,1.641c0.319,0.363,0.72,0.545,1.203,0.545c0.48,0,0.879-0.183,1.198-0.548
		s0.478-0.922,0.478-1.67c0-0.706-0.16-1.24-0.48-1.603c-0.321-0.364-0.719-0.545-1.195-0.545c-0.483,0-0.884,0.181-1.203,0.542
		S241.813,14.417,241.813,15.148z"/>
	<path d="M250.998,18v-0.72c-0.362,0.566-0.894,0.849-1.595,0.849c-0.455,0-0.873-0.125-1.254-0.376
		c-0.381-0.25-0.677-0.601-0.886-1.05c-0.21-0.45-0.314-0.966-0.314-1.55c0-0.569,0.095-1.086,0.285-1.55
		c0.19-0.463,0.475-0.819,0.854-1.066s0.804-0.371,1.273-0.371c0.344,0,0.65,0.072,0.918,0.218c0.269,0.145,0.487,0.333,0.655,0.566
		v-2.825h0.961V18H250.998z M247.942,15.153c0,0.73,0.154,1.276,0.462,1.638s0.671,0.542,1.09,0.542
		c0.422,0,0.781-0.173,1.077-0.519c0.295-0.345,0.443-0.873,0.443-1.582c0-0.781-0.15-1.354-0.451-1.719s-0.671-0.548-1.112-0.548
		c-0.43,0-0.789,0.175-1.077,0.526C248.086,13.845,247.942,14.398,247.942,15.153z"/>
</g>
<g>
	<path d="M378.365,15.148c0-1.056,0.293-1.839,0.881-2.347c0.491-0.422,1.088-0.634,1.794-0.634c0.784,0,1.425,0.257,1.923,0.771
		c0.498,0.514,0.747,1.224,0.747,2.13c0,0.734-0.11,1.312-0.331,1.732c-0.22,0.42-0.541,0.747-0.961,0.98
		c-0.421,0.233-0.88,0.349-1.378,0.349c-0.798,0-1.444-0.256-1.937-0.768C378.611,16.849,378.365,16.111,378.365,15.148z
		 M379.359,15.148c0,0.73,0.159,1.277,0.478,1.641c0.319,0.363,0.72,0.545,1.203,0.545c0.48,0,0.879-0.183,1.198-0.548
		s0.478-0.922,0.478-1.67c0-0.706-0.16-1.24-0.48-1.603c-0.321-0.364-0.719-0.545-1.195-0.545c-0.483,0-0.884,0.181-1.203,0.542
		S379.359,14.417,379.359,15.148z"/>
	<path d="M388.581,18v-0.838c-0.444,0.645-1.047,0.967-1.81,0.967c-0.336,0-0.651-0.064-0.942-0.193
		c-0.292-0.129-0.509-0.291-0.65-0.486c-0.141-0.195-0.241-0.434-0.298-0.717c-0.04-0.19-0.059-0.491-0.059-0.902v-3.534h0.967
		v3.164c0,0.505,0.02,0.845,0.059,1.021c0.061,0.254,0.19,0.454,0.387,0.599c0.197,0.145,0.44,0.217,0.73,0.217
		s0.562-0.074,0.816-0.223c0.254-0.148,0.434-0.351,0.54-0.606c0.105-0.256,0.158-0.628,0.158-1.115v-3.056h0.967V18H388.581z"/>
	<path d="M393.071,17.135l0.14,0.854c-0.272,0.057-0.516,0.086-0.73,0.086c-0.351,0-0.623-0.056-0.816-0.167
		s-0.33-0.257-0.408-0.438c-0.079-0.181-0.118-0.561-0.118-1.141v-3.282h-0.709v-0.752h0.709v-1.413l0.961-0.58v1.993h0.972v0.752
		h-0.972v3.335c0,0.276,0.017,0.453,0.051,0.532c0.034,0.079,0.089,0.142,0.166,0.188c0.077,0.046,0.188,0.07,0.331,0.07
		C392.754,17.173,392.896,17.16,393.071,17.135z"/>
	<path d="M394.017,20.186v-7.89h0.881v0.741c0.208-0.29,0.442-0.508,0.704-0.652c0.261-0.146,0.578-0.218,0.951-0.218
		c0.487,0,0.917,0.125,1.289,0.376s0.653,0.604,0.843,1.061c0.19,0.457,0.285,0.957,0.285,1.501c0,0.583-0.105,1.109-0.314,1.577
		c-0.21,0.467-0.514,0.825-0.913,1.074c-0.399,0.249-0.819,0.373-1.26,0.373c-0.322,0-0.611-0.068-0.867-0.204
		c-0.256-0.136-0.467-0.308-0.631-0.516v2.777H394.017z M394.892,15.18c0,0.734,0.148,1.276,0.446,1.627s0.657,0.526,1.08,0.526
		c0.43,0,0.798-0.182,1.104-0.545c0.307-0.364,0.459-0.927,0.459-1.689c0-0.727-0.149-1.271-0.449-1.633
		c-0.299-0.362-0.656-0.542-1.071-0.542c-0.412,0-0.776,0.192-1.093,0.578C395.05,13.887,394.892,14.446,394.892,15.18z"/>
	<path d="M403.873,18v-0.838c-0.444,0.645-1.047,0.967-1.81,0.967c-0.336,0-0.651-0.064-0.942-0.193
		c-0.292-0.129-0.509-0.291-0.65-0.486c-0.141-0.195-0.241-0.434-0.298-0.717c-0.04-0.19-0.059-0.491-0.059-0.902v-3.534h0.967
		v3.164c0,0.505,0.02,0.845,0.059,1.021c0.061,0.254,0.19,0.454,0.387,0.599c0.197,0.145,0.44,0.217,0.73,0.217
		s0.562-0.074,0.816-0.223c0.254-0.148,0.434-0.351,0.54-0.606c0.105-0.256,0.158-0.628,0.158-1.115v-3.056h0.967V18H403.873z"/>
	<path d="M408.363,17.135l0.14,0.854c-0.272,0.057-0.516,0.086-0.73,0.086c-0.351,0-0.623-0.056-0.816-0.167
		s-0.33-0.257-0.408-0.438c-0.079-0.181-0.118-0.561-0.118-1.141v-3.282h-0.709v-0.752h0.709v-1.413l0.961-0.58v1.993h0.972v0.752
		h-0.972v3.335c0,0.276,0.017,0.453,0.051,0.532c0.034,0.079,0.089,0.142,0.166,0.188c0.077,0.046,0.188,0.07,0.331,0.07
		C408.046,17.173,408.188,17.16,408.363,17.135z"/>
</g>
<g>
	<path d="M524.836,17.135l0.14,0.854c-0.272,0.057-0.516,0.086-0.73,0.086c-0.351,0-0.623-0.056-0.816-0.167
		s-0.33-0.257-0.408-0.438c-0.079-0.181-0.118-0.561-0.118-1.141v-3.282h-0.709v-0.752h0.709v-1.413l0.961-0.58v1.993h0.972v0.752
		h-0.972v3.335c0,0.276,0.017,0.453,0.051,0.532c0.034,0.079,0.089,0.142,0.166,0.188c0.077,0.046,0.188,0.07,0.331,0.07
		C524.519,17.173,524.661,17.16,524.836,17.135z"/>
	<path d="M529.503,17.296c-0.358,0.304-0.703,0.519-1.034,0.645c-0.331,0.125-0.687,0.188-1.066,0.188
		c-0.626,0-1.108-0.153-1.445-0.459c-0.336-0.307-0.505-0.698-0.505-1.174c0-0.279,0.063-0.534,0.19-0.766
		c0.127-0.23,0.294-0.416,0.5-0.556c0.206-0.14,0.438-0.245,0.695-0.317c0.19-0.05,0.476-0.099,0.859-0.145
		c0.781-0.093,1.355-0.204,1.724-0.333c0.003-0.132,0.005-0.217,0.005-0.252c0-0.394-0.091-0.671-0.274-0.833
		c-0.247-0.218-0.614-0.328-1.101-0.328c-0.455,0-0.791,0.08-1.007,0.239c-0.217,0.16-0.377,0.441-0.481,0.846l-0.945-0.129
		c0.086-0.405,0.228-0.731,0.424-0.98c0.197-0.249,0.481-0.44,0.854-0.575c0.373-0.134,0.804-0.201,1.294-0.201
		c0.487,0,0.883,0.057,1.187,0.172s0.528,0.259,0.671,0.433c0.143,0.173,0.244,0.393,0.301,0.658
		c0.032,0.165,0.048,0.462,0.048,0.892v1.289c0,0.899,0.021,1.467,0.062,1.706c0.041,0.238,0.123,0.466,0.244,0.685h-1.01
		C529.597,17.799,529.532,17.565,529.503,17.296z M529.423,15.137c-0.351,0.143-0.877,0.265-1.579,0.365
		c-0.397,0.057-0.679,0.122-0.843,0.193s-0.292,0.176-0.381,0.314c-0.089,0.138-0.134,0.291-0.134,0.459
		c0,0.258,0.098,0.473,0.293,0.645c0.195,0.172,0.48,0.258,0.856,0.258c0.373,0,0.704-0.082,0.994-0.245
		c0.29-0.163,0.503-0.386,0.639-0.668c0.104-0.218,0.156-0.541,0.156-0.967V15.137z"/>
	<path d="M531.512,16.297l0.956-0.15c0.054,0.383,0.203,0.677,0.449,0.881c0.245,0.204,0.588,0.306,1.028,0.306
		c0.444,0,0.773-0.09,0.988-0.271c0.215-0.181,0.322-0.393,0.322-0.636c0-0.218-0.095-0.39-0.285-0.516
		c-0.132-0.086-0.462-0.195-0.988-0.328c-0.709-0.179-1.201-0.334-1.474-0.465c-0.274-0.13-0.482-0.312-0.623-0.542
		c-0.142-0.231-0.212-0.486-0.212-0.766c0-0.254,0.058-0.49,0.174-0.706c0.117-0.217,0.275-0.397,0.476-0.54
		c0.15-0.111,0.355-0.205,0.615-0.282c0.259-0.077,0.538-0.115,0.835-0.115c0.448,0,0.841,0.064,1.179,0.193
		c0.339,0.129,0.588,0.304,0.75,0.523c0.161,0.221,0.272,0.515,0.333,0.884l-0.945,0.129c-0.043-0.293-0.167-0.523-0.374-0.688
		c-0.206-0.165-0.497-0.247-0.873-0.247c-0.444,0-0.761,0.073-0.951,0.22s-0.285,0.319-0.285,0.516c0,0.125,0.04,0.238,0.118,0.338
		c0.079,0.104,0.202,0.19,0.371,0.258c0.097,0.036,0.381,0.118,0.854,0.247c0.684,0.183,1.161,0.332,1.431,0.448
		c0.271,0.117,0.483,0.286,0.637,0.508s0.231,0.498,0.231,0.827c0,0.322-0.094,0.626-0.282,0.91
		c-0.188,0.285-0.459,0.505-0.814,0.661c-0.354,0.155-0.755,0.233-1.203,0.233c-0.741,0-1.306-0.154-1.695-0.462
		C531.868,17.359,531.62,16.902,531.512,16.297z"/>
	<path d="M537.404,18v-7.874h0.967v4.49l2.288-2.32h1.251l-2.181,2.116L542.131,18h-1.192l-1.885-2.917l-0.682,0.655V18H537.404z"/>
	<path d="M542.512,16.297l0.956-0.15c0.054,0.383,0.203,0.677,0.449,0.881c0.245,0.204,0.588,0.306,1.028,0.306
		c0.444,0,0.773-0.09,0.988-0.271c0.215-0.181,0.322-0.393,0.322-0.636c0-0.218-0.095-0.39-0.285-0.516
		c-0.132-0.086-0.462-0.195-0.988-0.328c-0.709-0.179-1.201-0.334-1.474-0.465c-0.274-0.13-0.482-0.312-0.623-0.542
		c-0.142-0.231-0.212-0.486-0.212-0.766c0-0.254,0.058-0.49,0.174-0.706c0.117-0.217,0.275-0.397,0.476-0.54
		c0.15-0.111,0.355-0.205,0.615-0.282c0.259-0.077,0.538-0.115,0.835-0.115c0.448,0,0.841,0.064,1.179,0.193
		c0.339,0.129,0.588,0.304,0.75,0.523c0.161,0.221,0.272,0.515,0.333,0.884l-0.945,0.129c-0.043-0.293-0.167-0.523-0.374-0.688
		c-0.206-0.165-0.497-0.247-0.873-0.247c-0.444,0-0.761,0.073-0.951,0.22s-0.285,0.319-0.285,0.516c0,0.125,0.04,0.238,0.118,0.338
		c0.079,0.104,0.202,0.19,0.371,0.258c0.097,0.036,0.381,0.118,0.854,0.247c0.684,0.183,1.161,0.332,1.431,0.448
		c0.271,0.117,0.483,0.286,0.637,0.508s0.231,0.498,0.231,0.827c0,0.322-0.094,0.626-0.282,0.91
		c-0.188,0.285-0.459,0.505-0.814,0.661c-0.354,0.155-0.755,0.233-1.203,0.233c-0.741,0-1.306-0.154-1.695-0.462
		C542.868,17.359,542.62,16.902,542.512,16.297z"/>
</g>
<line class="st0" x1="9" y1="23.811" x2="612" y2="23.811"/>
<g>
	<path class="st1" d="M51.166,36h-3.331C46.276,36,45,34.724,45,33.165v-3.331C45,28.276,46.276,27,47.835,27h3.331
		C52.725,27,54,28.276,54,29.835v3.331C54,34.724,52.725,36,51.166,36z"/>
	<path class="st2" d="M50.291,33h-1.583C48.317,33,48,32.683,48,32.291v-1.583C48,30.317,48.317,30,48.709,30h1.583
		C50.683,30,51,30.317,51,30.709v1.583C51,32.683,50.683,33,50.291,33z"/>
	<path class="st3" d="M63.166,36h-3.331C58.276,36,57,34.724,57,33.165v-3.331C57,28.276,58.276,27,59.835,27h3.331
		C64.725,27,66,28.276,66,29.835v3.331C66,34.724,64.725,36,63.166,36z"/>
	<path class="st2" d="M62.291,33h-1.583C60.317,33,60,32.683,60,32.291v-1.583C60,30.317,60.317,30,60.709,30h1.583
		C62.683,30,63,30.317,63,30.709v1.583C63,32.683,62.683,33,62.291,33z"/>
	<path class="st4" d="M75.166,36h-3.331C70.276,36,69,34.724,69,33.165v-3.331C69,28.276,70.276,27,71.835,27h3.331
		C76.725,27,78,28.276,78,29.835v3.331C78,34.724,76.725,36,75.166,36z"/>
	<path class="st2" d="M74.291,33h-1.583C72.317,33,72,32.683,72,32.291v-1.583C72,30.317,72.317,30,72.709,30h1.583
		C74.683,30,75,30.317,75,30.709v1.583C75,32.683,74.683,33,74.291,33z"/>
	<path class="st5" d="M87.166,36h-3.331C82.276,36,81,34.724,81,33.165v-3.331C81,28.276,82.276,27,83.835,27h3.331
		C88.725,27,90,28.276,90,29.835v3.331C90,34.724,88.725,36,87.166,36z"/>
	<path class="st2" d="M86.291,33h-1.583C84.317,33,84,32.683,84,32.291v-1.583C84,30.317,84.317,30,84.709,30h1.583
		C86.683,30,87,30.317,87,30.709v1.583C87,32.683,86.683,33,86.291,33z"/>
</g>
<g>
	<path class="st1" d="M54,41.669h-3.331c-1.559,0-2.835-1.276-2.835-2.835v-3.331c0-1.559,1.276-2.835,2.835-2.835H54
		c1.559,0,2.835,1.276,2.835,2.835v3.331C56.835,40.394,55.559,41.669,54,41.669z"/>
	<path class="st2" d="M53.126,38.669h-1.583c-0.391,0-0.709-0.317-0.709-0.709v-1.583c0-0.391,0.317-0.709,0.709-0.709h1.583
		c0.391,0,0.709,0.317,0.709,0.709v1.583C53.835,38.352,53.518,38.669,53.126,38.669z"/>
	<path class="st3" d="M66,41.669h-3.331c-1.559,0-2.835-1.276-2.835-2.835v-3.331c0-1.559,1.276-2.835,2.835-2.835H66
		c1.559,0,2.835,1.276,2.835,2.835v3.331C68.835,40.394,67.559,41.669,66,41.669z"/>
	<path class="st2" d="M65.126,38.669h-1.583c-0.391,0-0.709-0.317-0.709-0.709v-1.583c0-0.391,0.317-0.709,0.709-0.709h1.583
		c0.391,0,0.709,0.317,0.709,0.709v1.583C65.835,38.352,65.517,38.669,65.126,38.669z"/>
	<path class="st4" d="M78,41.669h-3.331c-1.559,0-2.835-1.276-2.835-2.835v-3.331c0-1.559,1.276-2.835,2.835-2.835H78
		c1.559,0,2.835,1.276,2.835,2.835v3.331C80.835,40.394,79.559,41.669,78,41.669z"/>
	<path class="st2" d="M77.126,38.669h-1.583c-0.391,0-0.709-0.317-0.709-0.709v-1.583c0-0.391,0.317-0.709,0.709-0.709h1.583
		c0.391,0,0.709,0.317,0.709,0.709v1.583C77.835,38.352,77.518,38.669,77.126,38.669z"/>
	<path class="st5" d="M90,41.669h-3.331c-1.559,0-2.835-1.276-2.835-2.835v-3.331c0-1.559,1.276-2.835,2.835-2.835H90
		c1.559,0,2.835,1.276,2.835,2.835v3.331C92.835,40.394,91.559,41.669,90,41.669z"/>
	<path class="st2" d="M89.126,38.669h-1.583c-0.391,0-0.709-0.317-0.709-0.709v-1.583c0-0.391,0.317-0.709,0.709-0.709h1.583
		c0.391,0,0.709,0.317,0.709,0.709v1.583C89.835,38.352,89.517,38.669,89.126,38.669z"/>
</g>
<g>
	<path class="st1" d="M56.835,47.339h-3.331c-1.559,0-2.835-1.276-2.835-2.835v-3.331c0-1.559,1.276-2.835,2.835-2.835h3.331
		c1.559,0,2.835,1.276,2.835,2.835v3.331C59.669,46.063,58.394,47.339,56.835,47.339z"/>
	<path class="st2" d="M55.961,44.339h-1.583c-0.391,0-0.709-0.317-0.709-0.709v-1.583c0-0.391,0.317-0.709,0.709-0.709h1.583
		c0.391,0,0.709,0.317,0.709,0.709v1.583C56.669,44.021,56.352,44.339,55.961,44.339z"/>
	<path class="st3" d="M68.835,47.339h-3.331c-1.559,0-2.835-1.276-2.835-2.835v-3.331c0-1.559,1.276-2.835,2.835-2.835h3.331
		c1.559,0,2.835,1.276,2.835,2.835v3.331C71.669,46.063,70.394,47.339,68.835,47.339z"/>
	<path class="st2" d="M67.961,44.339h-1.583c-0.391,0-0.709-0.317-0.709-0.709v-1.583c0-0.391,0.317-0.709,0.709-0.709h1.583
		c0.391,0,0.709,0.317,0.709,0.709v1.583C68.669,44.021,68.352,44.339,67.961,44.339z"/>
	<path class="st4" d="M80.835,47.339h-3.331c-1.559,0-2.835-1.276-2.835-2.835v-3.331c0-1.559,1.276-2.835,2.835-2.835h3.331
		c1.559,0,2.835,1.276,2.835,2.835v3.331C83.669,46.063,82.394,47.339,80.835,47.339z"/>
	<path class="st2" d="M79.961,44.339h-1.583c-0.391,0-0.709-0.317-0.709-0.709v-1.583c0-0.391,0.317-0.709,0.709-0.709h1.583
		c0.391,0,0.709,0.317,0.709,0.709v1.583C80.669,44.021,80.352,44.339,79.961,44.339z"/>
	<path class="st5" d="M92.835,47.339h-3.331c-1.559,0-2.835-1.276-2.835-2.835v-3.331c0-1.559,1.276-2.835,2.835-2.835h3.331
		c1.559,0,2.835,1.276,2.835,2.835v3.331C95.669,46.063,94.394,47.339,92.835,47.339z"/>
	<path class="st2" d="M91.961,44.339h-1.583c-0.391,0-0.709-0.317-0.709-0.709v-1.583c0-0.391,0.317-0.709,0.709-0.709h1.583
		c0.391,0,0.709,0.317,0.709,0.709v1.583C92.669,44.021,92.352,44.339,91.961,44.339z"/>
</g>
<g>
	<path class="st1" d="M59.669,53.008h-3.331c-1.559,0-2.835-1.276-2.835-2.835v-3.331c0-1.559,1.276-2.835,2.835-2.835h3.331
		c1.559,0,2.835,1.276,2.835,2.835v3.331C62.504,51.732,61.229,53.008,59.669,53.008z"/>
	<path class="st2" d="M58.795,50.008h-1.583c-0.391,0-0.709-0.317-0.709-0.709v-1.583c0-0.391,0.317-0.709,0.709-0.709h1.583
		c0.391,0,0.709,0.317,0.709,0.709v1.583C59.504,49.691,59.187,50.008,58.795,50.008z"/>
	<path class="st3" d="M71.669,53.008h-3.331c-1.559,0-2.835-1.276-2.835-2.835v-3.331c0-1.559,1.276-2.835,2.835-2.835h3.331
		c1.559,0,2.835,1.276,2.835,2.835v3.331C74.504,51.732,73.229,53.008,71.669,53.008z"/>
	<path class="st2" d="M70.795,50.008h-1.583c-0.391,0-0.709-0.317-0.709-0.709v-1.583c0-0.391,0.317-0.709,0.709-0.709h1.583
		c0.391,0,0.709,0.317,0.709,0.709v1.583C71.504,49.691,71.187,50.008,70.795,50.008z"/>
	<path class="st4" d="M83.669,53.008h-3.331c-1.559,0-2.835-1.276-2.835-2.835v-3.331c0-1.559,1.276-2.835,2.835-2.835h3.331
		c1.559,0,2.835,1.276,2.835,2.835v3.331C86.504,51.732,85.229,53.008,83.669,53.008z"/>
	<path class="st2" d="M82.795,50.008h-1.583c-0.391,0-0.709-0.317-0.709-0.709v-1.583c0-0.391,0.317-0.709,0.709-0.709h1.583
		c0.391,0,0.709,0.317,0.709,0.709v1.583C83.504,49.691,83.187,50.008,82.795,50.008z"/>
	<path class="st5" d="M95.669,53.008h-3.331c-1.559,0-2.835-1.276-2.835-2.835v-3.331c0-1.559,1.276-2.835,2.835-2.835h3.331
		c1.559,0,2.835,1.276,2.835,2.835v3.331C98.504,51.732,97.229,53.008,95.669,53.008z"/>
	<path class="st2" d="M94.795,50.008h-1.583c-0.391,0-0.709-0.317-0.709-0.709v-1.583c0-0.391,0.317-0.709,0.709-0.709h1.583
		c0.391,0,0.709,0.317,0.709,0.709v1.583C95.504,49.691,95.187,50.008,94.795,50.008z"/>
</g>
<polygon class="st6" points="153,27.461 298.915,27.461 319.491,40.73 298.915,54 153,54 173.573,40.73 "/>
<g>
	<path d="M213.552,41.961l0.956-0.15c0.054,0.383,0.203,0.677,0.449,0.881c0.245,0.204,0.588,0.306,1.028,0.306
		c0.444,0,0.773-0.09,0.988-0.271c0.215-0.181,0.322-0.393,0.322-0.636c0-0.218-0.095-0.39-0.285-0.516
		c-0.132-0.086-0.462-0.195-0.988-0.328c-0.709-0.179-1.201-0.334-1.474-0.465c-0.274-0.13-0.482-0.312-0.623-0.542
		c-0.142-0.231-0.212-0.486-0.212-0.766c0-0.254,0.058-0.49,0.174-0.706c0.117-0.217,0.275-0.397,0.476-0.54
		c0.15-0.111,0.355-0.205,0.615-0.282c0.259-0.077,0.538-0.115,0.835-0.115c0.448,0,0.841,0.064,1.179,0.193
		c0.339,0.129,0.588,0.304,0.75,0.523c0.161,0.221,0.272,0.515,0.333,0.884l-0.945,0.129c-0.043-0.293-0.167-0.523-0.374-0.688
		c-0.206-0.165-0.497-0.247-0.873-0.247c-0.444,0-0.761,0.073-0.951,0.22s-0.285,0.319-0.285,0.516c0,0.125,0.04,0.238,0.118,0.338
		c0.079,0.104,0.202,0.19,0.371,0.258c0.097,0.036,0.381,0.118,0.854,0.247c0.684,0.183,1.161,0.332,1.431,0.448
		c0.271,0.117,0.483,0.286,0.637,0.508s0.231,0.498,0.231,0.827c0,0.322-0.094,0.626-0.282,0.91
		c-0.188,0.285-0.459,0.505-0.814,0.661c-0.354,0.155-0.755,0.233-1.203,0.233c-0.741,0-1.306-0.154-1.695-0.462
		C213.907,43.022,213.659,42.566,213.552,41.961z"/>
	<path d="M223.343,41.827l0.999,0.124c-0.158,0.583-0.449,1.037-0.875,1.359s-0.97,0.483-1.633,0.483
		c-0.834,0-1.496-0.257-1.985-0.771c-0.488-0.514-0.733-1.235-0.733-2.162c0-0.959,0.247-1.705,0.741-2.234s1.135-0.795,1.923-0.795
		c0.763,0,1.386,0.26,1.869,0.779s0.725,1.25,0.725,2.191c0,0.057-0.002,0.143-0.005,0.258h-4.254
		c0.036,0.626,0.213,1.106,0.532,1.439s0.716,0.5,1.192,0.5c0.354,0,0.657-0.093,0.908-0.279S223.196,42.235,223.343,41.827z
		 M220.169,40.264h3.185c-0.043-0.48-0.165-0.84-0.365-1.08c-0.308-0.373-0.707-0.559-1.198-0.559c-0.444,0-0.817,0.148-1.12,0.446
		C220.369,39.369,220.201,39.766,220.169,40.264z"/>
	<path d="M229.192,45.85v-2.793c-0.15,0.211-0.361,0.387-0.631,0.526c-0.271,0.14-0.558,0.209-0.862,0.209
		c-0.677,0-1.26-0.271-1.748-0.811c-0.489-0.541-0.733-1.282-0.733-2.224c0-0.573,0.1-1.087,0.298-1.542
		c0.199-0.455,0.487-0.799,0.865-1.034c0.377-0.234,0.792-0.352,1.243-0.352c0.706,0,1.26,0.297,1.665,0.892v-0.763h0.87v7.89
		H229.192z M226.211,40.795c0,0.734,0.154,1.285,0.462,1.651c0.308,0.367,0.677,0.551,1.106,0.551c0.412,0,0.766-0.175,1.063-0.523
		c0.297-0.35,0.446-0.88,0.446-1.593c0-0.759-0.157-1.33-0.47-1.713c-0.313-0.383-0.682-0.575-1.104-0.575
		c-0.419,0-0.774,0.178-1.066,0.534C226.357,39.484,226.211,40.04,226.211,40.795z"/>
	<path d="M231.497,44.136l0.94,0.14c0.04,0.29,0.148,0.501,0.328,0.634c0.24,0.179,0.567,0.269,0.983,0.269
		c0.448,0,0.793-0.089,1.037-0.269s0.408-0.43,0.494-0.752c0.05-0.197,0.073-0.61,0.07-1.241c-0.422,0.498-0.949,0.747-1.579,0.747
		c-0.784,0-1.391-0.283-1.821-0.849s-0.645-1.244-0.645-2.036c0-0.544,0.099-1.046,0.295-1.506c0.197-0.46,0.482-0.816,0.857-1.066
		c0.374-0.25,0.813-0.376,1.318-0.376c0.673,0,1.228,0.272,1.665,0.816v-0.688h0.892v4.931c0,0.888-0.09,1.518-0.271,1.888
		c-0.181,0.371-0.467,0.664-0.859,0.878c-0.392,0.215-0.875,0.322-1.447,0.322c-0.68,0-1.23-0.153-1.649-0.459
		C231.685,45.213,231.482,44.752,231.497,44.136z M232.297,40.709c0,0.749,0.148,1.294,0.446,1.638s0.669,0.516,1.117,0.516
		c0.444,0,0.816-0.171,1.117-0.513c0.301-0.342,0.451-0.878,0.451-1.608c0-0.698-0.155-1.225-0.465-1.579
		c-0.31-0.354-0.683-0.532-1.12-0.532c-0.43,0-0.795,0.174-1.096,0.524C232.447,39.503,232.297,40.022,232.297,40.709z"/>
	<path d="M237.781,43.664v-5.704h0.87v0.865c0.222-0.405,0.427-0.671,0.615-0.8c0.188-0.129,0.395-0.193,0.621-0.193
		c0.326,0,0.657,0.104,0.994,0.312l-0.333,0.897c-0.236-0.14-0.473-0.209-0.709-0.209c-0.211,0-0.401,0.063-0.569,0.19
		c-0.168,0.127-0.288,0.304-0.36,0.529c-0.107,0.344-0.161,0.72-0.161,1.128v2.986H237.781z"/>
	<path d="M245.177,42.96c-0.358,0.304-0.703,0.519-1.034,0.645c-0.331,0.125-0.687,0.188-1.066,0.188
		c-0.626,0-1.108-0.153-1.445-0.459c-0.336-0.307-0.505-0.698-0.505-1.174c0-0.279,0.063-0.534,0.19-0.766
		c0.127-0.23,0.294-0.416,0.5-0.556c0.206-0.14,0.438-0.245,0.695-0.317c0.19-0.05,0.476-0.099,0.859-0.145
		c0.781-0.093,1.355-0.204,1.724-0.333c0.003-0.132,0.005-0.217,0.005-0.252c0-0.394-0.091-0.671-0.274-0.833
		c-0.247-0.218-0.614-0.328-1.101-0.328c-0.455,0-0.791,0.08-1.007,0.239c-0.217,0.16-0.377,0.441-0.481,0.846l-0.945-0.129
		c0.086-0.405,0.228-0.731,0.424-0.98c0.197-0.249,0.481-0.44,0.854-0.575c0.373-0.134,0.804-0.201,1.294-0.201
		c0.487,0,0.883,0.057,1.187,0.172s0.528,0.259,0.671,0.433c0.143,0.173,0.244,0.393,0.301,0.658
		c0.032,0.165,0.048,0.462,0.048,0.892v1.289c0,0.899,0.021,1.467,0.062,1.706c0.041,0.238,0.123,0.466,0.244,0.685h-1.01
		C245.27,43.463,245.206,43.229,245.177,42.96z M245.096,40.801c-0.351,0.143-0.877,0.265-1.579,0.365
		c-0.397,0.057-0.679,0.122-0.843,0.193s-0.292,0.176-0.381,0.314c-0.089,0.138-0.134,0.291-0.134,0.459
		c0,0.258,0.098,0.473,0.293,0.645c0.195,0.172,0.48,0.258,0.856,0.258c0.373,0,0.704-0.082,0.994-0.245
		c0.29-0.163,0.503-0.386,0.639-0.668c0.104-0.218,0.156-0.541,0.156-0.967V40.801z"/>
	<path d="M247.186,41.961l0.956-0.15c0.054,0.383,0.203,0.677,0.449,0.881c0.245,0.204,0.588,0.306,1.028,0.306
		c0.444,0,0.773-0.09,0.988-0.271c0.215-0.181,0.322-0.393,0.322-0.636c0-0.218-0.095-0.39-0.285-0.516
		c-0.132-0.086-0.462-0.195-0.988-0.328c-0.709-0.179-1.201-0.334-1.474-0.465c-0.274-0.13-0.482-0.312-0.623-0.542
		c-0.142-0.231-0.212-0.486-0.212-0.766c0-0.254,0.058-0.49,0.174-0.706c0.117-0.217,0.275-0.397,0.476-0.54
		c0.15-0.111,0.355-0.205,0.615-0.282c0.259-0.077,0.538-0.115,0.835-0.115c0.448,0,0.841,0.064,1.179,0.193
		c0.339,0.129,0.588,0.304,0.75,0.523c0.161,0.221,0.272,0.515,0.333,0.884l-0.945,0.129c-0.043-0.293-0.167-0.523-0.374-0.688
		c-0.206-0.165-0.497-0.247-0.873-0.247c-0.444,0-0.761,0.073-0.951,0.22s-0.285,0.319-0.285,0.516c0,0.125,0.04,0.238,0.118,0.338
		c0.079,0.104,0.202,0.19,0.371,0.258c0.097,0.036,0.381,0.118,0.854,0.247c0.684,0.183,1.161,0.332,1.431,0.448
		c0.271,0.117,0.483,0.286,0.637,0.508s0.231,0.498,0.231,0.827c0,0.322-0.094,0.626-0.282,0.91
		c-0.188,0.285-0.459,0.505-0.814,0.661c-0.354,0.155-0.755,0.233-1.203,0.233c-0.741,0-1.306-0.154-1.695-0.462
		C247.541,43.022,247.293,42.566,247.186,41.961z"/>
	<path d="M192.62,49.935l0.521-0.082c0.029,0.209,0.111,0.369,0.245,0.48s0.321,0.167,0.561,0.167c0.242,0,0.422-0.049,0.539-0.148
		s0.176-0.214,0.176-0.347c0-0.119-0.052-0.213-0.155-0.281c-0.072-0.047-0.252-0.106-0.539-0.179
		c-0.387-0.098-0.655-0.182-0.804-0.253s-0.263-0.17-0.34-0.296s-0.116-0.265-0.116-0.417c0-0.139,0.032-0.267,0.095-0.385
		s0.15-0.216,0.259-0.294c0.082-0.061,0.194-0.112,0.335-0.154s0.293-0.063,0.456-0.063c0.244,0,0.458,0.035,0.643,0.105
		s0.321,0.166,0.409,0.286s0.148,0.281,0.182,0.482l-0.516,0.07c-0.023-0.16-0.091-0.285-0.204-0.375s-0.271-0.135-0.476-0.135
		c-0.242,0-0.415,0.04-0.519,0.12s-0.155,0.174-0.155,0.281c0,0.068,0.021,0.13,0.064,0.185c0.043,0.057,0.11,0.104,0.202,0.141
		c0.053,0.02,0.208,0.064,0.466,0.135c0.373,0.1,0.633,0.181,0.781,0.245s0.263,0.156,0.347,0.277s0.126,0.271,0.126,0.451
		c0,0.176-0.051,0.341-0.154,0.497s-0.25,0.275-0.444,0.36s-0.412,0.127-0.656,0.127c-0.404,0-0.712-0.084-0.924-0.252
		S192.679,50.265,192.62,49.935z"/>
	<path d="M197.961,49.862l0.545,0.067c-0.086,0.318-0.245,0.565-0.478,0.741s-0.529,0.264-0.891,0.264
		c-0.455,0-0.816-0.14-1.083-0.42s-0.4-0.673-0.4-1.179c0-0.523,0.135-0.93,0.404-1.219s0.619-0.434,1.049-0.434
		c0.416,0,0.756,0.142,1.02,0.425s0.396,0.682,0.396,1.195c0,0.031-0.001,0.078-0.003,0.141h-2.32
		c0.02,0.342,0.116,0.604,0.29,0.785s0.391,0.272,0.65,0.272c0.193,0,0.358-0.051,0.495-0.152S197.881,50.084,197.961,49.862z
		 M196.229,49.009h1.737c-0.023-0.262-0.09-0.458-0.199-0.589c-0.168-0.203-0.386-0.305-0.653-0.305
		c-0.242,0-0.446,0.081-0.611,0.243S196.247,48.738,196.229,49.009z"/>
	<path d="M201.151,52.056v-1.523c-0.082,0.115-0.197,0.211-0.344,0.287s-0.304,0.114-0.47,0.114c-0.369,0-0.687-0.147-0.954-0.442
		s-0.4-0.699-0.4-1.213c0-0.312,0.054-0.593,0.163-0.841s0.266-0.436,0.472-0.564s0.432-0.192,0.678-0.192
		c0.385,0,0.688,0.162,0.908,0.486v-0.416h0.475v4.304H201.151z M199.525,49.299c0,0.4,0.084,0.701,0.252,0.901s0.369,0.3,0.604,0.3
		c0.225,0,0.418-0.095,0.58-0.286s0.243-0.48,0.243-0.869c0-0.414-0.085-0.726-0.256-0.935s-0.372-0.313-0.602-0.313
		c-0.229,0-0.422,0.097-0.582,0.292S199.525,48.887,199.525,49.299z"/>
	<path d="M202.408,51.122l0.513,0.076c0.021,0.158,0.081,0.273,0.179,0.346c0.131,0.098,0.31,0.146,0.536,0.146
		c0.244,0,0.433-0.049,0.565-0.146s0.223-0.234,0.27-0.41c0.027-0.107,0.04-0.333,0.038-0.677c-0.23,0.271-0.518,0.407-0.861,0.407
		c-0.428,0-0.759-0.154-0.993-0.463s-0.352-0.679-0.352-1.11c0-0.297,0.054-0.571,0.161-0.822s0.263-0.445,0.467-0.582
		s0.444-0.205,0.719-0.205c0.367,0,0.67,0.148,0.908,0.445v-0.375h0.486v2.689c0,0.484-0.049,0.828-0.148,1.03
		s-0.255,0.362-0.469,0.479s-0.477,0.176-0.79,0.176c-0.371,0-0.671-0.083-0.899-0.25S202.4,51.458,202.408,51.122z M202.845,49.252
		c0,0.408,0.081,0.706,0.243,0.894s0.365,0.281,0.609,0.281c0.242,0,0.445-0.093,0.609-0.28s0.246-0.479,0.246-0.877
		c0-0.381-0.084-0.668-0.253-0.861s-0.373-0.29-0.611-0.29c-0.234,0-0.434,0.095-0.598,0.286S202.845,48.877,202.845,49.252z"/>
	<path d="M205.836,50.864v-3.111h0.475v0.472c0.121-0.221,0.233-0.366,0.335-0.437s0.215-0.105,0.338-0.105
		c0.178,0,0.358,0.057,0.542,0.17l-0.182,0.489c-0.129-0.076-0.258-0.114-0.387-0.114c-0.115,0-0.219,0.035-0.311,0.104
		s-0.157,0.166-0.196,0.289c-0.059,0.188-0.088,0.393-0.088,0.615v1.629H205.836z"/>
	<path d="M209.87,50.48c-0.195,0.166-0.383,0.283-0.564,0.352s-0.375,0.103-0.582,0.103c-0.342,0-0.604-0.083-0.788-0.25
		s-0.275-0.38-0.275-0.64c0-0.152,0.035-0.292,0.104-0.417s0.16-0.227,0.272-0.303s0.239-0.134,0.379-0.173
		c0.104-0.027,0.26-0.054,0.469-0.079c0.426-0.051,0.739-0.111,0.94-0.182c0.002-0.072,0.003-0.118,0.003-0.138
		c0-0.215-0.05-0.366-0.149-0.454c-0.135-0.119-0.335-0.179-0.601-0.179c-0.248,0-0.431,0.043-0.549,0.13s-0.206,0.241-0.262,0.461
		l-0.516-0.07c0.047-0.221,0.124-0.399,0.231-0.535s0.263-0.24,0.466-0.313s0.438-0.11,0.706-0.11c0.266,0,0.481,0.031,0.647,0.094
		s0.288,0.141,0.366,0.236s0.133,0.214,0.164,0.359c0.018,0.09,0.026,0.252,0.026,0.486v0.703c0,0.49,0.011,0.8,0.034,0.93
		s0.067,0.254,0.133,0.374h-0.551C209.921,50.754,209.886,50.626,209.87,50.48z M209.826,49.302
		c-0.191,0.078-0.479,0.145-0.861,0.199c-0.217,0.031-0.37,0.066-0.46,0.105s-0.159,0.096-0.208,0.171s-0.073,0.159-0.073,0.25
		c0,0.141,0.053,0.258,0.16,0.352s0.262,0.141,0.467,0.141c0.203,0,0.384-0.044,0.542-0.133s0.274-0.21,0.349-0.365
		c0.057-0.119,0.085-0.295,0.085-0.527V49.302z"/>
	<path d="M212.633,49.935l0.521-0.082c0.029,0.209,0.111,0.369,0.245,0.48s0.321,0.167,0.561,0.167c0.242,0,0.422-0.049,0.539-0.148
		s0.176-0.214,0.176-0.347c0-0.119-0.052-0.213-0.155-0.281c-0.072-0.047-0.252-0.106-0.539-0.179
		c-0.387-0.098-0.655-0.182-0.804-0.253s-0.263-0.17-0.34-0.296s-0.116-0.265-0.116-0.417c0-0.139,0.032-0.267,0.095-0.385
		s0.15-0.216,0.259-0.294c0.082-0.061,0.194-0.112,0.335-0.154s0.293-0.063,0.456-0.063c0.244,0,0.458,0.035,0.643,0.105
		s0.321,0.166,0.409,0.286s0.148,0.281,0.182,0.482l-0.516,0.07c-0.023-0.16-0.091-0.285-0.204-0.375s-0.271-0.135-0.476-0.135
		c-0.242,0-0.415,0.04-0.519,0.12s-0.155,0.174-0.155,0.281c0,0.068,0.021,0.13,0.064,0.185c0.043,0.057,0.11,0.104,0.202,0.141
		c0.053,0.02,0.208,0.064,0.466,0.135c0.373,0.1,0.633,0.181,0.781,0.245s0.263,0.156,0.347,0.277s0.126,0.271,0.126,0.451
		c0,0.176-0.051,0.341-0.154,0.497s-0.25,0.275-0.444,0.36s-0.412,0.127-0.656,0.127c-0.404,0-0.712-0.084-0.924-0.252
		S212.691,50.265,212.633,49.935z"/>
	<path d="M217.883,50.864v-0.457c-0.242,0.352-0.571,0.527-0.987,0.527c-0.184,0-0.355-0.035-0.514-0.105s-0.277-0.159-0.354-0.265
		s-0.131-0.237-0.163-0.391c-0.021-0.104-0.032-0.268-0.032-0.492v-1.928h0.527v1.726c0,0.275,0.011,0.461,0.032,0.557
		c0.033,0.139,0.104,0.248,0.211,0.327s0.24,0.119,0.398,0.119s0.307-0.041,0.445-0.122s0.237-0.191,0.294-0.331
		s0.086-0.342,0.086-0.608v-1.667h0.527v3.111H217.883z"/>
	<path d="M219.181,50.864v-3.111h0.472v0.437c0.098-0.152,0.228-0.275,0.39-0.368s0.347-0.139,0.554-0.139
		c0.23,0,0.419,0.048,0.567,0.144s0.251,0.229,0.312,0.401c0.246-0.363,0.566-0.545,0.961-0.545c0.309,0,0.546,0.085,0.712,0.256
		s0.249,0.434,0.249,0.79v2.136h-0.524v-1.96c0-0.211-0.017-0.363-0.051-0.456s-0.096-0.167-0.186-0.224s-0.195-0.085-0.316-0.085
		c-0.219,0-0.4,0.073-0.545,0.218s-0.217,0.378-0.217,0.699v1.808h-0.527v-2.021c0-0.234-0.043-0.41-0.129-0.527
		s-0.227-0.176-0.422-0.176c-0.148,0-0.286,0.039-0.412,0.117s-0.217,0.192-0.274,0.343s-0.085,0.367-0.085,0.65v1.614H219.181z"/>
	<path d="M224.179,50.864v-3.111h0.472v0.437c0.098-0.152,0.228-0.275,0.39-0.368s0.347-0.139,0.554-0.139
		c0.23,0,0.419,0.048,0.567,0.144s0.251,0.229,0.312,0.401c0.246-0.363,0.566-0.545,0.961-0.545c0.309,0,0.546,0.085,0.712,0.256
		s0.249,0.434,0.249,0.79v2.136h-0.524v-1.96c0-0.211-0.017-0.363-0.051-0.456s-0.096-0.167-0.186-0.224s-0.195-0.085-0.316-0.085
		c-0.219,0-0.4,0.073-0.545,0.218s-0.217,0.378-0.217,0.699v1.808h-0.527v-2.021c0-0.234-0.043-0.41-0.129-0.527
		s-0.227-0.176-0.422-0.176c-0.148,0-0.286,0.039-0.412,0.117s-0.217,0.192-0.274,0.343s-0.085,0.367-0.085,0.65v1.614H224.179z"/>
	<path d="M231.207,50.48c-0.195,0.166-0.383,0.283-0.564,0.352s-0.375,0.103-0.582,0.103c-0.342,0-0.604-0.083-0.788-0.25
		s-0.275-0.38-0.275-0.64c0-0.152,0.035-0.292,0.104-0.417s0.16-0.227,0.272-0.303s0.239-0.134,0.379-0.173
		c0.104-0.027,0.26-0.054,0.469-0.079c0.426-0.051,0.739-0.111,0.94-0.182c0.002-0.072,0.003-0.118,0.003-0.138
		c0-0.215-0.05-0.366-0.149-0.454c-0.135-0.119-0.335-0.179-0.601-0.179c-0.248,0-0.431,0.043-0.549,0.13s-0.206,0.241-0.262,0.461
		l-0.516-0.07c0.047-0.221,0.124-0.399,0.231-0.535s0.263-0.24,0.466-0.313s0.438-0.11,0.706-0.11c0.266,0,0.481,0.031,0.647,0.094
		s0.288,0.141,0.366,0.236s0.133,0.214,0.164,0.359c0.018,0.09,0.026,0.252,0.026,0.486v0.703c0,0.49,0.011,0.8,0.034,0.93
		s0.067,0.254,0.133,0.374h-0.551C231.258,50.754,231.223,50.626,231.207,50.48z M231.163,49.302
		c-0.191,0.078-0.479,0.145-0.861,0.199c-0.217,0.031-0.37,0.066-0.46,0.105s-0.159,0.096-0.208,0.171s-0.073,0.159-0.073,0.25
		c0,0.141,0.053,0.258,0.16,0.352s0.262,0.141,0.467,0.141c0.203,0,0.384-0.044,0.542-0.133s0.274-0.21,0.349-0.365
		c0.057-0.119,0.085-0.295,0.085-0.527V49.302z"/>
	<path d="M232.508,50.864v-3.111h0.475v0.472c0.121-0.221,0.233-0.366,0.335-0.437s0.215-0.105,0.338-0.105
		c0.178,0,0.358,0.057,0.542,0.17l-0.182,0.489c-0.129-0.076-0.258-0.114-0.387-0.114c-0.115,0-0.219,0.035-0.311,0.104
		s-0.157,0.166-0.196,0.289c-0.059,0.188-0.088,0.393-0.088,0.615v1.629H232.508z"/>
	<path d="M234.488,52.062l-0.059-0.495c0.115,0.031,0.216,0.047,0.302,0.047c0.117,0,0.211-0.02,0.281-0.059
		s0.128-0.094,0.173-0.164c0.033-0.053,0.087-0.184,0.161-0.393c0.01-0.029,0.025-0.072,0.047-0.129l-1.181-3.117h0.568l0.647,1.802
		c0.084,0.229,0.159,0.469,0.226,0.721c0.061-0.242,0.133-0.479,0.217-0.709l0.665-1.813h0.527l-1.184,3.164
		c-0.127,0.342-0.226,0.577-0.296,0.706c-0.094,0.174-0.201,0.301-0.322,0.382s-0.266,0.122-0.434,0.122
		C234.727,52.126,234.613,52.105,234.488,52.062z"/>
	<path d="M240.187,52.126c-0.291-0.367-0.537-0.797-0.738-1.289s-0.302-1.002-0.302-1.529c0-0.465,0.075-0.91,0.226-1.336
		c0.176-0.494,0.447-0.986,0.814-1.477h0.378c-0.236,0.406-0.393,0.696-0.469,0.87c-0.119,0.27-0.213,0.551-0.281,0.844
		c-0.084,0.365-0.126,0.732-0.126,1.102c0,0.939,0.292,1.878,0.876,2.815H240.187z"/>
	<path d="M243.207,49.724l0.519,0.067c-0.057,0.357-0.202,0.637-0.435,0.839s-0.52,0.303-0.86,0.303
		c-0.426,0-0.768-0.139-1.027-0.417s-0.388-0.677-0.388-1.197c0-0.336,0.056-0.63,0.167-0.882s0.281-0.441,0.508-0.567
		s0.475-0.189,0.743-0.189c0.338,0,0.614,0.085,0.829,0.256s0.353,0.414,0.413,0.728l-0.513,0.079
		c-0.049-0.209-0.135-0.366-0.259-0.472s-0.274-0.158-0.45-0.158c-0.266,0-0.481,0.095-0.647,0.286s-0.249,0.492-0.249,0.904
		c0,0.418,0.08,0.722,0.24,0.911s0.369,0.284,0.627,0.284c0.207,0,0.38-0.063,0.519-0.19S243.17,49.988,243.207,49.724z"/>
	<path d="M243.98,49.308c0-0.576,0.16-1.003,0.48-1.28c0.268-0.23,0.594-0.346,0.979-0.346c0.428,0,0.777,0.14,1.049,0.42
		s0.407,0.667,0.407,1.162c0,0.4-0.06,0.715-0.18,0.945s-0.295,0.408-0.524,0.535s-0.48,0.19-0.751,0.19
		c-0.436,0-0.788-0.14-1.056-0.419S243.98,49.833,243.98,49.308z M244.522,49.308c0,0.398,0.087,0.697,0.261,0.895
		s0.393,0.297,0.656,0.297c0.262,0,0.479-0.1,0.653-0.299s0.261-0.503,0.261-0.911c0-0.385-0.087-0.676-0.262-0.875
		s-0.392-0.297-0.652-0.297c-0.264,0-0.482,0.099-0.656,0.296S244.522,48.91,244.522,49.308z"/>
	<path d="M247.514,50.864v-3.111h0.472v0.437c0.098-0.152,0.228-0.275,0.39-0.368s0.347-0.139,0.554-0.139
		c0.23,0,0.419,0.048,0.567,0.144s0.251,0.229,0.312,0.401c0.246-0.363,0.566-0.545,0.961-0.545c0.309,0,0.546,0.085,0.712,0.256
		s0.249,0.434,0.249,0.79v2.136h-0.524v-1.96c0-0.211-0.017-0.363-0.051-0.456s-0.096-0.167-0.186-0.224s-0.195-0.085-0.316-0.085
		c-0.219,0-0.4,0.073-0.545,0.218s-0.217,0.378-0.217,0.699v1.808h-0.527v-2.021c0-0.234-0.043-0.41-0.129-0.527
		s-0.227-0.176-0.422-0.176c-0.148,0-0.286,0.039-0.412,0.117s-0.217,0.192-0.274,0.343s-0.085,0.367-0.085,0.65v1.614H247.514z"/>
	<path d="M252.512,52.056v-4.304h0.48v0.404c0.113-0.158,0.241-0.277,0.384-0.356s0.315-0.119,0.519-0.119
		c0.266,0,0.5,0.068,0.703,0.205s0.356,0.33,0.46,0.579s0.155,0.522,0.155,0.819c0,0.318-0.057,0.605-0.171,0.86
		s-0.28,0.45-0.498,0.586s-0.447,0.204-0.687,0.204c-0.176,0-0.333-0.037-0.473-0.111s-0.254-0.168-0.344-0.281v1.515H252.512z
		 M252.989,49.326c0,0.4,0.081,0.696,0.243,0.888s0.358,0.287,0.589,0.287c0.234,0,0.435-0.099,0.602-0.297s0.25-0.505,0.25-0.921
		c0-0.396-0.082-0.693-0.245-0.891s-0.358-0.296-0.584-0.296c-0.225,0-0.423,0.105-0.596,0.315S252.989,48.925,252.989,49.326z"/>
	<path d="M257.879,50.48c-0.195,0.166-0.383,0.283-0.564,0.352s-0.375,0.103-0.582,0.103c-0.342,0-0.604-0.083-0.788-0.25
		s-0.275-0.38-0.275-0.64c0-0.152,0.035-0.292,0.104-0.417s0.16-0.227,0.272-0.303s0.239-0.134,0.379-0.173
		c0.104-0.027,0.26-0.054,0.469-0.079c0.426-0.051,0.739-0.111,0.94-0.182c0.002-0.072,0.003-0.118,0.003-0.138
		c0-0.215-0.05-0.366-0.149-0.454c-0.135-0.119-0.335-0.179-0.601-0.179c-0.248,0-0.431,0.043-0.549,0.13s-0.206,0.241-0.262,0.461
		l-0.516-0.07c0.047-0.221,0.124-0.399,0.231-0.535s0.263-0.24,0.466-0.313s0.438-0.11,0.706-0.11c0.266,0,0.481,0.031,0.647,0.094
		s0.288,0.141,0.366,0.236s0.133,0.214,0.164,0.359c0.018,0.09,0.026,0.252,0.026,0.486v0.703c0,0.49,0.011,0.8,0.034,0.93
		s0.067,0.254,0.133,0.374h-0.551C257.93,50.754,257.895,50.626,257.879,50.48z M257.835,49.302
		c-0.191,0.078-0.479,0.145-0.861,0.199c-0.217,0.031-0.37,0.066-0.46,0.105s-0.159,0.096-0.208,0.171s-0.073,0.159-0.073,0.25
		c0,0.141,0.053,0.258,0.16,0.352s0.262,0.141,0.467,0.141c0.203,0,0.384-0.044,0.542-0.133s0.274-0.21,0.349-0.365
		c0.057-0.119,0.085-0.295,0.085-0.527V49.302z"/>
	<path d="M259.18,50.864v-3.111h0.475v0.472c0.121-0.221,0.233-0.366,0.335-0.437s0.215-0.105,0.338-0.105
		c0.178,0,0.358,0.057,0.542,0.17l-0.182,0.489c-0.129-0.076-0.258-0.114-0.387-0.114c-0.115,0-0.219,0.035-0.311,0.104
		s-0.157,0.166-0.196,0.289c-0.059,0.188-0.088,0.393-0.088,0.615v1.629H259.18z"/>
	<path d="M263.214,50.48c-0.195,0.166-0.383,0.283-0.564,0.352s-0.375,0.103-0.582,0.103c-0.342,0-0.604-0.083-0.788-0.25
		s-0.275-0.38-0.275-0.64c0-0.152,0.035-0.292,0.104-0.417s0.16-0.227,0.272-0.303s0.239-0.134,0.379-0.173
		c0.104-0.027,0.26-0.054,0.469-0.079c0.426-0.051,0.739-0.111,0.94-0.182c0.002-0.072,0.003-0.118,0.003-0.138
		c0-0.215-0.05-0.366-0.149-0.454c-0.135-0.119-0.335-0.179-0.601-0.179c-0.248,0-0.431,0.043-0.549,0.13s-0.206,0.241-0.262,0.461
		l-0.516-0.07c0.047-0.221,0.124-0.399,0.231-0.535s0.263-0.24,0.466-0.313s0.438-0.11,0.706-0.11c0.266,0,0.481,0.031,0.647,0.094
		s0.288,0.141,0.366,0.236s0.133,0.214,0.164,0.359c0.018,0.09,0.026,0.252,0.026,0.486v0.703c0,0.49,0.011,0.8,0.034,0.93
		s0.067,0.254,0.133,0.374h-0.551C263.265,50.754,263.229,50.626,263.214,50.48z M263.17,49.302
		c-0.191,0.078-0.479,0.145-0.861,0.199c-0.217,0.031-0.37,0.066-0.46,0.105s-0.159,0.096-0.208,0.171s-0.073,0.159-0.073,0.25
		c0,0.141,0.053,0.258,0.16,0.352s0.262,0.141,0.467,0.141c0.203,0,0.384-0.044,0.542-0.133s0.274-0.21,0.349-0.365
		c0.057-0.119,0.085-0.295,0.085-0.527V49.302z"/>
	<path d="M265.672,50.392l0.076,0.466c-0.148,0.031-0.281,0.047-0.398,0.047c-0.191,0-0.34-0.03-0.445-0.091s-0.18-0.14-0.223-0.239
		s-0.064-0.306-0.064-0.623v-1.79h-0.387v-0.41h0.387v-0.771l0.524-0.316v1.087h0.53v0.41h-0.53v1.819
		c0,0.15,0.009,0.247,0.028,0.29s0.049,0.077,0.091,0.103s0.102,0.038,0.18,0.038C265.499,50.413,265.576,50.406,265.672,50.392z"/>
	<path d="M265.991,49.308c0-0.576,0.16-1.003,0.48-1.28c0.268-0.23,0.594-0.346,0.979-0.346c0.428,0,0.777,0.14,1.049,0.42
		s0.407,0.667,0.407,1.162c0,0.4-0.06,0.715-0.18,0.945s-0.295,0.408-0.524,0.535s-0.48,0.19-0.751,0.19
		c-0.436,0-0.788-0.14-1.056-0.419S265.991,49.833,265.991,49.308z M266.533,49.308c0,0.398,0.087,0.697,0.261,0.895
		s0.393,0.297,0.656,0.297c0.262,0,0.479-0.1,0.653-0.299s0.261-0.503,0.261-0.911c0-0.385-0.087-0.676-0.262-0.875
		s-0.392-0.297-0.652-0.297c-0.264,0-0.482,0.099-0.656,0.296S266.533,48.91,266.533,49.308z"/>
	<path d="M269.519,50.864v-3.111h0.475v0.472c0.121-0.221,0.233-0.366,0.335-0.437s0.215-0.105,0.338-0.105
		c0.178,0,0.358,0.057,0.542,0.17l-0.182,0.489c-0.129-0.076-0.258-0.114-0.387-0.114c-0.115,0-0.219,0.035-0.311,0.104
		s-0.157,0.166-0.196,0.289c-0.059,0.188-0.088,0.393-0.088,0.615v1.629H269.519z"/>
	<path d="M271.868,52.126h-0.378c0.584-0.938,0.876-1.876,0.876-2.815c0-0.367-0.042-0.731-0.126-1.093
		c-0.066-0.293-0.159-0.574-0.278-0.844c-0.076-0.176-0.233-0.469-0.472-0.879h0.378c0.367,0.49,0.639,0.982,0.814,1.477
		c0.15,0.426,0.226,0.871,0.226,1.336c0,0.527-0.101,1.037-0.303,1.529S272.157,51.759,271.868,52.126z"/>
</g>
<path class="st7" d="M30.331,54H14.669C11.551,54,9,51.449,9,48.331V32.669C9,29.551,11.551,27,14.669,27h15.661
	C33.449,27,36,29.551,36,32.669v15.661C36,51.449,33.449,54,30.331,54z"/>
<path class="st7" d="M345.331,54h-15.661c-3.118,0-5.669-2.551-5.669-5.669V32.669c0-3.118,2.551-5.669,5.669-5.669h15.661
	c3.118,0,5.669,2.551,5.669,5.669v15.661C351,51.449,348.449,54,345.331,54z"/>
<path class="st2" d="M339.166,45h-3.331c-1.559,0-2.835-1.276-2.835-2.835v-3.331c0-1.559,1.276-2.835,2.835-2.835h3.331
	c1.559,0,2.835,1.276,2.835,2.835v3.331C342,43.724,340.725,45,339.166,45z"/>
<g>
	<path d="M468.398,36.344l0.684,0.102c0.029,0.211,0.108,0.365,0.238,0.461c0.174,0.13,0.413,0.195,0.715,0.195
		c0.326,0,0.577-0.065,0.754-0.195s0.297-0.312,0.359-0.547c0.037-0.143,0.053-0.444,0.051-0.902
		c-0.307,0.362-0.69,0.543-1.148,0.543c-0.57,0-1.012-0.206-1.324-0.617s-0.469-0.905-0.469-1.48c0-0.396,0.072-0.761,0.215-1.096
		s0.351-0.593,0.623-0.775s0.592-0.273,0.959-0.273c0.49,0,0.893,0.198,1.211,0.594v-0.5h0.648v3.586
		c0,0.646-0.066,1.104-0.197,1.373s-0.34,0.482-0.625,0.639s-0.636,0.234-1.053,0.234c-0.495,0-0.895-0.111-1.199-0.334
		S468.388,36.792,468.398,36.344z M468.98,33.852c0,0.544,0.108,0.941,0.324,1.191s0.487,0.375,0.812,0.375
		c0.323,0,0.594-0.125,0.812-0.373s0.328-0.639,0.328-1.17c0-0.508-0.113-0.891-0.338-1.148s-0.497-0.387-0.814-0.387
		c-0.312,0-0.578,0.127-0.797,0.381S468.98,33.352,468.98,33.852z"/>
	<path d="M475.684,35.488c-0.26,0.221-0.511,0.377-0.752,0.469s-0.5,0.137-0.775,0.137c-0.456,0-0.806-0.111-1.051-0.334
		s-0.367-0.507-0.367-0.854c0-0.203,0.046-0.389,0.139-0.557s0.213-0.303,0.363-0.404s0.318-0.178,0.506-0.23
		c0.138-0.037,0.346-0.072,0.625-0.105c0.568-0.068,0.986-0.148,1.254-0.242c0.002-0.096,0.004-0.158,0.004-0.184
		c0-0.287-0.066-0.488-0.199-0.605c-0.18-0.159-0.447-0.238-0.801-0.238c-0.331,0-0.575,0.058-0.732,0.174s-0.274,0.321-0.35,0.615
		l-0.688-0.094c0.062-0.294,0.166-0.532,0.309-0.713s0.35-0.32,0.621-0.418s0.584-0.146,0.941-0.146
		c0.354,0,0.642,0.042,0.863,0.125s0.384,0.188,0.488,0.314s0.177,0.286,0.219,0.479c0.023,0.12,0.035,0.336,0.035,0.648v0.938
		c0,0.654,0.015,1.067,0.045,1.24s0.089,0.339,0.178,0.498h-0.734C475.751,35.854,475.705,35.684,475.684,35.488z M475.625,33.918
		c-0.255,0.104-0.638,0.193-1.148,0.266c-0.289,0.042-0.494,0.088-0.613,0.141s-0.212,0.128-0.277,0.229s-0.098,0.211-0.098,0.334
		c0,0.188,0.071,0.344,0.213,0.469s0.35,0.188,0.623,0.188c0.271,0,0.512-0.059,0.723-0.178s0.366-0.281,0.465-0.486
		c0.076-0.159,0.113-0.393,0.113-0.703V33.918z"/>
	<path d="M478.961,35.371l0.102,0.621c-0.198,0.042-0.375,0.062-0.531,0.062c-0.255,0-0.453-0.041-0.594-0.121
		s-0.24-0.187-0.297-0.318s-0.086-0.408-0.086-0.83v-2.387h-0.516v-0.547h0.516v-1.027l0.699-0.422v1.449h0.707v0.547h-0.707v2.426
		c0,0.201,0.012,0.33,0.037,0.387s0.065,0.103,0.121,0.137s0.136,0.051,0.24,0.051C478.73,35.398,478.833,35.389,478.961,35.371z"/>
	<path d="M479.648,36v-5.727h0.703v2.055c0.328-0.38,0.742-0.57,1.242-0.57c0.307,0,0.574,0.061,0.801,0.182
		s0.389,0.289,0.486,0.502s0.146,0.523,0.146,0.93V36h-0.703v-2.629c0-0.352-0.076-0.607-0.229-0.768s-0.368-0.24-0.646-0.24
		c-0.208,0-0.404,0.054-0.588,0.162s-0.314,0.254-0.393,0.439s-0.117,0.44-0.117,0.766V36H479.648z"/>
	<path d="M486.938,34.664l0.727,0.09c-0.115,0.424-0.327,0.754-0.637,0.988s-0.706,0.352-1.188,0.352
		c-0.607,0-1.088-0.187-1.443-0.561s-0.533-0.898-0.533-1.572c0-0.698,0.18-1.24,0.539-1.625s0.826-0.578,1.398-0.578
		c0.555,0,1.008,0.189,1.359,0.566s0.527,0.909,0.527,1.594c0,0.042-0.001,0.104-0.004,0.188h-3.094
		c0.026,0.456,0.155,0.805,0.387,1.047s0.521,0.363,0.867,0.363c0.258,0,0.478-0.068,0.66-0.203S486.831,34.961,486.938,34.664z
		 M484.629,33.527h2.316c-0.031-0.349-0.12-0.611-0.266-0.785c-0.224-0.271-0.514-0.406-0.871-0.406
		c-0.323,0-0.594,0.108-0.814,0.324S484.652,33.166,484.629,33.527z"/>
	<path d="M488.539,36v-4.148h0.633v0.629c0.162-0.294,0.311-0.488,0.447-0.582s0.287-0.141,0.451-0.141
		c0.237,0,0.478,0.076,0.723,0.227l-0.242,0.652c-0.172-0.102-0.344-0.152-0.516-0.152c-0.154,0-0.292,0.046-0.414,0.139
		s-0.209,0.221-0.262,0.385c-0.078,0.25-0.117,0.523-0.117,0.82V36H488.539z"/>
	<path d="M493.434,37.59v-5.738h0.641v0.539c0.151-0.211,0.322-0.369,0.512-0.475s0.42-0.158,0.691-0.158
		c0.354,0,0.667,0.091,0.938,0.273s0.475,0.439,0.613,0.771s0.207,0.696,0.207,1.092c0,0.424-0.076,0.807-0.229,1.146
		s-0.374,0.6-0.664,0.781s-0.596,0.271-0.916,0.271c-0.234,0-0.445-0.049-0.631-0.148s-0.339-0.224-0.459-0.375v2.02H493.434z
		 M494.07,33.949c0,0.534,0.108,0.928,0.324,1.184s0.478,0.383,0.785,0.383c0.312,0,0.58-0.132,0.803-0.396s0.334-0.674,0.334-1.229
		c0-0.529-0.109-0.924-0.326-1.188s-0.477-0.395-0.779-0.395c-0.299,0-0.564,0.14-0.795,0.42S494.07,33.416,494.07,33.949z"/>
	<path d="M497.875,36v-4.148h0.633v0.629c0.162-0.294,0.311-0.488,0.447-0.582s0.287-0.141,0.451-0.141
		c0.237,0,0.478,0.076,0.723,0.227l-0.242,0.652c-0.172-0.102-0.344-0.152-0.516-0.152c-0.154,0-0.292,0.046-0.414,0.139
		s-0.209,0.221-0.262,0.385c-0.078,0.25-0.117,0.523-0.117,0.82V36H497.875z"/>
	<path d="M500.285,33.926c0-0.768,0.213-1.337,0.641-1.707c0.357-0.307,0.792-0.461,1.305-0.461c0.57,0,1.037,0.187,1.398,0.561
		s0.543,0.89,0.543,1.549c0,0.534-0.08,0.954-0.24,1.26s-0.393,0.543-0.699,0.713s-0.64,0.254-1.002,0.254
		c-0.581,0-1.05-0.186-1.408-0.559S500.285,34.626,500.285,33.926z M501.008,33.926c0,0.531,0.116,0.929,0.348,1.193
		s0.523,0.396,0.875,0.396c0.349,0,0.639-0.133,0.871-0.398s0.348-0.67,0.348-1.215c0-0.513-0.117-0.902-0.35-1.166
		s-0.523-0.396-0.869-0.396c-0.352,0-0.643,0.131-0.875,0.395S501.008,33.395,501.008,33.926z"/>
	<path d="M504.996,37.59v-5.738h0.641v0.539c0.151-0.211,0.322-0.369,0.512-0.475s0.42-0.158,0.691-0.158
		c0.354,0,0.667,0.091,0.938,0.273s0.475,0.439,0.613,0.771s0.207,0.696,0.207,1.092c0,0.424-0.076,0.807-0.229,1.146
		s-0.374,0.6-0.664,0.781s-0.596,0.271-0.916,0.271c-0.234,0-0.445-0.049-0.631-0.148s-0.339-0.224-0.459-0.375v2.02H504.996z
		 M505.633,33.949c0,0.534,0.108,0.928,0.324,1.184s0.478,0.383,0.785,0.383c0.312,0,0.58-0.132,0.803-0.396
		s0.334-0.674,0.334-1.229c0-0.529-0.109-0.924-0.326-1.188s-0.477-0.395-0.779-0.395c-0.299,0-0.564,0.14-0.795,0.42
		S505.633,33.416,505.633,33.949z"/>
	<path d="M512.285,34.664l0.727,0.09c-0.115,0.424-0.327,0.754-0.637,0.988s-0.706,0.352-1.188,0.352
		c-0.607,0-1.088-0.187-1.443-0.561s-0.533-0.898-0.533-1.572c0-0.698,0.18-1.24,0.539-1.625s0.826-0.578,1.398-0.578
		c0.555,0,1.008,0.189,1.359,0.566s0.527,0.909,0.527,1.594c0,0.042-0.001,0.104-0.004,0.188h-3.094
		c0.026,0.456,0.155,0.805,0.387,1.047s0.521,0.363,0.867,0.363c0.258,0,0.478-0.068,0.66-0.203S512.178,34.961,512.285,34.664z
		 M509.977,33.527h2.316c-0.031-0.349-0.12-0.611-0.266-0.785c-0.224-0.271-0.514-0.406-0.871-0.406
		c-0.323,0-0.594,0.108-0.814,0.324S510,33.166,509.977,33.527z"/>
	<path d="M513.887,36v-4.148h0.633v0.629c0.162-0.294,0.311-0.488,0.447-0.582s0.287-0.141,0.451-0.141
		c0.237,0,0.478,0.076,0.723,0.227l-0.242,0.652c-0.172-0.102-0.344-0.152-0.516-0.152c-0.154,0-0.292,0.046-0.414,0.139
		s-0.209,0.221-0.262,0.385c-0.078,0.25-0.117,0.523-0.117,0.82V36H513.887z"/>
	<path d="M518.094,35.371l0.102,0.621c-0.198,0.042-0.375,0.062-0.531,0.062c-0.255,0-0.453-0.041-0.594-0.121
		s-0.24-0.187-0.297-0.318s-0.086-0.408-0.086-0.83v-2.387h-0.516v-0.547h0.516v-1.027l0.699-0.422v1.449h0.707v0.547h-0.707v2.426
		c0,0.201,0.012,0.33,0.037,0.387s0.065,0.103,0.121,0.137s0.136,0.051,0.24,0.051C517.863,35.398,517.966,35.389,518.094,35.371z"
		/>
	<path d="M518.785,31.082v-0.809h0.703v0.809H518.785z M518.785,36v-4.148h0.703V36H518.785z"/>
	<path d="M523.398,34.664l0.727,0.09c-0.115,0.424-0.327,0.754-0.637,0.988s-0.706,0.352-1.188,0.352
		c-0.607,0-1.088-0.187-1.443-0.561s-0.533-0.898-0.533-1.572c0-0.698,0.18-1.24,0.539-1.625s0.826-0.578,1.398-0.578
		c0.555,0,1.008,0.189,1.359,0.566s0.527,0.909,0.527,1.594c0,0.042-0.001,0.104-0.004,0.188h-3.094
		c0.026,0.456,0.155,0.805,0.387,1.047s0.521,0.363,0.867,0.363c0.258,0,0.478-0.068,0.66-0.203S523.292,34.961,523.398,34.664z
		 M521.09,33.527h2.316c-0.031-0.349-0.12-0.611-0.266-0.785c-0.224-0.271-0.514-0.406-0.871-0.406
		c-0.323,0-0.594,0.108-0.814,0.324S521.113,33.166,521.09,33.527z"/>
	<path d="M524.727,34.762l0.695-0.109c0.039,0.279,0.148,0.492,0.326,0.641s0.428,0.223,0.748,0.223
		c0.323,0,0.562-0.066,0.719-0.197s0.234-0.286,0.234-0.463c0-0.159-0.069-0.284-0.207-0.375c-0.096-0.062-0.336-0.142-0.719-0.238
		c-0.516-0.13-0.873-0.243-1.072-0.338s-0.35-0.227-0.453-0.395s-0.154-0.354-0.154-0.557c0-0.185,0.042-0.356,0.127-0.514
		s0.2-0.289,0.346-0.393c0.109-0.081,0.258-0.149,0.447-0.205s0.391-0.084,0.607-0.084c0.326,0,0.611,0.047,0.857,0.141
		s0.428,0.221,0.545,0.381s0.198,0.375,0.242,0.643l-0.688,0.094c-0.031-0.213-0.122-0.38-0.271-0.5s-0.361-0.18-0.635-0.18
		c-0.323,0-0.553,0.053-0.691,0.16s-0.207,0.232-0.207,0.375c0,0.091,0.029,0.173,0.086,0.246c0.057,0.076,0.147,0.138,0.27,0.188
		c0.07,0.026,0.277,0.086,0.621,0.18c0.498,0.133,0.844,0.242,1.041,0.326s0.351,0.208,0.463,0.369s0.168,0.362,0.168,0.602
		c0,0.234-0.068,0.455-0.205,0.662s-0.334,0.367-0.592,0.48s-0.549,0.17-0.875,0.17c-0.539,0-0.95-0.112-1.232-0.336
		S524.805,35.202,524.727,34.762z"/>
	<path d="M530.969,33.926c0-0.768,0.213-1.337,0.641-1.707c0.357-0.307,0.792-0.461,1.305-0.461c0.57,0,1.037,0.187,1.398,0.561
		s0.543,0.89,0.543,1.549c0,0.534-0.08,0.954-0.24,1.26s-0.393,0.543-0.699,0.713s-0.64,0.254-1.002,0.254
		c-0.581,0-1.05-0.186-1.408-0.559S530.969,34.626,530.969,33.926z M531.691,33.926c0,0.531,0.116,0.929,0.348,1.193
		s0.523,0.396,0.875,0.396c0.349,0,0.639-0.133,0.871-0.398s0.348-0.67,0.348-1.215c0-0.513-0.117-0.902-0.35-1.166
		s-0.523-0.396-0.869-0.396c-0.352,0-0.643,0.131-0.875,0.395S531.691,33.395,531.691,33.926z"/>
	<path d="M535.848,36v-3.602h-0.621v-0.547h0.621V31.41c0-0.279,0.025-0.486,0.074-0.621c0.068-0.182,0.187-0.33,0.357-0.443
		s0.41-0.17,0.717-0.17c0.198,0,0.417,0.023,0.656,0.07l-0.105,0.613c-0.146-0.026-0.284-0.039-0.414-0.039
		c-0.213,0-0.365,0.045-0.453,0.137s-0.133,0.262-0.133,0.512v0.383h0.809v0.547h-0.809V36H535.848z"/>
	<path d="M539.844,34.762l0.695-0.109c0.039,0.279,0.148,0.492,0.326,0.641s0.428,0.223,0.748,0.223
		c0.323,0,0.562-0.066,0.719-0.197s0.234-0.286,0.234-0.463c0-0.159-0.069-0.284-0.207-0.375c-0.096-0.062-0.336-0.142-0.719-0.238
		c-0.516-0.13-0.873-0.243-1.072-0.338s-0.35-0.227-0.453-0.395s-0.154-0.354-0.154-0.557c0-0.185,0.042-0.356,0.127-0.514
		s0.2-0.289,0.346-0.393c0.109-0.081,0.258-0.149,0.447-0.205s0.391-0.084,0.607-0.084c0.326,0,0.611,0.047,0.857,0.141
		s0.428,0.221,0.545,0.381s0.198,0.375,0.242,0.643l-0.688,0.094c-0.031-0.213-0.122-0.38-0.271-0.5s-0.361-0.18-0.635-0.18
		c-0.323,0-0.553,0.053-0.691,0.16s-0.207,0.232-0.207,0.375c0,0.091,0.029,0.173,0.086,0.246c0.057,0.076,0.147,0.138,0.27,0.188
		c0.07,0.026,0.277,0.086,0.621,0.18c0.498,0.133,0.844,0.242,1.041,0.326s0.351,0.208,0.463,0.369s0.168,0.362,0.168,0.602
		c0,0.234-0.068,0.455-0.205,0.662s-0.334,0.367-0.592,0.48s-0.549,0.17-0.875,0.17c-0.539,0-0.95-0.112-1.232-0.336
		S539.922,35.202,539.844,34.762z"/>
	<path d="M544.129,31.082v-0.809h0.703v0.809H544.129z M544.129,36v-4.148h0.703V36H544.129z"/>
	<path d="M545.902,36v-4.148h0.629v0.582c0.13-0.203,0.303-0.367,0.52-0.49s0.462-0.186,0.738-0.186
		c0.307,0,0.559,0.064,0.756,0.191s0.335,0.306,0.416,0.535c0.328-0.484,0.755-0.727,1.281-0.727c0.412,0,0.728,0.114,0.949,0.342
		s0.332,0.579,0.332,1.053V36h-0.699v-2.613c0-0.281-0.023-0.484-0.068-0.607s-0.128-0.223-0.248-0.299s-0.26-0.113-0.422-0.113
		c-0.292,0-0.534,0.097-0.727,0.291s-0.289,0.504-0.289,0.932V36h-0.703v-2.695c0-0.312-0.057-0.547-0.172-0.703
		s-0.302-0.234-0.562-0.234c-0.198,0-0.381,0.052-0.549,0.156s-0.29,0.256-0.365,0.457s-0.113,0.49-0.113,0.867V36H545.902z"/>
	<path d="M555.285,36v-0.609c-0.323,0.469-0.762,0.703-1.316,0.703c-0.245,0-0.473-0.047-0.686-0.141s-0.37-0.211-0.473-0.354
		s-0.175-0.316-0.217-0.521c-0.029-0.138-0.043-0.357-0.043-0.656v-2.57h0.703v2.301c0,0.367,0.014,0.615,0.043,0.742
		c0.044,0.185,0.138,0.33,0.281,0.436s0.32,0.158,0.531,0.158s0.409-0.054,0.594-0.162s0.316-0.255,0.393-0.441
		s0.115-0.457,0.115-0.811v-2.223h0.703V36H555.285z"/>
	<path d="M557,36v-5.727h0.703V36H557z"/>
	<path d="M561.5,35.488c-0.26,0.221-0.511,0.377-0.752,0.469s-0.5,0.137-0.775,0.137c-0.456,0-0.806-0.111-1.051-0.334
		s-0.367-0.507-0.367-0.854c0-0.203,0.046-0.389,0.139-0.557s0.213-0.303,0.363-0.404s0.318-0.178,0.506-0.23
		c0.138-0.037,0.346-0.072,0.625-0.105c0.568-0.068,0.986-0.148,1.254-0.242c0.002-0.096,0.004-0.158,0.004-0.184
		c0-0.287-0.066-0.488-0.199-0.605c-0.18-0.159-0.447-0.238-0.801-0.238c-0.331,0-0.575,0.058-0.732,0.174s-0.274,0.321-0.35,0.615
		l-0.688-0.094c0.062-0.294,0.166-0.532,0.309-0.713s0.35-0.32,0.621-0.418s0.584-0.146,0.941-0.146
		c0.354,0,0.642,0.042,0.863,0.125s0.384,0.188,0.488,0.314s0.177,0.286,0.219,0.479c0.023,0.12,0.035,0.336,0.035,0.648v0.938
		c0,0.654,0.015,1.067,0.045,1.24s0.089,0.339,0.178,0.498h-0.734C561.568,35.854,561.521,35.684,561.5,35.488z M561.441,33.918
		c-0.255,0.104-0.638,0.193-1.148,0.266c-0.289,0.042-0.494,0.088-0.613,0.141s-0.212,0.128-0.277,0.229s-0.098,0.211-0.098,0.334
		c0,0.188,0.071,0.344,0.213,0.469s0.35,0.188,0.623,0.188c0.271,0,0.512-0.059,0.723-0.178s0.366-0.281,0.465-0.486
		c0.076-0.159,0.113-0.393,0.113-0.703V33.918z"/>
	<path d="M564.777,35.371l0.102,0.621c-0.198,0.042-0.375,0.062-0.531,0.062c-0.255,0-0.453-0.041-0.594-0.121
		s-0.24-0.187-0.297-0.318s-0.086-0.408-0.086-0.83v-2.387h-0.516v-0.547h0.516v-1.027l0.699-0.422v1.449h0.707v0.547h-0.707v2.426
		c0,0.201,0.012,0.33,0.037,0.387s0.065,0.103,0.121,0.137s0.136,0.051,0.24,0.051C564.547,35.398,564.65,35.389,564.777,35.371z"/>
	<path d="M565.469,31.082v-0.809h0.703v0.809H565.469z M565.469,36v-4.148h0.703V36H565.469z"/>
	<path d="M566.98,33.926c0-0.768,0.213-1.337,0.641-1.707c0.357-0.307,0.792-0.461,1.305-0.461c0.57,0,1.037,0.187,1.398,0.561
		s0.543,0.89,0.543,1.549c0,0.534-0.08,0.954-0.24,1.26s-0.393,0.543-0.699,0.713s-0.64,0.254-1.002,0.254
		c-0.581,0-1.05-0.186-1.408-0.559S566.98,34.626,566.98,33.926z M567.703,33.926c0,0.531,0.116,0.929,0.348,1.193
		s0.523,0.396,0.875,0.396c0.349,0,0.639-0.133,0.871-0.398s0.348-0.67,0.348-1.215c0-0.513-0.117-0.902-0.35-1.166
		s-0.523-0.396-0.869-0.396c-0.352,0-0.643,0.131-0.875,0.395S567.703,33.395,567.703,33.926z"/>
	<path d="M571.691,36v-4.148h0.633v0.59c0.305-0.456,0.745-0.684,1.32-0.684c0.25,0,0.48,0.045,0.689,0.135s0.367,0.208,0.471,0.354
		s0.177,0.319,0.219,0.52c0.026,0.13,0.039,0.358,0.039,0.684V36h-0.703v-2.523c0-0.287-0.027-0.5-0.082-0.643
		s-0.152-0.255-0.291-0.34s-0.303-0.127-0.49-0.127c-0.299,0-0.558,0.095-0.775,0.285s-0.326,0.551-0.326,1.082V36H571.691z"/>
	<path d="M578.363,37.59v-5.738h0.641v0.539c0.151-0.211,0.322-0.369,0.512-0.475s0.42-0.158,0.691-0.158
		c0.354,0,0.667,0.091,0.938,0.273s0.475,0.439,0.613,0.771s0.207,0.696,0.207,1.092c0,0.424-0.076,0.807-0.229,1.146
		s-0.374,0.6-0.664,0.781s-0.596,0.271-0.916,0.271c-0.234,0-0.445-0.049-0.631-0.148s-0.339-0.224-0.459-0.375v2.02H578.363z
		 M579,33.949c0,0.534,0.108,0.928,0.324,1.184s0.478,0.383,0.785,0.383c0.312,0,0.58-0.132,0.803-0.396s0.334-0.674,0.334-1.229
		c0-0.529-0.109-0.924-0.326-1.188s-0.477-0.395-0.779-0.395c-0.299,0-0.564,0.14-0.795,0.42S579,33.416,579,33.949z"/>
	<path d="M582.805,36v-4.148h0.633v0.629c0.162-0.294,0.311-0.488,0.447-0.582s0.287-0.141,0.451-0.141
		c0.237,0,0.478,0.076,0.723,0.227l-0.242,0.652c-0.172-0.102-0.344-0.152-0.516-0.152c-0.154,0-0.292,0.046-0.414,0.139
		s-0.209,0.221-0.262,0.385c-0.078,0.25-0.117,0.523-0.117,0.82V36H582.805z"/>
	<path d="M585.215,33.926c0-0.768,0.213-1.337,0.641-1.707c0.357-0.307,0.792-0.461,1.305-0.461c0.57,0,1.037,0.187,1.398,0.561
		s0.543,0.89,0.543,1.549c0,0.534-0.08,0.954-0.24,1.26s-0.393,0.543-0.699,0.713s-0.64,0.254-1.002,0.254
		c-0.581,0-1.05-0.186-1.408-0.559S585.215,34.626,585.215,33.926z M585.938,33.926c0,0.531,0.116,0.929,0.348,1.193
		s0.523,0.396,0.875,0.396c0.349,0,0.639-0.133,0.871-0.398s0.348-0.67,0.348-1.215c0-0.513-0.117-0.902-0.35-1.166
		s-0.523-0.396-0.869-0.396c-0.352,0-0.643,0.131-0.875,0.395S585.938,33.395,585.938,33.926z"/>
	<path d="M592.633,34.48l0.691,0.09c-0.076,0.477-0.269,0.85-0.58,1.119s-0.693,0.404-1.146,0.404c-0.568,0-1.024-0.186-1.369-0.557
		s-0.518-0.903-0.518-1.596c0-0.448,0.074-0.84,0.223-1.176s0.375-0.588,0.678-0.756s0.633-0.252,0.99-0.252
		c0.451,0,0.819,0.114,1.105,0.342s0.47,0.551,0.551,0.971l-0.684,0.105c-0.065-0.279-0.18-0.488-0.346-0.629
		s-0.365-0.211-0.6-0.211c-0.354,0-0.642,0.127-0.863,0.381s-0.332,0.656-0.332,1.205c0,0.557,0.107,0.962,0.32,1.215
		s0.492,0.379,0.836,0.379c0.276,0,0.506-0.084,0.691-0.254S592.583,34.832,592.633,34.48z"/>
	<path d="M596.766,34.664l0.727,0.09c-0.115,0.424-0.327,0.754-0.637,0.988s-0.706,0.352-1.188,0.352
		c-0.607,0-1.088-0.187-1.443-0.561s-0.533-0.898-0.533-1.572c0-0.698,0.18-1.24,0.539-1.625s0.826-0.578,1.398-0.578
		c0.555,0,1.008,0.189,1.359,0.566s0.527,0.909,0.527,1.594c0,0.042-0.001,0.104-0.004,0.188h-3.094
		c0.026,0.456,0.155,0.805,0.387,1.047s0.521,0.363,0.867,0.363c0.258,0,0.478-0.068,0.66-0.203S596.659,34.961,596.766,34.664z
		 M594.457,33.527h2.316c-0.031-0.349-0.12-0.611-0.266-0.785c-0.224-0.271-0.514-0.406-0.871-0.406
		c-0.323,0-0.594,0.108-0.814,0.324S594.48,33.166,594.457,33.527z"/>
	<path d="M598.094,34.762l0.695-0.109c0.039,0.279,0.148,0.492,0.326,0.641s0.428,0.223,0.748,0.223
		c0.323,0,0.562-0.066,0.719-0.197s0.234-0.286,0.234-0.463c0-0.159-0.069-0.284-0.207-0.375c-0.096-0.062-0.336-0.142-0.719-0.238
		c-0.516-0.13-0.873-0.243-1.072-0.338s-0.35-0.227-0.453-0.395s-0.154-0.354-0.154-0.557c0-0.185,0.042-0.356,0.127-0.514
		s0.2-0.289,0.346-0.393c0.109-0.081,0.258-0.149,0.447-0.205s0.391-0.084,0.607-0.084c0.326,0,0.611,0.047,0.857,0.141
		s0.428,0.221,0.545,0.381s0.198,0.375,0.242,0.643l-0.688,0.094c-0.031-0.213-0.122-0.38-0.271-0.5s-0.361-0.18-0.635-0.18
		c-0.323,0-0.553,0.053-0.691,0.16s-0.207,0.232-0.207,0.375c0,0.091,0.029,0.173,0.086,0.246c0.057,0.076,0.147,0.138,0.27,0.188
		c0.07,0.026,0.277,0.086,0.621,0.18c0.498,0.133,0.844,0.242,1.041,0.326s0.351,0.208,0.463,0.369s0.168,0.362,0.168,0.602
		c0,0.234-0.068,0.455-0.205,0.662s-0.334,0.367-0.592,0.48s-0.549,0.17-0.875,0.17c-0.539,0-0.95-0.112-1.232-0.336
		S598.172,35.202,598.094,34.762z"/>
	<path d="M602.094,34.762l0.695-0.109c0.039,0.279,0.148,0.492,0.326,0.641s0.428,0.223,0.748,0.223
		c0.323,0,0.562-0.066,0.719-0.197s0.234-0.286,0.234-0.463c0-0.159-0.069-0.284-0.207-0.375c-0.096-0.062-0.336-0.142-0.719-0.238
		c-0.516-0.13-0.873-0.243-1.072-0.338s-0.35-0.227-0.453-0.395s-0.154-0.354-0.154-0.557c0-0.185,0.042-0.356,0.127-0.514
		s0.2-0.289,0.346-0.393c0.109-0.081,0.258-0.149,0.447-0.205s0.391-0.084,0.607-0.084c0.326,0,0.611,0.047,0.857,0.141
		s0.428,0.221,0.545,0.381s0.198,0.375,0.242,0.643l-0.688,0.094c-0.031-0.213-0.122-0.38-0.271-0.5s-0.361-0.18-0.635-0.18
		c-0.323,0-0.553,0.053-0.691,0.16s-0.207,0.232-0.207,0.375c0,0.091,0.029,0.173,0.086,0.246c0.057,0.076,0.147,0.138,0.27,0.188
		c0.07,0.026,0.277,0.086,0.621,0.18c0.498,0.133,0.844,0.242,1.041,0.326s0.351,0.208,0.463,0.369s0.168,0.362,0.168,0.602
		c0,0.234-0.068,0.455-0.205,0.662s-0.334,0.367-0.592,0.48s-0.549,0.17-0.875,0.17c-0.539,0-0.95-0.112-1.232-0.336
		S602.172,35.202,602.094,34.762z"/>
	<path d="M609.215,34.664l0.727,0.09c-0.115,0.424-0.327,0.754-0.637,0.988s-0.706,0.352-1.188,0.352
		c-0.607,0-1.088-0.187-1.443-0.561s-0.533-0.898-0.533-1.572c0-0.698,0.18-1.24,0.539-1.625s0.826-0.578,1.398-0.578
		c0.555,0,1.008,0.189,1.359,0.566s0.527,0.909,0.527,1.594c0,0.042-0.001,0.104-0.004,0.188h-3.094
		c0.026,0.456,0.155,0.805,0.387,1.047s0.521,0.363,0.867,0.363c0.258,0,0.478-0.068,0.66-0.203S609.108,34.961,609.215,34.664z
		 M606.906,33.527h2.316c-0.031-0.349-0.12-0.611-0.266-0.785c-0.224-0.271-0.514-0.406-0.871-0.406
		c-0.323,0-0.594,0.108-0.814,0.324S606.93,33.166,606.906,33.527z"/>
	<path d="M610.543,34.762l0.695-0.109c0.039,0.279,0.148,0.492,0.326,0.641s0.428,0.223,0.748,0.223
		c0.323,0,0.562-0.066,0.719-0.197s0.234-0.286,0.234-0.463c0-0.159-0.069-0.284-0.207-0.375c-0.096-0.062-0.336-0.142-0.719-0.238
		c-0.516-0.13-0.873-0.243-1.072-0.338s-0.35-0.227-0.453-0.395s-0.154-0.354-0.154-0.557c0-0.185,0.042-0.356,0.127-0.514
		s0.2-0.289,0.346-0.393c0.109-0.081,0.258-0.149,0.447-0.205s0.391-0.084,0.607-0.084c0.326,0,0.611,0.047,0.857,0.141
		s0.428,0.221,0.545,0.381s0.198,0.375,0.242,0.643l-0.688,0.094c-0.031-0.213-0.122-0.38-0.271-0.5s-0.361-0.18-0.635-0.18
		c-0.323,0-0.553,0.053-0.691,0.16s-0.207,0.232-0.207,0.375c0,0.091,0.029,0.173,0.086,0.246c0.057,0.076,0.147,0.138,0.27,0.188
		c0.07,0.026,0.277,0.086,0.621,0.18c0.498,0.133,0.844,0.242,1.041,0.326s0.351,0.208,0.463,0.369s0.168,0.362,0.168,0.602
		c0,0.234-0.068,0.455-0.205,0.662s-0.334,0.367-0.592,0.48s-0.549,0.17-0.875,0.17c-0.539,0-0.95-0.112-1.232-0.336
		S610.621,35.202,610.543,34.762z"/>
	<path d="M615.008,36v-0.801h0.801V36c0,0.294-0.052,0.532-0.156,0.713s-0.27,0.321-0.496,0.42l-0.195-0.301
		c0.148-0.065,0.258-0.161,0.328-0.287s0.109-0.308,0.117-0.545H615.008z"/>
	<path d="M468.527,45.6v-4.148h0.629v0.582c0.13-0.203,0.303-0.367,0.52-0.49s0.462-0.186,0.738-0.186
		c0.307,0,0.559,0.064,0.756,0.191s0.335,0.306,0.416,0.535c0.328-0.484,0.755-0.727,1.281-0.727c0.412,0,0.728,0.114,0.949,0.342
		s0.332,0.579,0.332,1.053V45.6h-0.699v-2.613c0-0.281-0.023-0.484-0.068-0.607s-0.128-0.223-0.248-0.299s-0.26-0.113-0.422-0.113
		c-0.292,0-0.534,0.097-0.727,0.291s-0.289,0.504-0.289,0.932v2.41h-0.703v-2.695c0-0.312-0.057-0.547-0.172-0.703
		s-0.302-0.234-0.562-0.234c-0.198,0-0.381,0.052-0.549,0.156s-0.29,0.256-0.365,0.457s-0.113,0.49-0.113,0.867V45.6H468.527z"/>
	<path d="M474.93,43.526c0-0.768,0.213-1.337,0.641-1.707c0.357-0.307,0.792-0.461,1.305-0.461c0.57,0,1.037,0.187,1.398,0.561
		s0.543,0.89,0.543,1.549c0,0.534-0.08,0.954-0.24,1.26s-0.393,0.543-0.699,0.713s-0.64,0.254-1.002,0.254
		c-0.581,0-1.05-0.186-1.408-0.559S474.93,44.227,474.93,43.526z M475.652,43.526c0,0.531,0.116,0.929,0.348,1.193
		s0.523,0.396,0.875,0.396c0.349,0,0.639-0.133,0.871-0.398s0.348-0.67,0.348-1.215c0-0.513-0.117-0.902-0.35-1.166
		s-0.523-0.396-0.869-0.396c-0.352,0-0.643,0.131-0.875,0.395S475.652,42.995,475.652,43.526z"/>
	<path d="M482.332,45.6v-0.523c-0.263,0.412-0.65,0.617-1.16,0.617c-0.331,0-0.635-0.091-0.912-0.273s-0.492-0.437-0.645-0.764
		s-0.229-0.703-0.229-1.127c0-0.414,0.069-0.79,0.207-1.127s0.345-0.596,0.621-0.775s0.584-0.27,0.926-0.27
		c0.25,0,0.473,0.053,0.668,0.158s0.354,0.243,0.477,0.412v-2.055h0.699V45.6H482.332z M480.109,43.53
		c0,0.531,0.112,0.928,0.336,1.191s0.488,0.395,0.793,0.395c0.307,0,0.568-0.125,0.783-0.377s0.322-0.635,0.322-1.15
		c0-0.568-0.109-0.984-0.328-1.25s-0.488-0.398-0.809-0.398c-0.312,0-0.574,0.127-0.783,0.383S480.109,42.98,480.109,43.53z"/>
	<path d="M486.93,44.264l0.727,0.09c-0.115,0.424-0.327,0.754-0.637,0.988s-0.706,0.352-1.188,0.352
		c-0.607,0-1.088-0.187-1.443-0.561s-0.533-0.898-0.533-1.572c0-0.698,0.18-1.24,0.539-1.625s0.826-0.578,1.398-0.578
		c0.555,0,1.008,0.189,1.359,0.566s0.527,0.909,0.527,1.594c0,0.042-0.001,0.104-0.004,0.188h-3.094
		c0.026,0.456,0.155,0.805,0.387,1.047s0.521,0.363,0.867,0.363c0.258,0,0.478-0.068,0.66-0.203S486.823,44.561,486.93,44.264z
		 M484.621,43.127h2.316c-0.031-0.349-0.12-0.611-0.266-0.785c-0.224-0.271-0.514-0.406-0.871-0.406
		c-0.323,0-0.594,0.108-0.814,0.324S484.645,42.766,484.621,43.127z"/>
	<path d="M488.523,45.6v-5.727h0.703V45.6H488.523z"/>
	<path d="M494.074,44.971l0.102,0.621c-0.198,0.042-0.375,0.062-0.531,0.062c-0.255,0-0.453-0.041-0.594-0.121
		s-0.24-0.187-0.297-0.318s-0.086-0.408-0.086-0.83v-2.387h-0.516v-0.547h0.516v-1.027l0.699-0.422v1.449h0.707v0.547h-0.707v2.426
		c0,0.201,0.012,0.33,0.037,0.387s0.065,0.103,0.121,0.137s0.136,0.051,0.24,0.051C493.844,44.999,493.947,44.989,494.074,44.971z"
		/>
	<path d="M494.754,45.6v-4.148h0.633v0.629c0.162-0.294,0.311-0.488,0.447-0.582s0.287-0.141,0.451-0.141
		c0.237,0,0.478,0.076,0.723,0.227l-0.242,0.652c-0.172-0.102-0.344-0.152-0.516-0.152c-0.154,0-0.292,0.046-0.414,0.139
		s-0.209,0.221-0.262,0.385c-0.078,0.25-0.117,0.523-0.117,0.82V45.6H494.754z"/>
	<path d="M500.133,45.088c-0.26,0.221-0.511,0.377-0.752,0.469s-0.5,0.137-0.775,0.137c-0.456,0-0.806-0.111-1.051-0.334
		s-0.367-0.507-0.367-0.854c0-0.203,0.046-0.389,0.139-0.557s0.213-0.303,0.363-0.404s0.318-0.178,0.506-0.23
		c0.138-0.037,0.346-0.072,0.625-0.105c0.568-0.068,0.986-0.148,1.254-0.242c0.002-0.096,0.004-0.158,0.004-0.184
		c0-0.287-0.066-0.488-0.199-0.605c-0.18-0.159-0.447-0.238-0.801-0.238c-0.331,0-0.575,0.058-0.732,0.174s-0.274,0.321-0.35,0.615
		l-0.688-0.094c0.062-0.294,0.166-0.532,0.309-0.713s0.35-0.32,0.621-0.418s0.584-0.146,0.941-0.146
		c0.354,0,0.642,0.042,0.863,0.125s0.384,0.188,0.488,0.314s0.177,0.286,0.219,0.479c0.023,0.12,0.035,0.336,0.035,0.648v0.938
		c0,0.654,0.015,1.067,0.045,1.24s0.089,0.339,0.178,0.498h-0.734C500.201,45.454,500.154,45.284,500.133,45.088z M500.074,43.518
		c-0.255,0.104-0.638,0.193-1.148,0.266c-0.289,0.042-0.494,0.088-0.613,0.141s-0.212,0.128-0.277,0.229s-0.098,0.211-0.098,0.334
		c0,0.188,0.071,0.344,0.213,0.469s0.35,0.188,0.623,0.188c0.271,0,0.512-0.059,0.723-0.178s0.366-0.281,0.465-0.486
		c0.076-0.159,0.113-0.393,0.113-0.703V43.518z"/>
	<path d="M501.879,40.682v-0.809h0.703v0.809H501.879z M501.879,45.6v-4.148h0.703V45.6H501.879z"/>
	<path d="M503.652,45.6v-4.148h0.633v0.59c0.305-0.456,0.745-0.684,1.32-0.684c0.25,0,0.48,0.045,0.689,0.135
		s0.367,0.208,0.471,0.354s0.177,0.319,0.219,0.52c0.026,0.13,0.039,0.358,0.039,0.684V45.6h-0.703v-2.523
		c0-0.287-0.027-0.5-0.082-0.643s-0.152-0.255-0.291-0.34s-0.303-0.127-0.49-0.127c-0.299,0-0.558,0.095-0.775,0.285
		s-0.326,0.551-0.326,1.082V45.6H503.652z"/>
	<path d="M508.105,40.682v-0.809h0.703v0.809H508.105z M508.105,45.6v-4.148h0.703V45.6H508.105z"/>
	<path d="M509.879,45.6v-4.148h0.633v0.59c0.305-0.456,0.745-0.684,1.32-0.684c0.25,0,0.48,0.045,0.689,0.135
		s0.367,0.208,0.471,0.354s0.177,0.319,0.219,0.52c0.026,0.13,0.039,0.358,0.039,0.684V45.6h-0.703v-2.523
		c0-0.287-0.027-0.5-0.082-0.643s-0.152-0.255-0.291-0.34s-0.303-0.127-0.49-0.127c-0.299,0-0.558,0.095-0.775,0.285
		s-0.326,0.551-0.326,1.082V45.6H509.879z"/>
	<path d="M514.199,45.944l0.684,0.102c0.029,0.211,0.108,0.365,0.238,0.461c0.174,0.13,0.413,0.195,0.715,0.195
		c0.326,0,0.577-0.065,0.754-0.195s0.297-0.312,0.359-0.547c0.037-0.143,0.053-0.444,0.051-0.902
		c-0.307,0.362-0.69,0.543-1.148,0.543c-0.57,0-1.012-0.206-1.324-0.617s-0.469-0.905-0.469-1.48c0-0.396,0.072-0.761,0.215-1.096
		s0.351-0.593,0.623-0.775s0.592-0.273,0.959-0.273c0.49,0,0.893,0.198,1.211,0.594v-0.5h0.648v3.586
		c0,0.646-0.066,1.104-0.197,1.373s-0.34,0.482-0.625,0.639s-0.636,0.234-1.053,0.234c-0.495,0-0.895-0.111-1.199-0.334
		S514.189,46.392,514.199,45.944z M514.781,43.452c0,0.544,0.108,0.941,0.324,1.191s0.487,0.375,0.812,0.375
		c0.323,0,0.594-0.125,0.812-0.373s0.328-0.639,0.328-1.17c0-0.508-0.113-0.891-0.338-1.148s-0.497-0.387-0.814-0.387
		c-0.312,0-0.578,0.127-0.797,0.381S514.781,42.952,514.781,43.452z"/>
	<path d="M521,47.19v-5.738h0.641v0.539c0.151-0.211,0.322-0.369,0.512-0.475s0.42-0.158,0.691-0.158
		c0.354,0,0.667,0.091,0.938,0.273s0.475,0.439,0.613,0.771s0.207,0.696,0.207,1.092c0,0.424-0.076,0.807-0.229,1.146
		s-0.374,0.6-0.664,0.781s-0.596,0.271-0.916,0.271c-0.234,0-0.445-0.049-0.631-0.148s-0.339-0.224-0.459-0.375v2.02H521z
		 M521.637,43.549c0,0.534,0.108,0.928,0.324,1.184s0.478,0.383,0.785,0.383c0.312,0,0.58-0.132,0.803-0.396
		s0.334-0.674,0.334-1.229c0-0.529-0.109-0.924-0.326-1.188s-0.477-0.395-0.779-0.395c-0.299,0-0.564,0.14-0.795,0.42
		S521.637,43.016,521.637,43.549z"/>
	<path d="M525.441,45.6v-4.148h0.633v0.629c0.162-0.294,0.311-0.488,0.447-0.582s0.287-0.141,0.451-0.141
		c0.237,0,0.478,0.076,0.723,0.227l-0.242,0.652c-0.172-0.102-0.344-0.152-0.516-0.152c-0.154,0-0.292,0.046-0.414,0.139
		s-0.209,0.221-0.262,0.385c-0.078,0.25-0.117,0.523-0.117,0.82V45.6H525.441z"/>
	<path d="M527.852,43.526c0-0.768,0.213-1.337,0.641-1.707c0.357-0.307,0.792-0.461,1.305-0.461c0.57,0,1.037,0.187,1.398,0.561
		s0.543,0.89,0.543,1.549c0,0.534-0.08,0.954-0.24,1.26s-0.393,0.543-0.699,0.713s-0.64,0.254-1.002,0.254
		c-0.581,0-1.05-0.186-1.408-0.559S527.852,44.227,527.852,43.526z M528.574,43.526c0,0.531,0.116,0.929,0.348,1.193
		s0.523,0.396,0.875,0.396c0.349,0,0.639-0.133,0.871-0.398s0.348-0.67,0.348-1.215c0-0.513-0.117-0.902-0.35-1.166
		s-0.523-0.396-0.869-0.396c-0.352,0-0.643,0.131-0.875,0.395S528.574,42.995,528.574,43.526z"/>
	<path d="M535.27,44.081l0.691,0.09c-0.076,0.477-0.269,0.85-0.58,1.119s-0.693,0.404-1.146,0.404c-0.568,0-1.024-0.186-1.369-0.557
		s-0.518-0.903-0.518-1.596c0-0.448,0.074-0.84,0.223-1.176s0.375-0.588,0.678-0.756s0.633-0.252,0.99-0.252
		c0.451,0,0.819,0.114,1.105,0.342s0.47,0.551,0.551,0.971l-0.684,0.105c-0.065-0.279-0.18-0.488-0.346-0.629
		s-0.365-0.211-0.6-0.211c-0.354,0-0.642,0.127-0.863,0.381s-0.332,0.656-0.332,1.205c0,0.557,0.107,0.962,0.32,1.215
		s0.492,0.379,0.836,0.379c0.276,0,0.506-0.084,0.691-0.254S535.22,44.432,535.27,44.081z"/>
	<path d="M539.402,44.264l0.727,0.09c-0.115,0.424-0.327,0.754-0.637,0.988s-0.706,0.352-1.188,0.352
		c-0.607,0-1.088-0.187-1.443-0.561s-0.533-0.898-0.533-1.572c0-0.698,0.18-1.24,0.539-1.625s0.826-0.578,1.398-0.578
		c0.555,0,1.008,0.189,1.359,0.566s0.527,0.909,0.527,1.594c0,0.042-0.001,0.104-0.004,0.188h-3.094
		c0.026,0.456,0.155,0.805,0.387,1.047s0.521,0.363,0.867,0.363c0.258,0,0.478-0.068,0.66-0.203S539.295,44.561,539.402,44.264z
		 M537.094,43.127h2.316c-0.031-0.349-0.12-0.611-0.266-0.785c-0.224-0.271-0.514-0.406-0.871-0.406
		c-0.323,0-0.594,0.108-0.814,0.324S537.117,42.766,537.094,43.127z"/>
	<path d="M540.73,44.362l0.695-0.109c0.039,0.279,0.148,0.492,0.326,0.641s0.428,0.223,0.748,0.223c0.323,0,0.562-0.066,0.719-0.197
		s0.234-0.286,0.234-0.463c0-0.159-0.069-0.284-0.207-0.375c-0.096-0.062-0.336-0.142-0.719-0.238
		c-0.516-0.13-0.873-0.243-1.072-0.338s-0.35-0.227-0.453-0.395s-0.154-0.354-0.154-0.557c0-0.185,0.042-0.356,0.127-0.514
		s0.2-0.289,0.346-0.393c0.109-0.081,0.258-0.149,0.447-0.205s0.391-0.084,0.607-0.084c0.326,0,0.611,0.047,0.857,0.141
		s0.428,0.221,0.545,0.381s0.198,0.375,0.242,0.643l-0.688,0.094c-0.031-0.213-0.122-0.38-0.271-0.5s-0.361-0.18-0.635-0.18
		c-0.323,0-0.553,0.053-0.691,0.16s-0.207,0.232-0.207,0.375c0,0.091,0.029,0.173,0.086,0.246c0.057,0.076,0.147,0.138,0.27,0.188
		c0.07,0.026,0.277,0.086,0.621,0.18c0.498,0.133,0.844,0.242,1.041,0.326s0.351,0.208,0.463,0.369s0.168,0.362,0.168,0.602
		c0,0.234-0.068,0.455-0.205,0.662s-0.334,0.367-0.592,0.48s-0.549,0.17-0.875,0.17c-0.539,0-0.95-0.112-1.232-0.336
		S540.809,44.802,540.73,44.362z"/>
	<path d="M544.73,44.362l0.695-0.109c0.039,0.279,0.148,0.492,0.326,0.641s0.428,0.223,0.748,0.223c0.323,0,0.562-0.066,0.719-0.197
		s0.234-0.286,0.234-0.463c0-0.159-0.069-0.284-0.207-0.375c-0.096-0.062-0.336-0.142-0.719-0.238
		c-0.516-0.13-0.873-0.243-1.072-0.338s-0.35-0.227-0.453-0.395s-0.154-0.354-0.154-0.557c0-0.185,0.042-0.356,0.127-0.514
		s0.2-0.289,0.346-0.393c0.109-0.081,0.258-0.149,0.447-0.205s0.391-0.084,0.607-0.084c0.326,0,0.611,0.047,0.857,0.141
		s0.428,0.221,0.545,0.381s0.198,0.375,0.242,0.643l-0.688,0.094c-0.031-0.213-0.122-0.38-0.271-0.5s-0.361-0.18-0.635-0.18
		c-0.323,0-0.553,0.053-0.691,0.16s-0.207,0.232-0.207,0.375c0,0.091,0.029,0.173,0.086,0.246c0.057,0.076,0.147,0.138,0.27,0.188
		c0.07,0.026,0.277,0.086,0.621,0.18c0.498,0.133,0.844,0.242,1.041,0.326s0.351,0.208,0.463,0.369s0.168,0.362,0.168,0.602
		c0,0.234-0.068,0.455-0.205,0.662s-0.334,0.367-0.592,0.48s-0.549,0.17-0.875,0.17c-0.539,0-0.95-0.112-1.232-0.336
		S544.809,44.802,544.73,44.362z"/>
	<path d="M551.852,44.264l0.727,0.09c-0.115,0.424-0.327,0.754-0.637,0.988s-0.706,0.352-1.188,0.352
		c-0.607,0-1.088-0.187-1.443-0.561s-0.533-0.898-0.533-1.572c0-0.698,0.18-1.24,0.539-1.625s0.826-0.578,1.398-0.578
		c0.555,0,1.008,0.189,1.359,0.566s0.527,0.909,0.527,1.594c0,0.042-0.001,0.104-0.004,0.188h-3.094
		c0.026,0.456,0.155,0.805,0.387,1.047s0.521,0.363,0.867,0.363c0.258,0,0.478-0.068,0.66-0.203S551.745,44.561,551.852,44.264z
		 M549.543,43.127h2.316c-0.031-0.349-0.12-0.611-0.266-0.785c-0.224-0.271-0.514-0.406-0.871-0.406
		c-0.323,0-0.594,0.108-0.814,0.324S549.566,42.766,549.543,43.127z"/>
	<path d="M553.18,44.362l0.695-0.109c0.039,0.279,0.148,0.492,0.326,0.641s0.428,0.223,0.748,0.223c0.323,0,0.562-0.066,0.719-0.197
		s0.234-0.286,0.234-0.463c0-0.159-0.069-0.284-0.207-0.375c-0.096-0.062-0.336-0.142-0.719-0.238
		c-0.516-0.13-0.873-0.243-1.072-0.338s-0.35-0.227-0.453-0.395s-0.154-0.354-0.154-0.557c0-0.185,0.042-0.356,0.127-0.514
		s0.2-0.289,0.346-0.393c0.109-0.081,0.258-0.149,0.447-0.205s0.391-0.084,0.607-0.084c0.326,0,0.611,0.047,0.857,0.141
		s0.428,0.221,0.545,0.381s0.198,0.375,0.242,0.643l-0.688,0.094c-0.031-0.213-0.122-0.38-0.271-0.5s-0.361-0.18-0.635-0.18
		c-0.323,0-0.553,0.053-0.691,0.16s-0.207,0.232-0.207,0.375c0,0.091,0.029,0.173,0.086,0.246c0.057,0.076,0.147,0.138,0.27,0.188
		c0.07,0.026,0.277,0.086,0.621,0.18c0.498,0.133,0.844,0.242,1.041,0.326s0.351,0.208,0.463,0.369s0.168,0.362,0.168,0.602
		c0,0.234-0.068,0.455-0.205,0.662s-0.334,0.367-0.592,0.48s-0.549,0.17-0.875,0.17c-0.539,0-0.95-0.112-1.232-0.336
		S553.258,44.802,553.18,44.362z"/>
	<path d="M557.645,45.6v-0.801h0.801V45.6c0,0.294-0.052,0.532-0.156,0.713s-0.27,0.321-0.496,0.42l-0.195-0.301
		c0.148-0.065,0.258-0.161,0.328-0.287s0.109-0.308,0.117-0.545H557.645z"/>
	<path d="M564.613,45.088c-0.26,0.221-0.511,0.377-0.752,0.469s-0.5,0.137-0.775,0.137c-0.456,0-0.806-0.111-1.051-0.334
		s-0.367-0.507-0.367-0.854c0-0.203,0.046-0.389,0.139-0.557s0.213-0.303,0.363-0.404s0.318-0.178,0.506-0.23
		c0.138-0.037,0.346-0.072,0.625-0.105c0.568-0.068,0.986-0.148,1.254-0.242c0.002-0.096,0.004-0.158,0.004-0.184
		c0-0.287-0.066-0.488-0.199-0.605c-0.18-0.159-0.447-0.238-0.801-0.238c-0.331,0-0.575,0.058-0.732,0.174s-0.274,0.321-0.35,0.615
		l-0.688-0.094c0.062-0.294,0.166-0.532,0.309-0.713s0.35-0.32,0.621-0.418s0.584-0.146,0.941-0.146
		c0.354,0,0.642,0.042,0.863,0.125s0.384,0.188,0.488,0.314s0.177,0.286,0.219,0.479c0.023,0.12,0.035,0.336,0.035,0.648v0.938
		c0,0.654,0.015,1.067,0.045,1.24s0.089,0.339,0.178,0.498h-0.734C564.681,45.454,564.634,45.284,564.613,45.088z M564.555,43.518
		c-0.255,0.104-0.638,0.193-1.148,0.266c-0.289,0.042-0.494,0.088-0.613,0.141s-0.212,0.128-0.277,0.229s-0.098,0.211-0.098,0.334
		c0,0.188,0.071,0.344,0.213,0.469s0.35,0.188,0.623,0.188c0.271,0,0.512-0.059,0.723-0.178s0.366-0.281,0.465-0.486
		c0.076-0.159,0.113-0.393,0.113-0.703V43.518z"/>
	<path d="M566.355,45.6v-4.148h0.633v0.59c0.305-0.456,0.745-0.684,1.32-0.684c0.25,0,0.48,0.045,0.689,0.135
		s0.367,0.208,0.471,0.354s0.177,0.319,0.219,0.52c0.026,0.13,0.039,0.358,0.039,0.684V45.6h-0.703v-2.523
		c0-0.287-0.027-0.5-0.082-0.643s-0.152-0.255-0.291-0.34s-0.303-0.127-0.49-0.127c-0.299,0-0.558,0.095-0.775,0.285
		s-0.326,0.551-0.326,1.082V45.6H566.355z"/>
	<path d="M573.496,45.6v-0.523c-0.263,0.412-0.65,0.617-1.16,0.617c-0.331,0-0.635-0.091-0.912-0.273s-0.492-0.437-0.645-0.764
		s-0.229-0.703-0.229-1.127c0-0.414,0.069-0.79,0.207-1.127s0.345-0.596,0.621-0.775s0.584-0.27,0.926-0.27
		c0.25,0,0.473,0.053,0.668,0.158s0.354,0.243,0.477,0.412v-2.055h0.699V45.6H573.496z M571.273,43.53
		c0,0.531,0.112,0.928,0.336,1.191s0.488,0.395,0.793,0.395c0.307,0,0.568-0.125,0.783-0.377s0.322-0.635,0.322-1.15
		c0-0.568-0.109-0.984-0.328-1.25s-0.488-0.398-0.809-0.398c-0.312,0-0.574,0.127-0.783,0.383S571.273,42.98,571.273,43.53z"/>
	<path d="M580.316,44.264l0.727,0.09c-0.115,0.424-0.327,0.754-0.637,0.988s-0.706,0.352-1.188,0.352
		c-0.607,0-1.088-0.187-1.443-0.561s-0.533-0.898-0.533-1.572c0-0.698,0.18-1.24,0.539-1.625s0.826-0.578,1.398-0.578
		c0.555,0,1.008,0.189,1.359,0.566s0.527,0.909,0.527,1.594c0,0.042-0.001,0.104-0.004,0.188h-3.094
		c0.026,0.456,0.155,0.805,0.387,1.047s0.521,0.363,0.867,0.363c0.258,0,0.478-0.068,0.66-0.203S580.209,44.561,580.316,44.264z
		 M578.008,43.127h2.316c-0.031-0.349-0.12-0.611-0.266-0.785c-0.224-0.271-0.514-0.406-0.871-0.406
		c-0.323,0-0.594,0.108-0.814,0.324S578.031,42.766,578.008,43.127z"/>
	<path d="M583.078,45.6l-1.578-4.148h0.742l0.891,2.484c0.096,0.268,0.185,0.547,0.266,0.836c0.062-0.219,0.15-0.482,0.262-0.789
		l0.922-2.531h0.723l-1.57,4.148H583.078z"/>
	<path d="M588.633,45.088c-0.26,0.221-0.511,0.377-0.752,0.469s-0.5,0.137-0.775,0.137c-0.456,0-0.806-0.111-1.051-0.334
		s-0.367-0.507-0.367-0.854c0-0.203,0.046-0.389,0.139-0.557s0.213-0.303,0.363-0.404s0.318-0.178,0.506-0.23
		c0.138-0.037,0.346-0.072,0.625-0.105c0.568-0.068,0.986-0.148,1.254-0.242c0.002-0.096,0.004-0.158,0.004-0.184
		c0-0.287-0.066-0.488-0.199-0.605c-0.18-0.159-0.447-0.238-0.801-0.238c-0.331,0-0.575,0.058-0.732,0.174s-0.274,0.321-0.35,0.615
		l-0.688-0.094c0.062-0.294,0.166-0.532,0.309-0.713s0.35-0.32,0.621-0.418s0.584-0.146,0.941-0.146
		c0.354,0,0.642,0.042,0.863,0.125s0.384,0.188,0.488,0.314s0.177,0.286,0.219,0.479c0.023,0.12,0.035,0.336,0.035,0.648v0.938
		c0,0.654,0.015,1.067,0.045,1.24s0.089,0.339,0.178,0.498h-0.734C588.701,45.454,588.654,45.284,588.633,45.088z M588.574,43.518
		c-0.255,0.104-0.638,0.193-1.148,0.266c-0.289,0.042-0.494,0.088-0.613,0.141s-0.212,0.128-0.277,0.229s-0.098,0.211-0.098,0.334
		c0,0.188,0.071,0.344,0.213,0.469s0.35,0.188,0.623,0.188c0.271,0,0.512-0.059,0.723-0.178s0.366-0.281,0.465-0.486
		c0.076-0.159,0.113-0.393,0.113-0.703V43.518z"/>
	<path d="M590.359,45.6v-5.727h0.703V45.6H590.359z"/>
	<path d="M594.871,45.6v-0.609c-0.323,0.469-0.762,0.703-1.316,0.703c-0.245,0-0.473-0.047-0.686-0.141s-0.37-0.211-0.473-0.354
		s-0.175-0.316-0.217-0.521c-0.029-0.138-0.043-0.357-0.043-0.656v-2.57h0.703v2.301c0,0.367,0.014,0.615,0.043,0.742
		c0.044,0.185,0.138,0.33,0.281,0.436s0.32,0.158,0.531,0.158s0.409-0.054,0.594-0.162s0.316-0.255,0.393-0.441
		s0.115-0.457,0.115-0.811v-2.223h0.703V45.6H594.871z"/>
	<path d="M599.309,45.088c-0.26,0.221-0.511,0.377-0.752,0.469s-0.5,0.137-0.775,0.137c-0.456,0-0.806-0.111-1.051-0.334
		s-0.367-0.507-0.367-0.854c0-0.203,0.046-0.389,0.139-0.557s0.213-0.303,0.363-0.404s0.318-0.178,0.506-0.23
		c0.138-0.037,0.346-0.072,0.625-0.105c0.568-0.068,0.986-0.148,1.254-0.242c0.002-0.096,0.004-0.158,0.004-0.184
		c0-0.287-0.066-0.488-0.199-0.605c-0.18-0.159-0.447-0.238-0.801-0.238c-0.331,0-0.575,0.058-0.732,0.174s-0.274,0.321-0.35,0.615
		l-0.688-0.094c0.062-0.294,0.166-0.532,0.309-0.713s0.35-0.32,0.621-0.418s0.584-0.146,0.941-0.146
		c0.354,0,0.642,0.042,0.863,0.125s0.384,0.188,0.488,0.314s0.177,0.286,0.219,0.479c0.023,0.12,0.035,0.336,0.035,0.648v0.938
		c0,0.654,0.015,1.067,0.045,1.24s0.089,0.339,0.178,0.498h-0.734C599.376,45.454,599.33,45.284,599.309,45.088z M599.25,43.518
		c-0.255,0.104-0.638,0.193-1.148,0.266c-0.289,0.042-0.494,0.088-0.613,0.141s-0.212,0.128-0.277,0.229s-0.098,0.211-0.098,0.334
		c0,0.188,0.071,0.344,0.213,0.469s0.35,0.188,0.623,0.188c0.271,0,0.512-0.059,0.723-0.178s0.366-0.281,0.465-0.486
		c0.076-0.159,0.113-0.393,0.113-0.703V43.518z"/>
	<path d="M602.586,44.971l0.102,0.621c-0.198,0.042-0.375,0.062-0.531,0.062c-0.255,0-0.453-0.041-0.594-0.121
		s-0.24-0.187-0.297-0.318s-0.086-0.408-0.086-0.83v-2.387h-0.516v-0.547h0.516v-1.027l0.699-0.422v1.449h0.707v0.547h-0.707v2.426
		c0,0.201,0.012,0.33,0.037,0.387s0.065,0.103,0.121,0.137s0.136,0.051,0.24,0.051C602.355,44.999,602.458,44.989,602.586,44.971z"
		/>
	<path d="M603.012,43.526c0-0.768,0.213-1.337,0.641-1.707c0.357-0.307,0.792-0.461,1.305-0.461c0.57,0,1.037,0.187,1.398,0.561
		s0.543,0.89,0.543,1.549c0,0.534-0.08,0.954-0.24,1.26s-0.393,0.543-0.699,0.713s-0.64,0.254-1.002,0.254
		c-0.581,0-1.05-0.186-1.408-0.559S603.012,44.227,603.012,43.526z M603.734,43.526c0,0.531,0.116,0.929,0.348,1.193
		s0.523,0.396,0.875,0.396c0.349,0,0.639-0.133,0.871-0.398s0.348-0.67,0.348-1.215c0-0.513-0.117-0.902-0.35-1.166
		s-0.523-0.396-0.869-0.396c-0.352,0-0.643,0.131-0.875,0.395S603.734,42.995,603.734,43.526z"/>
	<path d="M607.715,45.6v-4.148h0.633v0.629c0.162-0.294,0.311-0.488,0.447-0.582s0.287-0.141,0.451-0.141
		c0.237,0,0.478,0.076,0.723,0.227l-0.242,0.652c-0.172-0.102-0.344-0.152-0.516-0.152c-0.154,0-0.292,0.046-0.414,0.139
		s-0.209,0.221-0.262,0.385c-0.078,0.25-0.117,0.523-0.117,0.82V45.6H607.715z"/>
	<path d="M610.105,44.362l0.695-0.109c0.039,0.279,0.148,0.492,0.326,0.641s0.428,0.223,0.748,0.223
		c0.323,0,0.562-0.066,0.719-0.197s0.234-0.286,0.234-0.463c0-0.159-0.069-0.284-0.207-0.375c-0.096-0.062-0.336-0.142-0.719-0.238
		c-0.516-0.13-0.873-0.243-1.072-0.338s-0.35-0.227-0.453-0.395s-0.154-0.354-0.154-0.557c0-0.185,0.042-0.356,0.127-0.514
		s0.2-0.289,0.346-0.393c0.109-0.081,0.258-0.149,0.447-0.205s0.391-0.084,0.607-0.084c0.326,0,0.611,0.047,0.857,0.141
		s0.428,0.221,0.545,0.381s0.198,0.375,0.242,0.643l-0.688,0.094c-0.031-0.213-0.122-0.38-0.271-0.5s-0.361-0.18-0.635-0.18
		c-0.323,0-0.553,0.053-0.691,0.16s-0.207,0.232-0.207,0.375c0,0.091,0.029,0.173,0.086,0.246c0.057,0.076,0.147,0.138,0.27,0.188
		c0.07,0.026,0.277,0.086,0.621,0.18c0.498,0.133,0.844,0.242,1.041,0.326s0.351,0.208,0.463,0.369s0.168,0.362,0.168,0.602
		c0,0.234-0.068,0.455-0.205,0.662s-0.334,0.367-0.592,0.48s-0.549,0.17-0.875,0.17c-0.539,0-0.95-0.112-1.232-0.336
		S610.184,44.802,610.105,44.362z"/>
	<path d="M471.234,54.688c-0.26,0.221-0.511,0.377-0.752,0.469s-0.5,0.137-0.775,0.137c-0.456,0-0.806-0.111-1.051-0.334
		s-0.367-0.507-0.367-0.854c0-0.203,0.046-0.389,0.139-0.557s0.213-0.303,0.363-0.404s0.318-0.178,0.506-0.23
		c0.138-0.037,0.346-0.072,0.625-0.105c0.568-0.068,0.986-0.148,1.254-0.242c0.002-0.096,0.004-0.158,0.004-0.184
		c0-0.287-0.066-0.488-0.199-0.605c-0.18-0.159-0.447-0.238-0.801-0.238c-0.331,0-0.575,0.058-0.732,0.174s-0.274,0.321-0.35,0.615
		l-0.688-0.094c0.062-0.294,0.166-0.532,0.309-0.713s0.35-0.32,0.621-0.418s0.584-0.146,0.941-0.146
		c0.354,0,0.642,0.042,0.863,0.125s0.384,0.188,0.488,0.314s0.177,0.286,0.219,0.479c0.023,0.12,0.035,0.336,0.035,0.648v0.938
		c0,0.654,0.015,1.067,0.045,1.24s0.089,0.339,0.178,0.498h-0.734C471.302,55.054,471.255,54.884,471.234,54.688z M471.176,53.118
		c-0.255,0.104-0.638,0.193-1.148,0.266c-0.289,0.042-0.494,0.088-0.613,0.141s-0.212,0.128-0.277,0.229s-0.098,0.211-0.098,0.334
		c0,0.188,0.071,0.344,0.213,0.469s0.35,0.188,0.623,0.188c0.271,0,0.512-0.059,0.723-0.178s0.366-0.281,0.465-0.486
		c0.076-0.159,0.113-0.393,0.113-0.703V53.118z"/>
	<path d="M475.684,53.681l0.691,0.09c-0.076,0.477-0.269,0.85-0.58,1.119s-0.693,0.404-1.146,0.404
		c-0.568,0-1.024-0.186-1.369-0.557s-0.518-0.903-0.518-1.596c0-0.448,0.074-0.84,0.223-1.176s0.375-0.588,0.678-0.756
		s0.633-0.252,0.99-0.252c0.451,0,0.819,0.114,1.105,0.342s0.47,0.551,0.551,0.971l-0.684,0.105
		c-0.065-0.279-0.18-0.488-0.346-0.629s-0.365-0.211-0.6-0.211c-0.354,0-0.642,0.127-0.863,0.381s-0.332,0.656-0.332,1.205
		c0,0.557,0.107,0.962,0.32,1.215s0.492,0.379,0.836,0.379c0.276,0,0.506-0.084,0.691-0.254S475.634,54.032,475.684,53.681z"/>
	<path d="M476.969,55.2v-4.148h0.633v0.629c0.162-0.294,0.311-0.488,0.447-0.582s0.287-0.141,0.451-0.141
		c0.237,0,0.478,0.076,0.723,0.227l-0.242,0.652c-0.172-0.102-0.344-0.152-0.516-0.152c-0.154,0-0.292,0.046-0.414,0.139
		s-0.209,0.221-0.262,0.385c-0.078,0.25-0.117,0.523-0.117,0.82V55.2H476.969z"/>
	<path d="M479.379,53.126c0-0.768,0.213-1.337,0.641-1.707c0.357-0.307,0.792-0.461,1.305-0.461c0.57,0,1.037,0.187,1.398,0.561
		s0.543,0.89,0.543,1.549c0,0.534-0.08,0.954-0.24,1.26s-0.393,0.543-0.699,0.713s-0.64,0.254-1.002,0.254
		c-0.581,0-1.05-0.186-1.408-0.559S479.379,53.827,479.379,53.126z M480.102,53.126c0,0.531,0.116,0.929,0.348,1.193
		s0.523,0.396,0.875,0.396c0.349,0,0.639-0.133,0.871-0.398s0.348-0.67,0.348-1.215c0-0.513-0.117-0.902-0.35-1.166
		s-0.523-0.396-0.869-0.396c-0.352,0-0.643,0.131-0.875,0.395S480.102,52.595,480.102,53.126z"/>
	<path d="M483.809,53.962l0.695-0.109c0.039,0.279,0.148,0.492,0.326,0.641s0.428,0.223,0.748,0.223
		c0.323,0,0.562-0.066,0.719-0.197s0.234-0.286,0.234-0.463c0-0.159-0.069-0.284-0.207-0.375c-0.096-0.062-0.336-0.142-0.719-0.238
		c-0.516-0.13-0.873-0.243-1.072-0.338s-0.35-0.227-0.453-0.395s-0.154-0.354-0.154-0.557c0-0.185,0.042-0.356,0.127-0.514
		s0.2-0.289,0.346-0.393c0.109-0.081,0.258-0.149,0.447-0.205s0.391-0.084,0.607-0.084c0.326,0,0.611,0.047,0.857,0.141
		s0.428,0.221,0.545,0.381s0.198,0.375,0.242,0.643l-0.688,0.094c-0.031-0.213-0.122-0.38-0.271-0.5s-0.361-0.18-0.635-0.18
		c-0.323,0-0.553,0.053-0.691,0.16s-0.207,0.232-0.207,0.375c0,0.091,0.029,0.173,0.086,0.246c0.057,0.076,0.147,0.138,0.27,0.188
		c0.07,0.026,0.277,0.086,0.621,0.18c0.498,0.133,0.844,0.242,1.041,0.326s0.351,0.208,0.463,0.369s0.168,0.362,0.168,0.602
		c0,0.234-0.068,0.455-0.205,0.662s-0.334,0.367-0.592,0.48s-0.549,0.17-0.875,0.17c-0.539,0-0.95-0.112-1.232-0.336
		S483.887,54.402,483.809,53.962z"/>
	<path d="M487.809,53.962l0.695-0.109c0.039,0.279,0.148,0.492,0.326,0.641s0.428,0.223,0.748,0.223
		c0.323,0,0.562-0.066,0.719-0.197s0.234-0.286,0.234-0.463c0-0.159-0.069-0.284-0.207-0.375c-0.096-0.062-0.336-0.142-0.719-0.238
		c-0.516-0.13-0.873-0.243-1.072-0.338s-0.35-0.227-0.453-0.395s-0.154-0.354-0.154-0.557c0-0.185,0.042-0.356,0.127-0.514
		s0.2-0.289,0.346-0.393c0.109-0.081,0.258-0.149,0.447-0.205s0.391-0.084,0.607-0.084c0.326,0,0.611,0.047,0.857,0.141
		s0.428,0.221,0.545,0.381s0.198,0.375,0.242,0.643l-0.688,0.094c-0.031-0.213-0.122-0.38-0.271-0.5s-0.361-0.18-0.635-0.18
		c-0.323,0-0.553,0.053-0.691,0.16s-0.207,0.232-0.207,0.375c0,0.091,0.029,0.173,0.086,0.246c0.057,0.076,0.147,0.138,0.27,0.188
		c0.07,0.026,0.277,0.086,0.621,0.18c0.498,0.133,0.844,0.242,1.041,0.326s0.351,0.208,0.463,0.369s0.168,0.362,0.168,0.602
		c0,0.234-0.068,0.455-0.205,0.662s-0.334,0.367-0.592,0.48s-0.549,0.17-0.875,0.17c-0.539,0-0.95-0.112-1.232-0.336
		S487.887,54.402,487.809,53.962z"/>
	<path d="M497.004,55.2v-0.523c-0.263,0.412-0.65,0.617-1.16,0.617c-0.331,0-0.635-0.091-0.912-0.273s-0.492-0.437-0.645-0.764
		s-0.229-0.703-0.229-1.127c0-0.414,0.069-0.79,0.207-1.127s0.345-0.596,0.621-0.775s0.584-0.27,0.926-0.27
		c0.25,0,0.473,0.053,0.668,0.158s0.354,0.243,0.477,0.412v-2.055h0.699V55.2H497.004z M494.781,53.13
		c0,0.531,0.112,0.928,0.336,1.191s0.488,0.395,0.793,0.395c0.307,0,0.568-0.125,0.783-0.377s0.322-0.635,0.322-1.15
		c0-0.568-0.109-0.984-0.328-1.25s-0.488-0.398-0.809-0.398c-0.312,0-0.574,0.127-0.783,0.383S494.781,52.581,494.781,53.13z"/>
	<path d="M501.469,54.688c-0.26,0.221-0.511,0.377-0.752,0.469s-0.5,0.137-0.775,0.137c-0.456,0-0.806-0.111-1.051-0.334
		s-0.367-0.507-0.367-0.854c0-0.203,0.046-0.389,0.139-0.557s0.213-0.303,0.363-0.404s0.318-0.178,0.506-0.23
		c0.138-0.037,0.346-0.072,0.625-0.105c0.568-0.068,0.986-0.148,1.254-0.242c0.002-0.096,0.004-0.158,0.004-0.184
		c0-0.287-0.066-0.488-0.199-0.605c-0.18-0.159-0.447-0.238-0.801-0.238c-0.331,0-0.575,0.058-0.732,0.174s-0.274,0.321-0.35,0.615
		l-0.688-0.094c0.062-0.294,0.166-0.532,0.309-0.713s0.35-0.32,0.621-0.418s0.584-0.146,0.941-0.146
		c0.354,0,0.642,0.042,0.863,0.125s0.384,0.188,0.488,0.314s0.177,0.286,0.219,0.479c0.023,0.12,0.035,0.336,0.035,0.648v0.938
		c0,0.654,0.015,1.067,0.045,1.24s0.089,0.339,0.178,0.498h-0.734C501.537,55.054,501.49,54.884,501.469,54.688z M501.41,53.118
		c-0.255,0.104-0.638,0.193-1.148,0.266c-0.289,0.042-0.494,0.088-0.613,0.141s-0.212,0.128-0.277,0.229s-0.098,0.211-0.098,0.334
		c0,0.188,0.071,0.344,0.213,0.469s0.35,0.188,0.623,0.188c0.271,0,0.512-0.059,0.723-0.178s0.366-0.281,0.465-0.486
		c0.076-0.159,0.113-0.393,0.113-0.703V53.118z"/>
	<path d="M504.746,54.571l0.102,0.621c-0.198,0.042-0.375,0.062-0.531,0.062c-0.255,0-0.453-0.041-0.594-0.121
		s-0.24-0.187-0.297-0.318s-0.086-0.408-0.086-0.83v-2.387h-0.516v-0.547h0.516v-1.027l0.699-0.422v1.449h0.707v0.547h-0.707v2.426
		c0,0.201,0.012,0.33,0.037,0.387s0.065,0.103,0.121,0.137s0.136,0.051,0.24,0.051C504.516,54.599,504.619,54.589,504.746,54.571z"
		/>
	<path d="M508.141,54.688c-0.26,0.221-0.511,0.377-0.752,0.469s-0.5,0.137-0.775,0.137c-0.456,0-0.806-0.111-1.051-0.334
		s-0.367-0.507-0.367-0.854c0-0.203,0.046-0.389,0.139-0.557s0.213-0.303,0.363-0.404s0.318-0.178,0.506-0.23
		c0.138-0.037,0.346-0.072,0.625-0.105c0.568-0.068,0.986-0.148,1.254-0.242c0.002-0.096,0.004-0.158,0.004-0.184
		c0-0.287-0.066-0.488-0.199-0.605c-0.18-0.159-0.447-0.238-0.801-0.238c-0.331,0-0.575,0.058-0.732,0.174s-0.274,0.321-0.35,0.615
		l-0.688-0.094c0.062-0.294,0.166-0.532,0.309-0.713s0.35-0.32,0.621-0.418s0.584-0.146,0.941-0.146
		c0.354,0,0.642,0.042,0.863,0.125s0.384,0.188,0.488,0.314s0.177,0.286,0.219,0.479c0.023,0.12,0.035,0.336,0.035,0.648v0.938
		c0,0.654,0.015,1.067,0.045,1.24s0.089,0.339,0.178,0.498h-0.734C508.208,55.054,508.162,54.884,508.141,54.688z M508.082,53.118
		c-0.255,0.104-0.638,0.193-1.148,0.266c-0.289,0.042-0.494,0.088-0.613,0.141s-0.212,0.128-0.277,0.229s-0.098,0.211-0.098,0.334
		c0,0.188,0.071,0.344,0.213,0.469s0.35,0.188,0.623,0.188c0.271,0,0.512-0.059,0.723-0.178s0.366-0.281,0.465-0.486
		c0.076-0.159,0.113-0.393,0.113-0.703V53.118z"/>
	<path d="M511.824,53.962l0.695-0.109c0.039,0.279,0.148,0.492,0.326,0.641s0.428,0.223,0.748,0.223
		c0.323,0,0.562-0.066,0.719-0.197s0.234-0.286,0.234-0.463c0-0.159-0.069-0.284-0.207-0.375c-0.096-0.062-0.336-0.142-0.719-0.238
		c-0.516-0.13-0.873-0.243-1.072-0.338s-0.35-0.227-0.453-0.395s-0.154-0.354-0.154-0.557c0-0.185,0.042-0.356,0.127-0.514
		s0.2-0.289,0.346-0.393c0.109-0.081,0.258-0.149,0.447-0.205s0.391-0.084,0.607-0.084c0.326,0,0.611,0.047,0.857,0.141
		s0.428,0.221,0.545,0.381s0.198,0.375,0.242,0.643l-0.688,0.094c-0.031-0.213-0.122-0.38-0.271-0.5s-0.361-0.18-0.635-0.18
		c-0.323,0-0.553,0.053-0.691,0.16s-0.207,0.232-0.207,0.375c0,0.091,0.029,0.173,0.086,0.246c0.057,0.076,0.147,0.138,0.27,0.188
		c0.07,0.026,0.277,0.086,0.621,0.18c0.498,0.133,0.844,0.242,1.041,0.326s0.351,0.208,0.463,0.369s0.168,0.362,0.168,0.602
		c0,0.234-0.068,0.455-0.205,0.662s-0.334,0.367-0.592,0.48s-0.549,0.17-0.875,0.17c-0.539,0-0.95-0.112-1.232-0.336
		S511.902,54.402,511.824,53.962z"/>
	<path d="M518.945,53.864l0.727,0.09c-0.115,0.424-0.327,0.754-0.637,0.988s-0.706,0.352-1.188,0.352
		c-0.607,0-1.088-0.187-1.443-0.561s-0.533-0.898-0.533-1.572c0-0.698,0.18-1.24,0.539-1.625s0.826-0.578,1.398-0.578
		c0.555,0,1.008,0.189,1.359,0.566s0.527,0.909,0.527,1.594c0,0.042-0.001,0.104-0.004,0.188h-3.094
		c0.026,0.456,0.155,0.805,0.387,1.047s0.521,0.363,0.867,0.363c0.258,0,0.478-0.068,0.66-0.203S518.838,54.161,518.945,53.864z
		 M516.637,52.728h2.316c-0.031-0.349-0.12-0.611-0.266-0.785c-0.224-0.271-0.514-0.406-0.871-0.406
		c-0.323,0-0.594,0.108-0.814,0.324S516.66,52.366,516.637,52.728z"/>
	<path d="M522.09,54.571l0.102,0.621c-0.198,0.042-0.375,0.062-0.531,0.062c-0.255,0-0.453-0.041-0.594-0.121
		s-0.24-0.187-0.297-0.318s-0.086-0.408-0.086-0.83v-2.387h-0.516v-0.547h0.516v-1.027l0.699-0.422v1.449h0.707v0.547h-0.707v2.426
		c0,0.201,0.012,0.33,0.037,0.387s0.065,0.103,0.121,0.137s0.136,0.051,0.24,0.051C521.859,54.599,521.962,54.589,522.09,54.571z"/>
	<path d="M522.496,53.962l0.695-0.109c0.039,0.279,0.148,0.492,0.326,0.641s0.428,0.223,0.748,0.223
		c0.323,0,0.562-0.066,0.719-0.197s0.234-0.286,0.234-0.463c0-0.159-0.069-0.284-0.207-0.375c-0.096-0.062-0.336-0.142-0.719-0.238
		c-0.516-0.13-0.873-0.243-1.072-0.338s-0.35-0.227-0.453-0.395s-0.154-0.354-0.154-0.557c0-0.185,0.042-0.356,0.127-0.514
		s0.2-0.289,0.346-0.393c0.109-0.081,0.258-0.149,0.447-0.205s0.391-0.084,0.607-0.084c0.326,0,0.611,0.047,0.857,0.141
		s0.428,0.221,0.545,0.381s0.198,0.375,0.242,0.643l-0.688,0.094c-0.031-0.213-0.122-0.38-0.271-0.5s-0.361-0.18-0.635-0.18
		c-0.323,0-0.553,0.053-0.691,0.16s-0.207,0.232-0.207,0.375c0,0.091,0.029,0.173,0.086,0.246c0.057,0.076,0.147,0.138,0.27,0.188
		c0.07,0.026,0.277,0.086,0.621,0.18c0.498,0.133,0.844,0.242,1.041,0.326s0.351,0.208,0.463,0.369s0.168,0.362,0.168,0.602
		c0,0.234-0.068,0.455-0.205,0.662s-0.334,0.367-0.592,0.48s-0.549,0.17-0.875,0.17c-0.539,0-0.95-0.112-1.232-0.336
		S522.574,54.402,522.496,53.962z"/>
	<path d="M531.707,54.688c-0.26,0.221-0.511,0.377-0.752,0.469s-0.5,0.137-0.775,0.137c-0.456,0-0.806-0.111-1.051-0.334
		s-0.367-0.507-0.367-0.854c0-0.203,0.046-0.389,0.139-0.557s0.213-0.303,0.363-0.404s0.318-0.178,0.506-0.23
		c0.138-0.037,0.346-0.072,0.625-0.105c0.568-0.068,0.986-0.148,1.254-0.242c0.002-0.096,0.004-0.158,0.004-0.184
		c0-0.287-0.066-0.488-0.199-0.605c-0.18-0.159-0.447-0.238-0.801-0.238c-0.331,0-0.575,0.058-0.732,0.174s-0.274,0.321-0.35,0.615
		l-0.688-0.094c0.062-0.294,0.166-0.532,0.309-0.713s0.35-0.32,0.621-0.418s0.584-0.146,0.941-0.146
		c0.354,0,0.642,0.042,0.863,0.125s0.384,0.188,0.488,0.314s0.177,0.286,0.219,0.479c0.023,0.12,0.035,0.336,0.035,0.648v0.938
		c0,0.654,0.015,1.067,0.045,1.24s0.089,0.339,0.178,0.498h-0.734C531.775,55.054,531.728,54.884,531.707,54.688z M531.648,53.118
		c-0.255,0.104-0.638,0.193-1.148,0.266c-0.289,0.042-0.494,0.088-0.613,0.141s-0.212,0.128-0.277,0.229s-0.098,0.211-0.098,0.334
		c0,0.188,0.071,0.344,0.213,0.469s0.35,0.188,0.623,0.188c0.271,0,0.512-0.059,0.723-0.178s0.366-0.281,0.465-0.486
		c0.076-0.159,0.113-0.393,0.113-0.703V53.118z"/>
	<path d="M533.449,55.2v-4.148h0.633v0.59c0.305-0.456,0.745-0.684,1.32-0.684c0.25,0,0.48,0.045,0.689,0.135
		s0.367,0.208,0.471,0.354s0.177,0.319,0.219,0.52c0.026,0.13,0.039,0.358,0.039,0.684V55.2h-0.703v-2.523
		c0-0.287-0.027-0.5-0.082-0.643s-0.152-0.255-0.291-0.34s-0.303-0.127-0.49-0.127c-0.299,0-0.558,0.095-0.775,0.285
		s-0.326,0.551-0.326,1.082V55.2H533.449z"/>
	<path d="M540.59,55.2v-0.523c-0.263,0.412-0.65,0.617-1.16,0.617c-0.331,0-0.635-0.091-0.912-0.273s-0.492-0.437-0.645-0.764
		s-0.229-0.703-0.229-1.127c0-0.414,0.069-0.79,0.207-1.127s0.345-0.596,0.621-0.775s0.584-0.27,0.926-0.27
		c0.25,0,0.473,0.053,0.668,0.158s0.354,0.243,0.477,0.412v-2.055h0.699V55.2H540.59z M538.367,53.13
		c0,0.531,0.112,0.928,0.336,1.191s0.488,0.395,0.793,0.395c0.307,0,0.568-0.125,0.783-0.377s0.322-0.635,0.322-1.15
		c0-0.568-0.109-0.984-0.328-1.25s-0.488-0.398-0.809-0.398c-0.312,0-0.574,0.127-0.783,0.383S538.367,52.581,538.367,53.13z"/>
	<path d="M544.57,55.2v-4.148h0.629v0.582c0.13-0.203,0.303-0.367,0.52-0.49s0.462-0.186,0.738-0.186
		c0.307,0,0.559,0.064,0.756,0.191s0.335,0.306,0.416,0.535c0.328-0.484,0.755-0.727,1.281-0.727c0.412,0,0.728,0.114,0.949,0.342
		s0.332,0.579,0.332,1.053V55.2h-0.699v-2.613c0-0.281-0.023-0.484-0.068-0.607s-0.128-0.223-0.248-0.299s-0.26-0.113-0.422-0.113
		c-0.292,0-0.534,0.097-0.727,0.291s-0.289,0.504-0.289,0.932v2.41h-0.703v-2.695c0-0.312-0.057-0.547-0.172-0.703
		s-0.302-0.234-0.562-0.234c-0.198,0-0.381,0.052-0.549,0.156s-0.29,0.256-0.365,0.457s-0.113,0.49-0.113,0.867V55.2H544.57z"/>
	<path d="M550.973,53.126c0-0.768,0.213-1.337,0.641-1.707c0.357-0.307,0.792-0.461,1.305-0.461c0.57,0,1.037,0.187,1.398,0.561
		s0.543,0.89,0.543,1.549c0,0.534-0.08,0.954-0.24,1.26s-0.393,0.543-0.699,0.713s-0.64,0.254-1.002,0.254
		c-0.581,0-1.05-0.186-1.408-0.559S550.973,53.827,550.973,53.126z M551.695,53.126c0,0.531,0.116,0.929,0.348,1.193
		s0.523,0.396,0.875,0.396c0.349,0,0.639-0.133,0.871-0.398s0.348-0.67,0.348-1.215c0-0.513-0.117-0.902-0.35-1.166
		s-0.523-0.396-0.869-0.396c-0.352,0-0.643,0.131-0.875,0.395S551.695,52.595,551.695,53.126z"/>
	<path d="M558.375,55.2v-0.523c-0.263,0.412-0.65,0.617-1.16,0.617c-0.331,0-0.635-0.091-0.912-0.273s-0.492-0.437-0.645-0.764
		s-0.229-0.703-0.229-1.127c0-0.414,0.069-0.79,0.207-1.127s0.345-0.596,0.621-0.775s0.584-0.27,0.926-0.27
		c0.25,0,0.473,0.053,0.668,0.158s0.354,0.243,0.477,0.412v-2.055h0.699V55.2H558.375z M556.152,53.13
		c0,0.531,0.112,0.928,0.336,1.191s0.488,0.395,0.793,0.395c0.307,0,0.568-0.125,0.783-0.377s0.322-0.635,0.322-1.15
		c0-0.568-0.109-0.984-0.328-1.25s-0.488-0.398-0.809-0.398c-0.312,0-0.574,0.127-0.783,0.383S556.152,52.581,556.152,53.13z"/>
	<path d="M562.973,53.864l0.727,0.09c-0.115,0.424-0.327,0.754-0.637,0.988s-0.706,0.352-1.188,0.352
		c-0.607,0-1.088-0.187-1.443-0.561s-0.533-0.898-0.533-1.572c0-0.698,0.18-1.24,0.539-1.625s0.826-0.578,1.398-0.578
		c0.555,0,1.008,0.189,1.359,0.566s0.527,0.909,0.527,1.594c0,0.042-0.001,0.104-0.004,0.188h-3.094
		c0.026,0.456,0.155,0.805,0.387,1.047s0.521,0.363,0.867,0.363c0.258,0,0.478-0.068,0.66-0.203S562.866,54.161,562.973,53.864z
		 M560.664,52.728h2.316c-0.031-0.349-0.12-0.611-0.266-0.785c-0.224-0.271-0.514-0.406-0.871-0.406
		c-0.323,0-0.594,0.108-0.814,0.324S560.688,52.366,560.664,52.728z"/>
	<path d="M564.566,55.2v-5.727h0.703V55.2H564.566z"/>
	<path d="M566.078,53.962l0.695-0.109c0.039,0.279,0.148,0.492,0.326,0.641s0.428,0.223,0.748,0.223
		c0.323,0,0.562-0.066,0.719-0.197s0.234-0.286,0.234-0.463c0-0.159-0.069-0.284-0.207-0.375c-0.096-0.062-0.336-0.142-0.719-0.238
		c-0.516-0.13-0.873-0.243-1.072-0.338s-0.35-0.227-0.453-0.395s-0.154-0.354-0.154-0.557c0-0.185,0.042-0.356,0.127-0.514
		s0.2-0.289,0.346-0.393c0.109-0.081,0.258-0.149,0.447-0.205s0.391-0.084,0.607-0.084c0.326,0,0.611,0.047,0.857,0.141
		s0.428,0.221,0.545,0.381s0.198,0.375,0.242,0.643l-0.688,0.094c-0.031-0.213-0.122-0.38-0.271-0.5s-0.361-0.18-0.635-0.18
		c-0.323,0-0.553,0.053-0.691,0.16s-0.207,0.232-0.207,0.375c0,0.091,0.029,0.173,0.086,0.246c0.057,0.076,0.147,0.138,0.27,0.188
		c0.07,0.026,0.277,0.086,0.621,0.18c0.498,0.133,0.844,0.242,1.041,0.326s0.351,0.208,0.463,0.369s0.168,0.362,0.168,0.602
		c0,0.234-0.068,0.455-0.205,0.662s-0.334,0.367-0.592,0.48s-0.549,0.17-0.875,0.17c-0.539,0-0.95-0.112-1.232-0.336
		S566.156,54.402,566.078,53.962z"/>
</g>
<g>
</g>
<g>
</g>
<g>
</g>
<g>
</g>
<g>
</g>
<g>
</g>
<g>
</g>
<g>
</g>
<g>
</g>
<g>
</g>
<g>
</g>
</svg>
