<?xml version="1.0" encoding="utf-8"?>
<!-- Generator: Adobe Illustrator 25.2.3, SVG Export Plug-In . SVG Version: 6.00 Build 0)  -->
<svg version="1.1" id="Layer_1" xmlns="http://www.w3.org/2000/svg" xmlns:xlink="http://www.w3.org/1999/xlink" x="0px" y="0px"
	 viewBox="0 0 621 63" style="enable-background:new 0 0 621 63;" xml:space="preserve">
<style type="text/css">
	.st0{fill:none;stroke:#000000;stroke-miterlimit:10;}
	.st1{fill-rule:evenodd;clip-rule:evenodd;fill:#D2D2FF;}
	.st2{fill:#BABADB;}
	.st3{fill:#777777;}
	.st4{fill:#1B6D46;}
</style>
<g>
	<path d="M63.73,11.238v-1.112h0.967v1.112H63.73z M63.73,18v-5.704h0.967V18H63.73z"/>
	<path d="M66.169,18v-5.704h0.87v0.811c0.419-0.626,1.024-0.94,1.815-0.94c0.344,0,0.66,0.062,0.948,0.186
		c0.289,0.123,0.504,0.285,0.647,0.486s0.244,0.438,0.301,0.714c0.036,0.179,0.054,0.492,0.054,0.94V18h-0.967v-3.47
		c0-0.394-0.038-0.688-0.113-0.884c-0.075-0.195-0.208-0.351-0.4-0.467c-0.192-0.117-0.417-0.175-0.674-0.175
		c-0.412,0-0.767,0.131-1.066,0.392c-0.299,0.261-0.449,0.757-0.449,1.488V18H66.169z"/>
	<path d="M72.287,20.186v-7.89h0.881v0.741c0.208-0.29,0.442-0.508,0.704-0.652c0.261-0.146,0.578-0.218,0.951-0.218
		c0.487,0,0.917,0.125,1.289,0.376s0.653,0.604,0.843,1.061c0.19,0.457,0.285,0.957,0.285,1.501c0,0.583-0.105,1.109-0.314,1.577
		c-0.21,0.467-0.514,0.825-0.913,1.074c-0.399,0.249-0.819,0.373-1.26,0.373c-0.322,0-0.611-0.068-0.867-0.204
		c-0.256-0.136-0.467-0.308-0.631-0.516v2.777H72.287z M73.162,15.18c0,0.734,0.148,1.276,0.446,1.627s0.657,0.526,1.08,0.526
		c0.43,0,0.798-0.182,1.104-0.545c0.307-0.364,0.459-0.927,0.459-1.689c0-0.727-0.149-1.271-0.449-1.633
		c-0.299-0.362-0.656-0.542-1.071-0.542c-0.412,0-0.776,0.192-1.093,0.578C73.32,13.887,73.162,14.446,73.162,15.18z"/>
	<path d="M82.143,18v-0.838c-0.444,0.645-1.047,0.967-1.81,0.967c-0.336,0-0.651-0.064-0.942-0.193
		c-0.292-0.129-0.509-0.291-0.65-0.486c-0.141-0.195-0.241-0.434-0.298-0.717c-0.04-0.19-0.059-0.491-0.059-0.902v-3.534h0.967
		v3.164c0,0.505,0.02,0.845,0.059,1.021c0.061,0.254,0.19,0.454,0.387,0.599c0.197,0.145,0.44,0.217,0.73,0.217
		s0.562-0.074,0.816-0.223c0.254-0.148,0.434-0.351,0.54-0.606c0.105-0.256,0.158-0.628,0.158-1.115v-3.056h0.967V18H82.143z"/>
	<path d="M86.633,17.135l0.14,0.854c-0.272,0.057-0.516,0.086-0.73,0.086c-0.351,0-0.623-0.056-0.816-0.167s-0.33-0.257-0.408-0.438
		c-0.079-0.181-0.118-0.561-0.118-1.141v-3.282H83.99v-0.752h0.709v-1.413l0.961-0.58v1.993h0.972v0.752h-0.972v3.335
		c0,0.276,0.017,0.453,0.051,0.532c0.034,0.079,0.089,0.142,0.166,0.188c0.077,0.046,0.188,0.07,0.331,0.07
		C86.316,17.173,86.458,17.16,86.633,17.135z"/>
</g>
<g>
	<path d="M216.725,18v-5.704h0.865v0.8c0.179-0.279,0.417-0.504,0.714-0.674c0.297-0.17,0.636-0.255,1.015-0.255
		c0.422,0,0.769,0.088,1.039,0.263c0.271,0.175,0.461,0.421,0.572,0.736c0.451-0.666,1.039-0.999,1.762-0.999
		c0.566,0,1.001,0.157,1.305,0.47c0.304,0.313,0.457,0.796,0.457,1.448V18h-0.961v-3.593c0-0.387-0.031-0.665-0.094-0.835
		c-0.062-0.17-0.176-0.307-0.341-0.411s-0.358-0.156-0.58-0.156c-0.401,0-0.734,0.133-0.999,0.4
		c-0.265,0.267-0.397,0.693-0.397,1.281V18h-0.967v-3.706c0-0.43-0.079-0.752-0.236-0.967s-0.416-0.322-0.773-0.322
		c-0.272,0-0.523,0.072-0.755,0.215c-0.23,0.143-0.398,0.353-0.502,0.628s-0.156,0.673-0.156,1.192V18H216.725z"/>
	<path d="M229.793,16.163l0.999,0.124c-0.158,0.583-0.449,1.037-0.875,1.359s-0.97,0.483-1.633,0.483
		c-0.834,0-1.496-0.257-1.985-0.771c-0.488-0.514-0.733-1.235-0.733-2.162c0-0.959,0.247-1.705,0.741-2.234s1.135-0.795,1.923-0.795
		c0.763,0,1.386,0.26,1.869,0.779s0.725,1.25,0.725,2.191c0,0.057-0.002,0.143-0.005,0.258h-4.254
		c0.036,0.626,0.213,1.106,0.532,1.439s0.716,0.5,1.192,0.5c0.354,0,0.657-0.093,0.908-0.279S229.646,16.571,229.793,16.163z
		 M226.619,14.6h3.185c-0.043-0.48-0.165-0.84-0.365-1.08c-0.308-0.373-0.707-0.559-1.198-0.559c-0.444,0-0.817,0.148-1.12,0.446
		C226.818,13.705,226.651,14.103,226.619,14.6z"/>
	<path d="M234.117,17.135l0.14,0.854c-0.272,0.057-0.516,0.086-0.73,0.086c-0.351,0-0.623-0.056-0.816-0.167
		s-0.33-0.257-0.408-0.438c-0.079-0.181-0.118-0.561-0.118-1.141v-3.282h-0.709v-0.752h0.709v-1.413l0.961-0.58v1.993h0.972v0.752
		h-0.972v3.335c0,0.276,0.017,0.453,0.051,0.532c0.034,0.079,0.089,0.142,0.166,0.188c0.077,0.046,0.188,0.07,0.331,0.07
		C233.8,17.173,233.941,17.16,234.117,17.135z"/>
	<path d="M235.062,18v-7.874h0.967v2.825c0.451-0.523,1.021-0.784,1.708-0.784c0.422,0,0.79,0.083,1.101,0.25
		c0.312,0.166,0.534,0.396,0.669,0.69c0.134,0.293,0.201,0.72,0.201,1.278V18h-0.967v-3.615c0-0.483-0.104-0.835-0.314-1.055
		c-0.209-0.221-0.505-0.331-0.889-0.331c-0.287,0-0.556,0.074-0.809,0.223c-0.252,0.148-0.432,0.35-0.54,0.604
		s-0.161,0.605-0.161,1.053V18H235.062z"/>
	<path d="M240.82,15.148c0-1.056,0.293-1.839,0.881-2.347c0.491-0.422,1.088-0.634,1.794-0.634c0.784,0,1.425,0.257,1.923,0.771
		c0.498,0.514,0.747,1.224,0.747,2.13c0,0.734-0.11,1.312-0.331,1.732c-0.22,0.42-0.541,0.747-0.961,0.98
		c-0.421,0.233-0.88,0.349-1.378,0.349c-0.798,0-1.444-0.256-1.937-0.768C241.066,16.849,240.82,16.111,240.82,15.148z
		 M241.813,15.148c0,0.73,0.159,1.277,0.478,1.641c0.319,0.363,0.72,0.545,1.203,0.545c0.48,0,0.879-0.183,1.198-0.548
		s0.478-0.922,0.478-1.67c0-0.706-0.16-1.24-0.48-1.603c-0.321-0.364-0.719-0.545-1.195-0.545c-0.483,0-0.884,0.181-1.203,0.542
		S241.813,14.417,241.813,15.148z"/>
	<path d="M250.998,18v-0.72c-0.362,0.566-0.894,0.849-1.595,0.849c-0.455,0-0.873-0.125-1.254-0.376
		c-0.381-0.25-0.677-0.601-0.886-1.05c-0.21-0.45-0.314-0.966-0.314-1.55c0-0.569,0.095-1.086,0.285-1.55
		c0.19-0.463,0.475-0.819,0.854-1.066s0.804-0.371,1.273-0.371c0.344,0,0.65,0.072,0.918,0.218c0.269,0.145,0.487,0.333,0.655,0.566
		v-2.825h0.961V18H250.998z M247.942,15.153c0,0.73,0.154,1.276,0.462,1.638s0.671,0.542,1.09,0.542
		c0.422,0,0.781-0.173,1.077-0.519c0.295-0.345,0.443-0.873,0.443-1.582c0-0.781-0.15-1.354-0.451-1.719s-0.671-0.548-1.112-0.548
		c-0.43,0-0.789,0.175-1.077,0.526C248.086,13.845,247.942,14.398,247.942,15.153z"/>
</g>
<g>
	<path d="M378.365,15.148c0-1.056,0.293-1.839,0.881-2.347c0.491-0.422,1.088-0.634,1.794-0.634c0.784,0,1.425,0.257,1.923,0.771
		c0.498,0.514,0.747,1.224,0.747,2.13c0,0.734-0.11,1.312-0.331,1.732c-0.22,0.42-0.541,0.747-0.961,0.98
		c-0.421,0.233-0.88,0.349-1.378,0.349c-0.798,0-1.444-0.256-1.937-0.768C378.611,16.849,378.365,16.111,378.365,15.148z
		 M379.359,15.148c0,0.73,0.159,1.277,0.478,1.641c0.319,0.363,0.72,0.545,1.203,0.545c0.48,0,0.879-0.183,1.198-0.548
		s0.478-0.922,0.478-1.67c0-0.706-0.16-1.24-0.48-1.603c-0.321-0.364-0.719-0.545-1.195-0.545c-0.483,0-0.884,0.181-1.203,0.542
		S379.359,14.417,379.359,15.148z"/>
	<path d="M388.581,18v-0.838c-0.444,0.645-1.047,0.967-1.81,0.967c-0.336,0-0.651-0.064-0.942-0.193
		c-0.292-0.129-0.509-0.291-0.65-0.486c-0.141-0.195-0.241-0.434-0.298-0.717c-0.04-0.19-0.059-0.491-0.059-0.902v-3.534h0.967
		v3.164c0,0.505,0.02,0.845,0.059,1.021c0.061,0.254,0.19,0.454,0.387,0.599c0.197,0.145,0.44,0.217,0.73,0.217
		s0.562-0.074,0.816-0.223c0.254-0.148,0.434-0.351,0.54-0.606c0.105-0.256,0.158-0.628,0.158-1.115v-3.056h0.967V18H388.581z"/>
	<path d="M393.071,17.135l0.14,0.854c-0.272,0.057-0.516,0.086-0.73,0.086c-0.351,0-0.623-0.056-0.816-0.167
		s-0.33-0.257-0.408-0.438c-0.079-0.181-0.118-0.561-0.118-1.141v-3.282h-0.709v-0.752h0.709v-1.413l0.961-0.58v1.993h0.972v0.752
		h-0.972v3.335c0,0.276,0.017,0.453,0.051,0.532c0.034,0.079,0.089,0.142,0.166,0.188c0.077,0.046,0.188,0.07,0.331,0.07
		C392.754,17.173,392.896,17.16,393.071,17.135z"/>
	<path d="M394.017,20.186v-7.89h0.881v0.741c0.208-0.29,0.442-0.508,0.704-0.652c0.261-0.146,0.578-0.218,0.951-0.218
		c0.487,0,0.917,0.125,1.289,0.376s0.653,0.604,0.843,1.061c0.19,0.457,0.285,0.957,0.285,1.501c0,0.583-0.105,1.109-0.314,1.577
		c-0.21,0.467-0.514,0.825-0.913,1.074c-0.399,0.249-0.819,0.373-1.26,0.373c-0.322,0-0.611-0.068-0.867-0.204
		c-0.256-0.136-0.467-0.308-0.631-0.516v2.777H394.017z M394.892,15.18c0,0.734,0.148,1.276,0.446,1.627s0.657,0.526,1.08,0.526
		c0.43,0,0.798-0.182,1.104-0.545c0.307-0.364,0.459-0.927,0.459-1.689c0-0.727-0.149-1.271-0.449-1.633
		c-0.299-0.362-0.656-0.542-1.071-0.542c-0.412,0-0.776,0.192-1.093,0.578C395.05,13.887,394.892,14.446,394.892,15.18z"/>
	<path d="M403.873,18v-0.838c-0.444,0.645-1.047,0.967-1.81,0.967c-0.336,0-0.651-0.064-0.942-0.193
		c-0.292-0.129-0.509-0.291-0.65-0.486c-0.141-0.195-0.241-0.434-0.298-0.717c-0.04-0.19-0.059-0.491-0.059-0.902v-3.534h0.967
		v3.164c0,0.505,0.02,0.845,0.059,1.021c0.061,0.254,0.19,0.454,0.387,0.599c0.197,0.145,0.44,0.217,0.73,0.217
		s0.562-0.074,0.816-0.223c0.254-0.148,0.434-0.351,0.54-0.606c0.105-0.256,0.158-0.628,0.158-1.115v-3.056h0.967V18H403.873z"/>
	<path d="M408.363,17.135l0.14,0.854c-0.272,0.057-0.516,0.086-0.73,0.086c-0.351,0-0.623-0.056-0.816-0.167
		s-0.33-0.257-0.408-0.438c-0.079-0.181-0.118-0.561-0.118-1.141v-3.282h-0.709v-0.752h0.709v-1.413l0.961-0.58v1.993h0.972v0.752
		h-0.972v3.335c0,0.276,0.017,0.453,0.051,0.532c0.034,0.079,0.089,0.142,0.166,0.188c0.077,0.046,0.188,0.07,0.331,0.07
		C408.046,17.173,408.188,17.16,408.363,17.135z"/>
</g>
<g>
	<path d="M524.836,17.135l0.14,0.854c-0.272,0.057-0.516,0.086-0.73,0.086c-0.351,0-0.623-0.056-0.816-0.167
		s-0.33-0.257-0.408-0.438c-0.079-0.181-0.118-0.561-0.118-1.141v-3.282h-0.709v-0.752h0.709v-1.413l0.961-0.58v1.993h0.972v0.752
		h-0.972v3.335c0,0.276,0.017,0.453,0.051,0.532c0.034,0.079,0.089,0.142,0.166,0.188c0.077,0.046,0.188,0.07,0.331,0.07
		C524.519,17.173,524.661,17.16,524.836,17.135z"/>
	<path d="M529.503,17.296c-0.358,0.304-0.703,0.519-1.034,0.645c-0.331,0.125-0.687,0.188-1.066,0.188
		c-0.626,0-1.108-0.153-1.445-0.459c-0.336-0.307-0.505-0.698-0.505-1.174c0-0.279,0.063-0.534,0.19-0.766
		c0.127-0.23,0.294-0.416,0.5-0.556c0.206-0.14,0.438-0.245,0.695-0.317c0.19-0.05,0.476-0.099,0.859-0.145
		c0.781-0.093,1.355-0.204,1.724-0.333c0.003-0.132,0.005-0.217,0.005-0.252c0-0.394-0.091-0.671-0.274-0.833
		c-0.247-0.218-0.614-0.328-1.101-0.328c-0.455,0-0.791,0.08-1.007,0.239c-0.217,0.16-0.377,0.441-0.481,0.846l-0.945-0.129
		c0.086-0.405,0.228-0.731,0.424-0.98c0.197-0.249,0.481-0.44,0.854-0.575c0.373-0.134,0.804-0.201,1.294-0.201
		c0.487,0,0.883,0.057,1.187,0.172s0.528,0.259,0.671,0.433c0.143,0.173,0.244,0.393,0.301,0.658
		c0.032,0.165,0.048,0.462,0.048,0.892v1.289c0,0.899,0.021,1.467,0.062,1.706c0.041,0.238,0.123,0.466,0.244,0.685h-1.01
		C529.597,17.799,529.532,17.565,529.503,17.296z M529.423,15.137c-0.351,0.143-0.877,0.265-1.579,0.365
		c-0.397,0.057-0.679,0.122-0.843,0.193s-0.292,0.176-0.381,0.314c-0.089,0.138-0.134,0.291-0.134,0.459
		c0,0.258,0.098,0.473,0.293,0.645c0.195,0.172,0.48,0.258,0.856,0.258c0.373,0,0.704-0.082,0.994-0.245
		c0.29-0.163,0.503-0.386,0.639-0.668c0.104-0.218,0.156-0.541,0.156-0.967V15.137z"/>
	<path d="M531.512,16.297l0.956-0.15c0.054,0.383,0.203,0.677,0.449,0.881c0.245,0.204,0.588,0.306,1.028,0.306
		c0.444,0,0.773-0.09,0.988-0.271c0.215-0.181,0.322-0.393,0.322-0.636c0-0.218-0.095-0.39-0.285-0.516
		c-0.132-0.086-0.462-0.195-0.988-0.328c-0.709-0.179-1.201-0.334-1.474-0.465c-0.274-0.13-0.482-0.312-0.623-0.542
		c-0.142-0.231-0.212-0.486-0.212-0.766c0-0.254,0.058-0.49,0.174-0.706c0.117-0.217,0.275-0.397,0.476-0.54
		c0.15-0.111,0.355-0.205,0.615-0.282c0.259-0.077,0.538-0.115,0.835-0.115c0.448,0,0.841,0.064,1.179,0.193
		c0.339,0.129,0.588,0.304,0.75,0.523c0.161,0.221,0.272,0.515,0.333,0.884l-0.945,0.129c-0.043-0.293-0.167-0.523-0.374-0.688
		c-0.206-0.165-0.497-0.247-0.873-0.247c-0.444,0-0.761,0.073-0.951,0.22s-0.285,0.319-0.285,0.516c0,0.125,0.04,0.238,0.118,0.338
		c0.079,0.104,0.202,0.19,0.371,0.258c0.097,0.036,0.381,0.118,0.854,0.247c0.684,0.183,1.161,0.332,1.431,0.448
		c0.271,0.117,0.483,0.286,0.637,0.508s0.231,0.498,0.231,0.827c0,0.322-0.094,0.626-0.282,0.91
		c-0.188,0.285-0.459,0.505-0.814,0.661c-0.354,0.155-0.755,0.233-1.203,0.233c-0.741,0-1.306-0.154-1.695-0.462
		C531.868,17.359,531.62,16.902,531.512,16.297z"/>
	<path d="M537.404,18v-7.874h0.967v4.49l2.288-2.32h1.251l-2.181,2.116L542.131,18h-1.192l-1.885-2.917l-0.682,0.655V18H537.404z"/>
	<path d="M542.512,16.297l0.956-0.15c0.054,0.383,0.203,0.677,0.449,0.881c0.245,0.204,0.588,0.306,1.028,0.306
		c0.444,0,0.773-0.09,0.988-0.271c0.215-0.181,0.322-0.393,0.322-0.636c0-0.218-0.095-0.39-0.285-0.516
		c-0.132-0.086-0.462-0.195-0.988-0.328c-0.709-0.179-1.201-0.334-1.474-0.465c-0.274-0.13-0.482-0.312-0.623-0.542
		c-0.142-0.231-0.212-0.486-0.212-0.766c0-0.254,0.058-0.49,0.174-0.706c0.117-0.217,0.275-0.397,0.476-0.54
		c0.15-0.111,0.355-0.205,0.615-0.282c0.259-0.077,0.538-0.115,0.835-0.115c0.448,0,0.841,0.064,1.179,0.193
		c0.339,0.129,0.588,0.304,0.75,0.523c0.161,0.221,0.272,0.515,0.333,0.884l-0.945,0.129c-0.043-0.293-0.167-0.523-0.374-0.688
		c-0.206-0.165-0.497-0.247-0.873-0.247c-0.444,0-0.761,0.073-0.951,0.22s-0.285,0.319-0.285,0.516c0,0.125,0.04,0.238,0.118,0.338
		c0.079,0.104,0.202,0.19,0.371,0.258c0.097,0.036,0.381,0.118,0.854,0.247c0.684,0.183,1.161,0.332,1.431,0.448
		c0.271,0.117,0.483,0.286,0.637,0.508s0.231,0.498,0.231,0.827c0,0.322-0.094,0.626-0.282,0.91
		c-0.188,0.285-0.459,0.505-0.814,0.661c-0.354,0.155-0.755,0.233-1.203,0.233c-0.741,0-1.306-0.154-1.695-0.462
		C542.868,17.359,542.62,16.902,542.512,16.297z"/>
</g>
<line class="st0" x1="9" y1="23.811" x2="612" y2="23.811"/>
<polygon class="st1" points="153,27.461 298.914,27.461 319.491,40.73 298.914,54 153,54 173.573,40.73 "/>
<g>
	<path d="M216.302,41.961l0.956-0.15c0.054,0.383,0.203,0.677,0.449,0.881c0.245,0.204,0.588,0.306,1.028,0.306
		c0.444,0,0.773-0.09,0.988-0.271c0.215-0.181,0.322-0.393,0.322-0.636c0-0.218-0.095-0.39-0.285-0.516
		c-0.132-0.086-0.462-0.195-0.988-0.328c-0.709-0.179-1.201-0.334-1.474-0.465c-0.274-0.13-0.482-0.312-0.623-0.542
		c-0.142-0.231-0.212-0.486-0.212-0.766c0-0.254,0.058-0.49,0.174-0.706c0.117-0.217,0.275-0.397,0.476-0.54
		c0.15-0.111,0.355-0.205,0.615-0.282c0.259-0.077,0.538-0.115,0.835-0.115c0.448,0,0.841,0.064,1.179,0.193
		c0.339,0.129,0.588,0.304,0.75,0.523c0.161,0.221,0.272,0.515,0.333,0.884l-0.945,0.129c-0.043-0.293-0.167-0.523-0.374-0.688
		c-0.206-0.165-0.497-0.247-0.873-0.247c-0.444,0-0.761,0.073-0.951,0.22s-0.285,0.319-0.285,0.516c0,0.125,0.04,0.238,0.118,0.338
		c0.079,0.104,0.202,0.19,0.371,0.258c0.097,0.036,0.381,0.118,0.854,0.247c0.684,0.183,1.161,0.332,1.431,0.448
		c0.271,0.117,0.483,0.286,0.637,0.508s0.231,0.498,0.231,0.827c0,0.322-0.094,0.626-0.282,0.91
		c-0.188,0.285-0.459,0.505-0.814,0.661c-0.354,0.155-0.755,0.233-1.203,0.233c-0.741,0-1.306-0.154-1.695-0.462
		C216.657,43.022,216.409,42.566,216.302,41.961z"/>
	<path d="M226.093,41.827l0.999,0.124c-0.158,0.583-0.449,1.037-0.875,1.359s-0.97,0.483-1.633,0.483
		c-0.834,0-1.496-0.257-1.985-0.771c-0.488-0.514-0.733-1.235-0.733-2.162c0-0.959,0.247-1.705,0.741-2.234s1.135-0.795,1.923-0.795
		c0.763,0,1.386,0.26,1.869,0.779s0.725,1.25,0.725,2.191c0,0.057-0.002,0.143-0.005,0.258h-4.254
		c0.036,0.626,0.213,1.106,0.532,1.439s0.716,0.5,1.192,0.5c0.354,0,0.657-0.093,0.908-0.279S225.946,42.235,226.093,41.827z
		 M222.919,40.264h3.185c-0.043-0.48-0.165-0.84-0.365-1.08c-0.308-0.373-0.707-0.559-1.198-0.559c-0.444,0-0.817,0.148-1.12,0.446
		C223.119,39.369,222.951,39.766,222.919,40.264z"/>
	<path d="M231.942,45.85v-2.793c-0.15,0.211-0.361,0.387-0.631,0.526c-0.271,0.14-0.558,0.209-0.862,0.209
		c-0.677,0-1.26-0.271-1.748-0.811c-0.489-0.541-0.733-1.282-0.733-2.224c0-0.573,0.1-1.087,0.298-1.542
		c0.199-0.455,0.487-0.799,0.865-1.034c0.377-0.234,0.792-0.352,1.243-0.352c0.706,0,1.26,0.297,1.665,0.892v-0.763h0.87v7.89
		H231.942z M228.961,40.795c0,0.734,0.154,1.285,0.462,1.651c0.308,0.367,0.677,0.551,1.106,0.551c0.412,0,0.766-0.175,1.063-0.523
		c0.297-0.35,0.446-0.88,0.446-1.593c0-0.759-0.157-1.33-0.47-1.713c-0.313-0.383-0.682-0.575-1.104-0.575
		c-0.419,0-0.774,0.178-1.066,0.534C229.107,39.484,228.961,40.04,228.961,40.795z"/>
	<path d="M234.247,44.136l0.94,0.14c0.04,0.29,0.148,0.501,0.328,0.634c0.24,0.179,0.567,0.269,0.983,0.269
		c0.448,0,0.793-0.089,1.037-0.269s0.408-0.43,0.494-0.752c0.05-0.197,0.073-0.61,0.07-1.241c-0.422,0.498-0.949,0.747-1.579,0.747
		c-0.784,0-1.391-0.283-1.821-0.849s-0.645-1.244-0.645-2.036c0-0.544,0.099-1.046,0.295-1.506c0.197-0.46,0.482-0.816,0.857-1.066
		c0.374-0.25,0.813-0.376,1.318-0.376c0.673,0,1.228,0.272,1.665,0.816v-0.688h0.892v4.931c0,0.888-0.09,1.518-0.271,1.888
		c-0.181,0.371-0.467,0.664-0.859,0.878c-0.392,0.215-0.875,0.322-1.447,0.322c-0.68,0-1.23-0.153-1.649-0.459
		C234.435,45.213,234.232,44.752,234.247,44.136z M235.047,40.709c0,0.749,0.148,1.294,0.446,1.638s0.669,0.516,1.117,0.516
		c0.444,0,0.816-0.171,1.117-0.513c0.301-0.342,0.451-0.878,0.451-1.608c0-0.698-0.155-1.225-0.465-1.579
		c-0.31-0.354-0.683-0.532-1.12-0.532c-0.43,0-0.795,0.174-1.096,0.524C235.197,39.503,235.047,40.022,235.047,40.709z"/>
	<path d="M240.531,43.664v-5.704h0.87v0.865c0.222-0.405,0.427-0.671,0.615-0.8c0.188-0.129,0.395-0.193,0.621-0.193
		c0.326,0,0.657,0.104,0.994,0.312l-0.333,0.897c-0.236-0.14-0.473-0.209-0.709-0.209c-0.211,0-0.401,0.063-0.569,0.19
		c-0.168,0.127-0.288,0.304-0.36,0.529c-0.107,0.344-0.161,0.72-0.161,1.128v2.986H240.531z"/>
	<path d="M247.927,42.96c-0.358,0.304-0.703,0.519-1.034,0.645c-0.331,0.125-0.687,0.188-1.066,0.188
		c-0.626,0-1.108-0.153-1.445-0.459c-0.336-0.307-0.505-0.698-0.505-1.174c0-0.279,0.063-0.534,0.19-0.766
		c0.127-0.23,0.294-0.416,0.5-0.556c0.206-0.14,0.438-0.245,0.695-0.317c0.19-0.05,0.476-0.099,0.859-0.145
		c0.781-0.093,1.355-0.204,1.724-0.333c0.003-0.132,0.005-0.217,0.005-0.252c0-0.394-0.091-0.671-0.274-0.833
		c-0.247-0.218-0.614-0.328-1.101-0.328c-0.455,0-0.791,0.08-1.007,0.239c-0.217,0.16-0.377,0.441-0.481,0.846l-0.945-0.129
		c0.086-0.405,0.228-0.731,0.424-0.98c0.197-0.249,0.481-0.44,0.854-0.575c0.373-0.134,0.804-0.201,1.294-0.201
		c0.487,0,0.883,0.057,1.187,0.172s0.528,0.259,0.671,0.433c0.143,0.173,0.244,0.393,0.301,0.658
		c0.032,0.165,0.048,0.462,0.048,0.892v1.289c0,0.899,0.021,1.467,0.062,1.706c0.041,0.238,0.123,0.466,0.244,0.685h-1.01
		C248.02,43.463,247.956,43.229,247.927,42.96z M247.846,40.801c-0.351,0.143-0.877,0.265-1.579,0.365
		c-0.397,0.057-0.679,0.122-0.843,0.193s-0.292,0.176-0.381,0.314c-0.089,0.138-0.134,0.291-0.134,0.459
		c0,0.258,0.098,0.473,0.293,0.645c0.195,0.172,0.48,0.258,0.856,0.258c0.373,0,0.704-0.082,0.994-0.245
		c0.29-0.163,0.503-0.386,0.639-0.668c0.104-0.218,0.156-0.541,0.156-0.967V40.801z"/>
	<path d="M173.01,49.724l0.519,0.067c-0.057,0.357-0.202,0.637-0.435,0.839s-0.52,0.303-0.86,0.303
		c-0.426,0-0.768-0.139-1.027-0.417s-0.388-0.677-0.388-1.197c0-0.336,0.056-0.63,0.167-0.882s0.281-0.441,0.508-0.567
		s0.475-0.189,0.743-0.189c0.338,0,0.614,0.085,0.829,0.256s0.353,0.414,0.413,0.728l-0.513,0.079
		c-0.049-0.209-0.135-0.366-0.259-0.472s-0.274-0.158-0.45-0.158c-0.266,0-0.481,0.095-0.647,0.286s-0.249,0.492-0.249,0.904
		c0,0.418,0.08,0.722,0.24,0.911s0.369,0.284,0.627,0.284c0.207,0,0.38-0.063,0.519-0.19S172.973,49.988,173.01,49.724z"/>
	<path d="M173.784,49.308c0-0.576,0.16-1.003,0.48-1.28c0.268-0.23,0.594-0.346,0.979-0.346c0.428,0,0.777,0.14,1.049,0.42
		s0.407,0.667,0.407,1.162c0,0.4-0.06,0.715-0.18,0.945s-0.295,0.408-0.524,0.535s-0.48,0.19-0.751,0.19
		c-0.436,0-0.788-0.14-1.056-0.419S173.784,49.833,173.784,49.308z M174.326,49.308c0,0.398,0.087,0.697,0.261,0.895
		s0.393,0.297,0.656,0.297c0.262,0,0.479-0.1,0.653-0.299s0.261-0.503,0.261-0.911c0-0.385-0.087-0.676-0.262-0.875
		s-0.392-0.297-0.652-0.297c-0.264,0-0.482,0.099-0.656,0.296S174.326,48.91,174.326,49.308z"/>
	<path d="M177.311,50.864v-3.111h0.475v0.472c0.121-0.221,0.233-0.366,0.335-0.437s0.215-0.105,0.338-0.105
		c0.178,0,0.358,0.057,0.542,0.17l-0.182,0.489c-0.129-0.076-0.258-0.114-0.387-0.114c-0.115,0-0.219,0.035-0.311,0.104
		s-0.157,0.166-0.196,0.289c-0.059,0.188-0.088,0.393-0.088,0.615v1.629H177.311z"/>
	<path d="M181.445,49.862l0.545,0.067c-0.086,0.318-0.245,0.565-0.478,0.741s-0.529,0.264-0.891,0.264
		c-0.455,0-0.816-0.14-1.083-0.42s-0.4-0.673-0.4-1.179c0-0.523,0.135-0.93,0.404-1.219s0.619-0.434,1.049-0.434
		c0.416,0,0.756,0.142,1.02,0.425s0.396,0.682,0.396,1.195c0,0.031-0.001,0.078-0.003,0.141h-2.32
		c0.02,0.342,0.116,0.604,0.29,0.785s0.391,0.272,0.65,0.272c0.193,0,0.358-0.051,0.495-0.152S181.365,50.084,181.445,49.862z
		 M179.713,49.009h1.737c-0.023-0.262-0.09-0.458-0.199-0.589c-0.168-0.203-0.386-0.305-0.653-0.305
		c-0.242,0-0.446,0.081-0.611,0.243S179.731,48.738,179.713,49.009z"/>
	<path d="M184.445,50.864v-2.701h-0.466v-0.41h0.466v-0.331c0-0.209,0.019-0.364,0.056-0.466c0.051-0.137,0.14-0.248,0.268-0.333
		s0.307-0.127,0.538-0.127c0.148,0,0.312,0.018,0.492,0.053l-0.079,0.46c-0.109-0.02-0.213-0.029-0.311-0.029
		c-0.16,0-0.273,0.034-0.34,0.103s-0.1,0.196-0.1,0.384v0.287h0.606v0.41h-0.606v2.701H184.445z"/>
	<path d="M188.025,50.864v-0.457c-0.242,0.352-0.571,0.527-0.987,0.527c-0.184,0-0.355-0.035-0.514-0.105s-0.277-0.159-0.354-0.265
		s-0.131-0.237-0.163-0.391c-0.021-0.104-0.032-0.268-0.032-0.492v-1.928h0.527v1.726c0,0.275,0.011,0.461,0.032,0.557
		c0.033,0.139,0.104,0.248,0.211,0.327s0.24,0.119,0.398,0.119s0.307-0.041,0.445-0.122s0.237-0.191,0.294-0.331
		s0.086-0.342,0.086-0.608v-1.667h0.527v3.111H188.025z"/>
	<path d="M189.323,50.864v-3.111h0.475v0.442c0.229-0.342,0.559-0.513,0.99-0.513c0.188,0,0.36,0.034,0.517,0.101
		s0.275,0.156,0.353,0.265s0.133,0.239,0.164,0.39c0.02,0.098,0.029,0.269,0.029,0.513v1.913h-0.527v-1.893
		c0-0.215-0.021-0.375-0.062-0.482s-0.114-0.191-0.218-0.255s-0.227-0.095-0.368-0.095c-0.225,0-0.418,0.071-0.582,0.214
		s-0.245,0.413-0.245,0.812v1.699H189.323z"/>
	<path d="M194.69,49.724l0.519,0.067c-0.057,0.357-0.202,0.637-0.435,0.839s-0.52,0.303-0.86,0.303
		c-0.426,0-0.768-0.139-1.027-0.417s-0.388-0.677-0.388-1.197c0-0.336,0.056-0.63,0.167-0.882s0.281-0.441,0.508-0.567
		s0.475-0.189,0.743-0.189c0.338,0,0.614,0.085,0.829,0.256s0.353,0.414,0.413,0.728l-0.513,0.079
		c-0.049-0.209-0.135-0.366-0.259-0.472s-0.274-0.158-0.45-0.158c-0.266,0-0.481,0.095-0.647,0.286s-0.249,0.492-0.249,0.904
		c0,0.418,0.08,0.722,0.24,0.911s0.369,0.284,0.627,0.284c0.207,0,0.38-0.063,0.519-0.19S194.653,49.988,194.69,49.724z"/>
	<path d="M196.811,50.392l0.076,0.466c-0.148,0.031-0.281,0.047-0.398,0.047c-0.191,0-0.34-0.03-0.445-0.091s-0.18-0.14-0.223-0.239
		s-0.064-0.306-0.064-0.623v-1.79h-0.387v-0.41h0.387v-0.771l0.524-0.316v1.087h0.53v0.41h-0.53v1.819
		c0,0.15,0.009,0.247,0.028,0.29s0.049,0.077,0.091,0.103s0.102,0.038,0.18,0.038C196.638,50.413,196.715,50.406,196.811,50.392z"/>
	<path d="M197.33,47.175v-0.606h0.527v0.606H197.33z M197.33,50.864v-3.111h0.527v3.111H197.33z"/>
	<path d="M198.463,49.308c0-0.576,0.16-1.003,0.48-1.28c0.268-0.23,0.594-0.346,0.979-0.346c0.428,0,0.777,0.14,1.049,0.42
		s0.407,0.667,0.407,1.162c0,0.4-0.06,0.715-0.18,0.945s-0.295,0.408-0.524,0.535s-0.48,0.19-0.751,0.19
		c-0.436,0-0.788-0.14-1.056-0.419S198.463,49.833,198.463,49.308z M199.005,49.308c0,0.398,0.087,0.697,0.261,0.895
		s0.393,0.297,0.656,0.297c0.262,0,0.479-0.1,0.653-0.299s0.261-0.503,0.261-0.911c0-0.385-0.087-0.676-0.262-0.875
		s-0.392-0.297-0.652-0.297c-0.264,0-0.482,0.099-0.656,0.296S199.005,48.91,199.005,49.308z"/>
	<path d="M201.997,50.864v-3.111h0.475v0.442c0.229-0.342,0.559-0.513,0.99-0.513c0.188,0,0.36,0.034,0.517,0.101
		s0.275,0.156,0.353,0.265s0.133,0.239,0.164,0.39c0.02,0.098,0.029,0.269,0.029,0.513v1.913h-0.527v-1.893
		c0-0.215-0.021-0.375-0.062-0.482s-0.114-0.191-0.218-0.255s-0.227-0.095-0.368-0.095c-0.225,0-0.418,0.071-0.582,0.214
		s-0.245,0.413-0.245,0.812v1.699H201.997z"/>
	<path d="M207.364,50.48c-0.195,0.166-0.383,0.283-0.564,0.352s-0.375,0.103-0.582,0.103c-0.342,0-0.604-0.083-0.788-0.25
		s-0.275-0.38-0.275-0.64c0-0.152,0.035-0.292,0.104-0.417s0.16-0.227,0.272-0.303s0.239-0.134,0.379-0.173
		c0.104-0.027,0.26-0.054,0.469-0.079c0.426-0.051,0.739-0.111,0.94-0.182c0.002-0.072,0.003-0.118,0.003-0.138
		c0-0.215-0.05-0.366-0.149-0.454c-0.135-0.119-0.335-0.179-0.601-0.179c-0.248,0-0.431,0.043-0.549,0.13s-0.206,0.241-0.262,0.461
		l-0.516-0.07c0.047-0.221,0.124-0.399,0.231-0.535s0.263-0.24,0.466-0.313s0.438-0.11,0.706-0.11c0.266,0,0.481,0.031,0.647,0.094
		s0.288,0.141,0.366,0.236s0.133,0.214,0.164,0.359c0.018,0.09,0.026,0.252,0.026,0.486v0.703c0,0.49,0.011,0.8,0.034,0.93
		s0.067,0.254,0.133,0.374h-0.551C207.415,50.754,207.379,50.626,207.364,50.48z M207.32,49.302
		c-0.191,0.078-0.479,0.145-0.861,0.199c-0.217,0.031-0.37,0.066-0.46,0.105s-0.159,0.096-0.208,0.171s-0.073,0.159-0.073,0.25
		c0,0.141,0.053,0.258,0.16,0.352s0.262,0.141,0.467,0.141c0.203,0,0.384-0.044,0.542-0.133s0.274-0.21,0.349-0.365
		c0.057-0.119,0.085-0.295,0.085-0.527V49.302z"/>
	<path d="M208.659,50.864v-4.295h0.527v4.295H208.659z"/>
	<path d="M210.006,47.175v-0.606h0.527v0.606H210.006z M210.006,50.864v-3.111h0.527v3.111H210.006z"/>
	<path d="M212.488,50.392l0.076,0.466c-0.148,0.031-0.281,0.047-0.398,0.047c-0.191,0-0.34-0.03-0.445-0.091s-0.18-0.14-0.223-0.239
		s-0.064-0.306-0.064-0.623v-1.79h-0.387v-0.41h0.387v-0.771l0.524-0.316v1.087h0.53v0.41h-0.53v1.819
		c0,0.15,0.009,0.247,0.028,0.29s0.049,0.077,0.091,0.103s0.102,0.038,0.18,0.038C212.315,50.413,212.392,50.406,212.488,50.392z"/>
	<path d="M212.98,52.062l-0.059-0.495c0.115,0.031,0.216,0.047,0.302,0.047c0.117,0,0.211-0.02,0.281-0.059s0.128-0.094,0.173-0.164
		c0.033-0.053,0.087-0.184,0.161-0.393c0.01-0.029,0.025-0.072,0.047-0.129l-1.181-3.117h0.568l0.647,1.802
		c0.084,0.229,0.159,0.469,0.226,0.721c0.061-0.242,0.133-0.479,0.217-0.709l0.665-1.813h0.527l-1.184,3.164
		c-0.127,0.342-0.226,0.577-0.296,0.706c-0.094,0.174-0.201,0.301-0.322,0.382s-0.266,0.122-0.434,0.122
		C213.218,52.126,213.105,52.105,212.98,52.062z"/>
	<path d="M218.678,52.126c-0.291-0.367-0.537-0.797-0.738-1.289s-0.302-1.002-0.302-1.529c0-0.465,0.075-0.91,0.226-1.336
		c0.176-0.494,0.447-0.986,0.814-1.477h0.378c-0.236,0.406-0.393,0.696-0.469,0.87c-0.119,0.27-0.213,0.551-0.281,0.844
		c-0.084,0.365-0.126,0.732-0.126,1.102c0,0.939,0.292,1.878,0.876,2.815H218.678z"/>
	<path d="M219.458,49.935l0.521-0.082c0.029,0.209,0.111,0.369,0.245,0.48s0.321,0.167,0.561,0.167c0.242,0,0.422-0.049,0.539-0.148
		s0.176-0.214,0.176-0.347c0-0.119-0.052-0.213-0.155-0.281c-0.072-0.047-0.252-0.106-0.539-0.179
		c-0.387-0.098-0.655-0.182-0.804-0.253s-0.263-0.17-0.34-0.296s-0.116-0.265-0.116-0.417c0-0.139,0.032-0.267,0.095-0.385
		s0.15-0.216,0.259-0.294c0.082-0.061,0.194-0.112,0.335-0.154s0.293-0.063,0.456-0.063c0.244,0,0.458,0.035,0.643,0.105
		s0.321,0.166,0.409,0.286s0.148,0.281,0.182,0.482l-0.516,0.07c-0.023-0.16-0.091-0.285-0.204-0.375s-0.271-0.135-0.476-0.135
		c-0.242,0-0.415,0.04-0.519,0.12s-0.155,0.174-0.155,0.281c0,0.068,0.021,0.13,0.064,0.185c0.043,0.057,0.11,0.104,0.202,0.141
		c0.053,0.02,0.208,0.064,0.466,0.135c0.373,0.1,0.633,0.181,0.781,0.245s0.263,0.156,0.347,0.277s0.126,0.271,0.126,0.451
		c0,0.176-0.051,0.341-0.154,0.497s-0.25,0.275-0.444,0.36s-0.412,0.127-0.656,0.127c-0.404,0-0.712-0.084-0.924-0.252
		S219.516,50.265,219.458,49.935z"/>
	<path d="M222.671,47.175v-0.606h0.527v0.606H222.671z M222.671,50.864v-3.111h0.527v3.111H222.671z"/>
	<path d="M224.001,50.864v-3.111h0.472v0.437c0.098-0.152,0.228-0.275,0.39-0.368s0.347-0.139,0.554-0.139
		c0.23,0,0.419,0.048,0.567,0.144s0.251,0.229,0.312,0.401c0.246-0.363,0.566-0.545,0.961-0.545c0.309,0,0.546,0.085,0.712,0.256
		s0.249,0.434,0.249,0.79v2.136h-0.524v-1.96c0-0.211-0.017-0.363-0.051-0.456s-0.096-0.167-0.186-0.224s-0.195-0.085-0.316-0.085
		c-0.219,0-0.4,0.073-0.545,0.218s-0.217,0.378-0.217,0.699v1.808h-0.527v-2.021c0-0.234-0.043-0.41-0.129-0.527
		s-0.227-0.176-0.422-0.176c-0.148,0-0.286,0.039-0.412,0.117s-0.217,0.192-0.274,0.343s-0.085,0.367-0.085,0.65v1.614H224.001z"/>
	<path d="M231.039,50.864v-0.457c-0.242,0.352-0.571,0.527-0.987,0.527c-0.184,0-0.355-0.035-0.514-0.105s-0.277-0.159-0.354-0.265
		s-0.131-0.237-0.163-0.391c-0.021-0.104-0.032-0.268-0.032-0.492v-1.928h0.527v1.726c0,0.275,0.011,0.461,0.032,0.557
		c0.033,0.139,0.104,0.248,0.211,0.327s0.24,0.119,0.398,0.119s0.307-0.041,0.445-0.122s0.237-0.191,0.294-0.331
		s0.086-0.342,0.086-0.608v-1.667h0.527v3.111H231.039z"/>
	<path d="M232.325,50.864v-4.295h0.527v4.295H232.325z"/>
	<path d="M235.7,50.48c-0.195,0.166-0.383,0.283-0.564,0.352s-0.375,0.103-0.582,0.103c-0.342,0-0.604-0.083-0.788-0.25
		s-0.275-0.38-0.275-0.64c0-0.152,0.035-0.292,0.104-0.417s0.16-0.227,0.272-0.303s0.239-0.134,0.379-0.173
		c0.104-0.027,0.26-0.054,0.469-0.079c0.426-0.051,0.739-0.111,0.94-0.182c0.002-0.072,0.003-0.118,0.003-0.138
		c0-0.215-0.05-0.366-0.149-0.454c-0.135-0.119-0.335-0.179-0.601-0.179c-0.248,0-0.431,0.043-0.549,0.13s-0.206,0.241-0.262,0.461
		l-0.516-0.07c0.047-0.221,0.124-0.399,0.231-0.535s0.263-0.24,0.466-0.313s0.438-0.11,0.706-0.11c0.266,0,0.481,0.031,0.647,0.094
		s0.288,0.141,0.366,0.236s0.133,0.214,0.164,0.359c0.018,0.09,0.026,0.252,0.026,0.486v0.703c0,0.49,0.011,0.8,0.034,0.93
		s0.067,0.254,0.133,0.374h-0.551C235.75,50.754,235.715,50.626,235.7,50.48z M235.656,49.302c-0.191,0.078-0.479,0.145-0.861,0.199
		c-0.217,0.031-0.37,0.066-0.46,0.105s-0.159,0.096-0.208,0.171s-0.073,0.159-0.073,0.25c0,0.141,0.053,0.258,0.16,0.352
		s0.262,0.141,0.467,0.141c0.203,0,0.384-0.044,0.542-0.133s0.274-0.21,0.349-0.365c0.057-0.119,0.085-0.295,0.085-0.527V49.302z"/>
	<path d="M238.158,50.392l0.076,0.466c-0.148,0.031-0.281,0.047-0.398,0.047c-0.191,0-0.34-0.03-0.445-0.091s-0.18-0.14-0.223-0.239
		s-0.064-0.306-0.064-0.623v-1.79h-0.387v-0.41h0.387v-0.771l0.524-0.316v1.087h0.53v0.41h-0.53v1.819
		c0,0.15,0.009,0.247,0.028,0.29s0.049,0.077,0.091,0.103s0.102,0.038,0.18,0.038C237.985,50.413,238.062,50.406,238.158,50.392z"/>
	<path d="M238.477,49.308c0-0.576,0.16-1.003,0.48-1.28c0.268-0.23,0.594-0.346,0.979-0.346c0.428,0,0.777,0.14,1.049,0.42
		s0.407,0.667,0.407,1.162c0,0.4-0.06,0.715-0.18,0.945s-0.295,0.408-0.524,0.535s-0.48,0.19-0.751,0.19
		c-0.436,0-0.788-0.14-1.056-0.419S238.477,49.833,238.477,49.308z M239.019,49.308c0,0.398,0.087,0.697,0.261,0.895
		s0.393,0.297,0.656,0.297c0.262,0,0.479-0.1,0.653-0.299s0.261-0.503,0.261-0.911c0-0.385-0.087-0.676-0.262-0.875
		s-0.392-0.297-0.652-0.297c-0.264,0-0.482,0.099-0.656,0.296S239.019,48.91,239.019,49.308z"/>
	<path d="M242.004,50.864v-3.111h0.475v0.472c0.121-0.221,0.233-0.366,0.335-0.437s0.215-0.105,0.338-0.105
		c0.178,0,0.358,0.057,0.542,0.17l-0.182,0.489c-0.129-0.076-0.258-0.114-0.387-0.114c-0.115,0-0.219,0.035-0.311,0.104
		s-0.157,0.166-0.196,0.289c-0.059,0.188-0.088,0.393-0.088,0.615v1.629H242.004z"/>
	<path d="M243.815,50.864v-0.601h0.601v0.601c0,0.221-0.039,0.399-0.117,0.535s-0.202,0.241-0.372,0.315l-0.146-0.226
		c0.111-0.049,0.193-0.121,0.246-0.215s0.082-0.231,0.088-0.409H243.815z"/>
	<path d="M247,50.864v-4.295h0.527v4.295H247z"/>
	<path d="M250.474,49.862l0.545,0.067c-0.086,0.318-0.245,0.565-0.478,0.741s-0.529,0.264-0.891,0.264
		c-0.455,0-0.816-0.14-1.083-0.42s-0.4-0.673-0.4-1.179c0-0.523,0.135-0.93,0.404-1.219s0.619-0.434,1.049-0.434
		c0.416,0,0.756,0.142,1.02,0.425s0.396,0.682,0.396,1.195c0,0.031-0.001,0.078-0.003,0.141h-2.32
		c0.02,0.342,0.116,0.604,0.29,0.785s0.391,0.272,0.65,0.272c0.193,0,0.358-0.051,0.495-0.152S250.394,50.084,250.474,49.862z
		 M248.743,49.009h1.737c-0.023-0.262-0.09-0.458-0.199-0.589c-0.168-0.203-0.386-0.305-0.653-0.305
		c-0.242,0-0.446,0.081-0.611,0.243S248.76,48.738,248.743,49.009z"/>
	<path d="M253.711,50.48c-0.195,0.166-0.383,0.283-0.564,0.352s-0.375,0.103-0.582,0.103c-0.342,0-0.604-0.083-0.788-0.25
		s-0.275-0.38-0.275-0.64c0-0.152,0.035-0.292,0.104-0.417s0.16-0.227,0.272-0.303s0.239-0.134,0.379-0.173
		c0.104-0.027,0.26-0.054,0.469-0.079c0.426-0.051,0.739-0.111,0.94-0.182c0.002-0.072,0.003-0.118,0.003-0.138
		c0-0.215-0.05-0.366-0.149-0.454c-0.135-0.119-0.335-0.179-0.601-0.179c-0.248,0-0.431,0.043-0.549,0.13s-0.206,0.241-0.262,0.461
		l-0.516-0.07c0.047-0.221,0.124-0.399,0.231-0.535s0.263-0.24,0.466-0.313s0.438-0.11,0.706-0.11c0.266,0,0.481,0.031,0.647,0.094
		s0.288,0.141,0.366,0.236s0.133,0.214,0.164,0.359c0.018,0.09,0.026,0.252,0.026,0.486v0.703c0,0.49,0.011,0.8,0.034,0.93
		s0.067,0.254,0.133,0.374h-0.551C253.762,50.754,253.727,50.626,253.711,50.48z M253.667,49.302
		c-0.191,0.078-0.479,0.145-0.861,0.199c-0.217,0.031-0.37,0.066-0.46,0.105s-0.159,0.096-0.208,0.171s-0.073,0.159-0.073,0.25
		c0,0.141,0.053,0.258,0.16,0.352s0.262,0.141,0.467,0.141c0.203,0,0.384-0.044,0.542-0.133s0.274-0.21,0.349-0.365
		c0.057-0.119,0.085-0.295,0.085-0.527V49.302z"/>
	<path d="M255.012,50.864v-3.111h0.475v0.472c0.121-0.221,0.233-0.366,0.335-0.437s0.215-0.105,0.338-0.105
		c0.178,0,0.358,0.057,0.542,0.17l-0.182,0.489c-0.129-0.076-0.258-0.114-0.387-0.114c-0.115,0-0.219,0.035-0.311,0.104
		s-0.157,0.166-0.196,0.289c-0.059,0.188-0.088,0.393-0.088,0.615v1.629H255.012z"/>
	<path d="M257.016,50.864v-3.111h0.475v0.442c0.229-0.342,0.559-0.513,0.99-0.513c0.188,0,0.36,0.034,0.517,0.101
		s0.275,0.156,0.353,0.265s0.133,0.239,0.164,0.39c0.02,0.098,0.029,0.269,0.029,0.513v1.913h-0.527v-1.893
		c0-0.215-0.021-0.375-0.062-0.482s-0.114-0.191-0.218-0.255s-0.227-0.095-0.368-0.095c-0.225,0-0.418,0.071-0.582,0.214
		s-0.245,0.413-0.245,0.812v1.699H257.016z"/>
	<path d="M262.483,49.862l0.545,0.067c-0.086,0.318-0.245,0.565-0.478,0.741s-0.529,0.264-0.891,0.264
		c-0.455,0-0.816-0.14-1.083-0.42s-0.4-0.673-0.4-1.179c0-0.523,0.135-0.93,0.404-1.219s0.619-0.434,1.049-0.434
		c0.416,0,0.756,0.142,1.02,0.425s0.396,0.682,0.396,1.195c0,0.031-0.001,0.078-0.003,0.141h-2.32
		c0.02,0.342,0.116,0.604,0.29,0.785s0.391,0.272,0.65,0.272c0.193,0,0.358-0.051,0.495-0.152S262.403,50.084,262.483,49.862z
		 M260.751,49.009h1.737c-0.023-0.262-0.09-0.458-0.199-0.589c-0.168-0.203-0.386-0.305-0.653-0.305
		c-0.242,0-0.446,0.081-0.611,0.243S260.769,48.738,260.751,49.009z"/>
	<path d="M263.684,50.864v-3.111h0.475v0.472c0.121-0.221,0.233-0.366,0.335-0.437s0.215-0.105,0.338-0.105
		c0.178,0,0.358,0.057,0.542,0.17l-0.182,0.489c-0.129-0.076-0.258-0.114-0.387-0.114c-0.115,0-0.219,0.035-0.311,0.104
		s-0.157,0.166-0.196,0.289c-0.059,0.188-0.088,0.393-0.088,0.615v1.629H263.684z"/>
	<path d="M265.495,50.864v-0.601h0.601v0.601c0,0.221-0.039,0.399-0.117,0.535s-0.202,0.241-0.372,0.315l-0.146-0.226
		c0.111-0.049,0.193-0.121,0.246-0.215s0.082-0.231,0.088-0.409H265.495z"/>
	<path d="M270.821,49.862l0.545,0.067c-0.086,0.318-0.245,0.565-0.478,0.741s-0.529,0.264-0.891,0.264
		c-0.455,0-0.816-0.14-1.083-0.42s-0.4-0.673-0.4-1.179c0-0.523,0.135-0.93,0.404-1.219s0.619-0.434,1.049-0.434
		c0.416,0,0.756,0.142,1.02,0.425s0.396,0.682,0.396,1.195c0,0.031-0.001,0.078-0.003,0.141h-2.32
		c0.02,0.342,0.116,0.604,0.29,0.785S269.741,50.5,270,50.5c0.193,0,0.358-0.051,0.495-0.152S270.741,50.084,270.821,49.862z
		 M269.089,49.009h1.737c-0.023-0.262-0.09-0.458-0.199-0.589c-0.168-0.203-0.386-0.305-0.653-0.305
		c-0.242,0-0.446,0.081-0.611,0.243S269.107,48.738,269.089,49.009z"/>
	<path d="M272.892,50.864l-1.184-3.111h0.557l0.668,1.863c0.072,0.201,0.139,0.41,0.199,0.627c0.047-0.164,0.112-0.361,0.196-0.592
		l0.691-1.898h0.542l-1.178,3.111H272.892z"/>
	<path d="M277.058,50.48c-0.195,0.166-0.383,0.283-0.564,0.352s-0.375,0.103-0.582,0.103c-0.342,0-0.604-0.083-0.788-0.25
		s-0.275-0.38-0.275-0.64c0-0.152,0.035-0.292,0.104-0.417s0.16-0.227,0.272-0.303s0.239-0.134,0.379-0.173
		c0.104-0.027,0.26-0.054,0.469-0.079c0.426-0.051,0.739-0.111,0.94-0.182c0.002-0.072,0.003-0.118,0.003-0.138
		c0-0.215-0.05-0.366-0.149-0.454c-0.135-0.119-0.335-0.179-0.601-0.179c-0.248,0-0.431,0.043-0.549,0.13s-0.206,0.241-0.262,0.461
		l-0.516-0.07c0.047-0.221,0.124-0.399,0.231-0.535s0.263-0.24,0.466-0.313s0.438-0.11,0.706-0.11c0.266,0,0.481,0.031,0.647,0.094
		s0.288,0.141,0.366,0.236s0.133,0.214,0.164,0.359c0.018,0.09,0.026,0.252,0.026,0.486v0.703c0,0.49,0.011,0.8,0.034,0.93
		s0.067,0.254,0.133,0.374h-0.551C277.109,50.754,277.074,50.626,277.058,50.48z M277.014,49.302
		c-0.191,0.078-0.479,0.145-0.861,0.199c-0.217,0.031-0.37,0.066-0.46,0.105s-0.159,0.096-0.208,0.171s-0.073,0.159-0.073,0.25
		c0,0.141,0.053,0.258,0.16,0.352s0.262,0.141,0.467,0.141c0.203,0,0.384-0.044,0.542-0.133s0.274-0.21,0.349-0.365
		c0.057-0.119,0.085-0.295,0.085-0.527V49.302z"/>
	<path d="M278.353,50.864v-4.295h0.527v4.295H278.353z"/>
	<path d="M281.737,50.864v-0.457c-0.242,0.352-0.571,0.527-0.987,0.527c-0.184,0-0.355-0.035-0.514-0.105s-0.277-0.159-0.354-0.265
		s-0.131-0.237-0.163-0.391c-0.021-0.104-0.032-0.268-0.032-0.492v-1.928h0.527v1.726c0,0.275,0.011,0.461,0.032,0.557
		c0.033,0.139,0.104,0.248,0.211,0.327s0.24,0.119,0.398,0.119s0.307-0.041,0.445-0.122s0.237-0.191,0.294-0.331
		s0.086-0.342,0.086-0.608v-1.667h0.527v3.111H281.737z"/>
	<path d="M285.065,50.48c-0.195,0.166-0.383,0.283-0.564,0.352s-0.375,0.103-0.582,0.103c-0.342,0-0.604-0.083-0.788-0.25
		s-0.275-0.38-0.275-0.64c0-0.152,0.035-0.292,0.104-0.417s0.16-0.227,0.272-0.303s0.239-0.134,0.379-0.173
		c0.104-0.027,0.26-0.054,0.469-0.079c0.426-0.051,0.739-0.111,0.94-0.182c0.002-0.072,0.003-0.118,0.003-0.138
		c0-0.215-0.05-0.366-0.149-0.454c-0.135-0.119-0.335-0.179-0.601-0.179c-0.248,0-0.431,0.043-0.549,0.13s-0.206,0.241-0.262,0.461
		l-0.516-0.07c0.047-0.221,0.124-0.399,0.231-0.535s0.263-0.24,0.466-0.313s0.438-0.11,0.706-0.11c0.266,0,0.481,0.031,0.647,0.094
		s0.288,0.141,0.366,0.236s0.133,0.214,0.164,0.359c0.018,0.09,0.026,0.252,0.026,0.486v0.703c0,0.49,0.011,0.8,0.034,0.93
		s0.067,0.254,0.133,0.374h-0.551C285.116,50.754,285.081,50.626,285.065,50.48z M285.021,49.302
		c-0.191,0.078-0.479,0.145-0.861,0.199c-0.217,0.031-0.37,0.066-0.46,0.105s-0.159,0.096-0.208,0.171s-0.073,0.159-0.073,0.25
		c0,0.141,0.053,0.258,0.16,0.352s0.262,0.141,0.467,0.141c0.203,0,0.384-0.044,0.542-0.133s0.274-0.21,0.349-0.365
		c0.057-0.119,0.085-0.295,0.085-0.527V49.302z"/>
	<path d="M287.523,50.392l0.076,0.466c-0.148,0.031-0.281,0.047-0.398,0.047c-0.191,0-0.34-0.03-0.445-0.091s-0.18-0.14-0.223-0.239
		s-0.064-0.306-0.064-0.623v-1.79h-0.387v-0.41h0.387v-0.771l0.524-0.316v1.087h0.53v0.41h-0.53v1.819
		c0,0.15,0.009,0.247,0.028,0.29s0.049,0.077,0.091,0.103s0.102,0.038,0.18,0.038C287.35,50.413,287.427,50.406,287.523,50.392z"/>
	<path d="M287.842,49.308c0-0.576,0.16-1.003,0.48-1.28c0.268-0.23,0.594-0.346,0.979-0.346c0.428,0,0.777,0.14,1.049,0.42
		s0.407,0.667,0.407,1.162c0,0.4-0.06,0.715-0.18,0.945s-0.295,0.408-0.524,0.535s-0.48,0.19-0.751,0.19
		c-0.436,0-0.788-0.14-1.056-0.419S287.842,49.833,287.842,49.308z M288.384,49.308c0,0.398,0.087,0.697,0.261,0.895
		s0.393,0.297,0.656,0.297c0.262,0,0.479-0.1,0.653-0.299s0.261-0.503,0.261-0.911c0-0.385-0.087-0.676-0.262-0.875
		s-0.392-0.297-0.652-0.297c-0.264,0-0.482,0.099-0.656,0.296S288.384,48.91,288.384,49.308z"/>
	<path d="M291.37,50.864v-3.111h0.475v0.472c0.121-0.221,0.233-0.366,0.335-0.437s0.215-0.105,0.338-0.105
		c0.178,0,0.358,0.057,0.542,0.17l-0.182,0.489c-0.129-0.076-0.258-0.114-0.387-0.114c-0.115,0-0.219,0.035-0.311,0.104
		s-0.157,0.166-0.196,0.289c-0.059,0.188-0.088,0.393-0.088,0.615v1.629H291.37z"/>
	<path d="M293.719,52.126h-0.378c0.584-0.938,0.876-1.876,0.876-2.815c0-0.367-0.042-0.731-0.126-1.093
		c-0.066-0.293-0.159-0.574-0.278-0.844c-0.076-0.176-0.233-0.469-0.472-0.879h0.378c0.367,0.49,0.639,0.982,0.814,1.477
		c0.15,0.426,0.226,0.871,0.226,1.336c0,0.527-0.101,1.037-0.303,1.529S294.008,51.759,293.719,52.126z"/>
</g>
<path class="st2" d="M66.331,54H50.669C47.551,54,45,51.449,45,48.331V32.669C45,29.551,47.551,27,50.669,27h15.661
	C69.449,27,72,29.551,72,32.669v15.661C72,51.449,69.449,54,66.331,54z"/>
<path class="st2" d="M345.331,54h-15.661c-3.118,0-5.669-2.551-5.669-5.669V32.669c0-3.118,2.551-5.669,5.669-5.669h15.661
	c3.118,0,5.669,2.551,5.669,5.669v15.661C351,51.449,348.449,54,345.331,54z"/>
<path class="st3" d="M339.165,45h-3.331c-1.559,0-2.835-1.276-2.835-2.835v-3.331c0-1.559,1.276-2.835,2.835-2.835h3.331
	c1.559,0,2.835,1.276,2.835,2.835v3.331C342,43.724,340.724,45,339.165,45z"/>
<path class="st4" d="M30.331,54H14.669C11.551,54,9,51.449,9,48.331V32.669C9,29.551,11.551,27,14.669,27h15.661
	C33.449,27,36,29.551,36,32.669v15.661C36,51.449,33.449,54,30.331,54z"/>
<g>
	<path d="M470.062,44.371l0.102,0.621c-0.198,0.042-0.375,0.062-0.531,0.062c-0.255,0-0.453-0.041-0.594-0.121
		s-0.24-0.187-0.297-0.318s-0.086-0.408-0.086-0.83v-2.387h-0.516v-0.547h0.516v-1.027l0.699-0.422v1.449h0.707v0.547h-0.707v2.426
		c0,0.201,0.012,0.33,0.037,0.387s0.065,0.103,0.121,0.137s0.136,0.051,0.24,0.051C469.832,44.398,469.935,44.389,470.062,44.371z"
		/>
	<path d="M470.742,45v-4.148h0.633v0.629c0.162-0.294,0.311-0.488,0.447-0.582s0.287-0.141,0.451-0.141
		c0.237,0,0.478,0.076,0.723,0.227l-0.242,0.652c-0.172-0.102-0.344-0.152-0.516-0.152c-0.154,0-0.292,0.046-0.414,0.139
		s-0.209,0.221-0.262,0.385c-0.078,0.25-0.117,0.523-0.117,0.82V45H470.742z"/>
	<path d="M476.121,44.488c-0.26,0.221-0.511,0.377-0.752,0.469s-0.5,0.137-0.775,0.137c-0.456,0-0.806-0.111-1.051-0.334
		s-0.367-0.507-0.367-0.854c0-0.203,0.046-0.389,0.139-0.557s0.213-0.303,0.363-0.404s0.318-0.178,0.506-0.23
		c0.138-0.037,0.346-0.072,0.625-0.105c0.568-0.068,0.986-0.148,1.254-0.242c0.002-0.096,0.004-0.158,0.004-0.184
		c0-0.287-0.066-0.488-0.199-0.605c-0.18-0.159-0.447-0.238-0.801-0.238c-0.331,0-0.575,0.058-0.732,0.174s-0.274,0.321-0.35,0.615
		l-0.688-0.094c0.062-0.294,0.166-0.532,0.309-0.713s0.35-0.32,0.621-0.418s0.584-0.146,0.941-0.146
		c0.354,0,0.642,0.042,0.863,0.125s0.384,0.188,0.488,0.314s0.177,0.286,0.219,0.479c0.023,0.12,0.035,0.336,0.035,0.648v0.938
		c0,0.654,0.015,1.067,0.045,1.24s0.089,0.339,0.178,0.498h-0.734C476.189,44.854,476.142,44.684,476.121,44.488z M476.062,42.918
		c-0.255,0.104-0.638,0.193-1.148,0.266c-0.289,0.042-0.494,0.088-0.613,0.141s-0.212,0.128-0.277,0.229s-0.098,0.211-0.098,0.334
		c0,0.188,0.071,0.344,0.213,0.469s0.35,0.188,0.623,0.188c0.271,0,0.512-0.059,0.723-0.178s0.366-0.281,0.465-0.486
		c0.076-0.159,0.113-0.393,0.113-0.703V42.918z"/>
	<path d="M477.867,40.082v-0.809h0.703v0.809H477.867z M477.867,45v-4.148h0.703V45H477.867z"/>
	<path d="M479.641,45v-4.148h0.633v0.59c0.305-0.456,0.745-0.684,1.32-0.684c0.25,0,0.48,0.045,0.689,0.135s0.367,0.208,0.471,0.354
		s0.177,0.319,0.219,0.52c0.026,0.13,0.039,0.358,0.039,0.684V45h-0.703v-2.523c0-0.287-0.027-0.5-0.082-0.643
		s-0.152-0.255-0.291-0.34s-0.303-0.127-0.49-0.127c-0.299,0-0.558,0.095-0.775,0.285s-0.326,0.551-0.326,1.082V45H479.641z"/>
	<path d="M486.312,45v-4.148h0.629v0.582c0.13-0.203,0.303-0.367,0.52-0.49s0.462-0.186,0.738-0.186
		c0.307,0,0.559,0.064,0.756,0.191s0.335,0.306,0.416,0.535c0.328-0.484,0.755-0.727,1.281-0.727c0.412,0,0.728,0.114,0.949,0.342
		s0.332,0.579,0.332,1.053V45h-0.699v-2.613c0-0.281-0.023-0.484-0.068-0.607s-0.128-0.223-0.248-0.299s-0.26-0.113-0.422-0.113
		c-0.292,0-0.534,0.097-0.727,0.291s-0.289,0.504-0.289,0.932V45h-0.703v-2.695c0-0.312-0.057-0.547-0.172-0.703
		s-0.302-0.234-0.562-0.234c-0.198,0-0.381,0.052-0.549,0.156s-0.29,0.256-0.365,0.457s-0.113,0.49-0.113,0.867V45H486.312z"/>
	<path d="M492.715,42.926c0-0.768,0.213-1.337,0.641-1.707c0.357-0.307,0.792-0.461,1.305-0.461c0.57,0,1.037,0.187,1.398,0.561
		s0.543,0.89,0.543,1.549c0,0.534-0.08,0.954-0.24,1.26s-0.393,0.543-0.699,0.713s-0.64,0.254-1.002,0.254
		c-0.581,0-1.05-0.186-1.408-0.559S492.715,43.626,492.715,42.926z M493.438,42.926c0,0.531,0.116,0.929,0.348,1.193
		s0.523,0.396,0.875,0.396c0.349,0,0.639-0.133,0.871-0.398s0.348-0.67,0.348-1.215c0-0.513-0.117-0.902-0.35-1.166
		s-0.523-0.396-0.869-0.396c-0.352,0-0.643,0.131-0.875,0.395S493.438,42.395,493.438,42.926z"/>
	<path d="M500.117,45v-0.523c-0.263,0.412-0.65,0.617-1.16,0.617c-0.331,0-0.635-0.091-0.912-0.273s-0.492-0.437-0.645-0.764
		s-0.229-0.703-0.229-1.127c0-0.414,0.069-0.79,0.207-1.127s0.345-0.596,0.621-0.775s0.584-0.27,0.926-0.27
		c0.25,0,0.473,0.053,0.668,0.158s0.354,0.243,0.477,0.412v-2.055h0.699V45H500.117z M497.895,42.93
		c0,0.531,0.112,0.928,0.336,1.191s0.488,0.395,0.793,0.395c0.307,0,0.568-0.125,0.783-0.377s0.322-0.635,0.322-1.15
		c0-0.568-0.109-0.984-0.328-1.25s-0.488-0.398-0.809-0.398c-0.312,0-0.574,0.127-0.783,0.383S497.895,42.38,497.895,42.93z"/>
	<path d="M504.715,43.664l0.727,0.09c-0.115,0.424-0.327,0.754-0.637,0.988s-0.706,0.352-1.188,0.352
		c-0.607,0-1.088-0.187-1.443-0.561s-0.533-0.898-0.533-1.572c0-0.698,0.18-1.24,0.539-1.625s0.826-0.578,1.398-0.578
		c0.555,0,1.008,0.189,1.359,0.566s0.527,0.909,0.527,1.594c0,0.042-0.001,0.104-0.004,0.188h-3.094
		c0.026,0.456,0.155,0.805,0.387,1.047s0.521,0.363,0.867,0.363c0.258,0,0.478-0.068,0.66-0.203S504.608,43.961,504.715,43.664z
		 M502.406,42.527h2.316c-0.031-0.349-0.12-0.611-0.266-0.785c-0.224-0.271-0.514-0.406-0.871-0.406
		c-0.323,0-0.594,0.108-0.814,0.324S502.43,42.166,502.406,42.527z"/>
	<path d="M506.309,45v-5.727h0.703V45H506.309z"/>
	<path d="M510.062,42.926c0-0.768,0.213-1.337,0.641-1.707c0.357-0.307,0.792-0.461,1.305-0.461c0.57,0,1.037,0.187,1.398,0.561
		s0.543,0.89,0.543,1.549c0,0.534-0.08,0.954-0.24,1.26s-0.393,0.543-0.699,0.713s-0.64,0.254-1.002,0.254
		c-0.581,0-1.05-0.186-1.408-0.559S510.062,43.626,510.062,42.926z M510.785,42.926c0,0.531,0.116,0.929,0.348,1.193
		s0.523,0.396,0.875,0.396c0.349,0,0.639-0.133,0.871-0.398s0.348-0.67,0.348-1.215c0-0.513-0.117-0.902-0.35-1.166
		s-0.523-0.396-0.869-0.396c-0.352,0-0.643,0.131-0.875,0.395S510.785,42.395,510.785,42.926z"/>
	<path d="M514.773,45v-4.148h0.633v0.59c0.305-0.456,0.745-0.684,1.32-0.684c0.25,0,0.48,0.045,0.689,0.135s0.367,0.208,0.471,0.354
		s0.177,0.319,0.219,0.52c0.026,0.13,0.039,0.358,0.039,0.684V45h-0.703v-2.523c0-0.287-0.027-0.5-0.082-0.643
		s-0.152-0.255-0.291-0.34s-0.303-0.127-0.49-0.127c-0.299,0-0.558,0.095-0.775,0.285s-0.326,0.551-0.326,1.082V45H514.773z"/>
	<path d="M524.285,43.664l0.727,0.09c-0.115,0.424-0.327,0.754-0.637,0.988s-0.706,0.352-1.188,0.352
		c-0.607,0-1.088-0.187-1.443-0.561s-0.533-0.898-0.533-1.572c0-0.698,0.18-1.24,0.539-1.625s0.826-0.578,1.398-0.578
		c0.555,0,1.008,0.189,1.359,0.566s0.527,0.909,0.527,1.594c0,0.042-0.001,0.104-0.004,0.188h-3.094
		c0.026,0.456,0.155,0.805,0.387,1.047s0.521,0.363,0.867,0.363c0.258,0,0.478-0.068,0.66-0.203S524.178,43.961,524.285,43.664z
		 M521.977,42.527h2.316c-0.031-0.349-0.12-0.611-0.266-0.785c-0.224-0.271-0.514-0.406-0.871-0.406
		c-0.323,0-0.594,0.108-0.814,0.324S522,42.166,521.977,42.527z"/>
	<path d="M525.426,45l1.516-2.156l-1.402-1.992h0.879l0.637,0.973c0.12,0.185,0.216,0.34,0.289,0.465
		c0.115-0.172,0.22-0.324,0.316-0.457l0.699-0.98h0.84l-1.434,1.953L529.309,45h-0.863l-0.852-1.289l-0.227-0.348L526.277,45
		H525.426z"/>
	<path d="M529.895,46.59v-5.738h0.641v0.539c0.151-0.211,0.322-0.369,0.512-0.475s0.42-0.158,0.691-0.158
		c0.354,0,0.667,0.091,0.938,0.273s0.475,0.439,0.613,0.771s0.207,0.696,0.207,1.092c0,0.424-0.076,0.807-0.229,1.146
		s-0.374,0.6-0.664,0.781s-0.596,0.271-0.916,0.271c-0.234,0-0.445-0.049-0.631-0.148s-0.339-0.224-0.459-0.375v2.02H529.895z
		 M530.531,42.949c0,0.534,0.108,0.928,0.324,1.184s0.478,0.383,0.785,0.383c0.312,0,0.58-0.132,0.803-0.396
		s0.334-0.674,0.334-1.229c0-0.529-0.109-0.924-0.326-1.188s-0.477-0.395-0.779-0.395c-0.299,0-0.564,0.14-0.795,0.42
		S530.531,42.416,530.531,42.949z"/>
	<path d="M537.184,43.664l0.727,0.09c-0.115,0.424-0.327,0.754-0.637,0.988s-0.706,0.352-1.188,0.352
		c-0.607,0-1.088-0.187-1.443-0.561s-0.533-0.898-0.533-1.572c0-0.698,0.18-1.24,0.539-1.625s0.826-0.578,1.398-0.578
		c0.555,0,1.008,0.189,1.359,0.566s0.527,0.909,0.527,1.594c0,0.042-0.001,0.104-0.004,0.188h-3.094
		c0.026,0.456,0.155,0.805,0.387,1.047s0.521,0.363,0.867,0.363c0.258,0,0.478-0.068,0.66-0.203S537.077,43.961,537.184,43.664z
		 M534.875,42.527h2.316c-0.031-0.349-0.12-0.611-0.266-0.785c-0.224-0.271-0.514-0.406-0.871-0.406
		c-0.323,0-0.594,0.108-0.814,0.324S534.898,42.166,534.875,42.527z"/>
	<path d="M538.785,45v-4.148h0.633v0.629c0.162-0.294,0.311-0.488,0.447-0.582s0.287-0.141,0.451-0.141
		c0.237,0,0.478,0.076,0.723,0.227l-0.242,0.652c-0.172-0.102-0.344-0.152-0.516-0.152c-0.154,0-0.292,0.046-0.414,0.139
		s-0.209,0.221-0.262,0.385c-0.078,0.25-0.117,0.523-0.117,0.82V45H538.785z"/>
	<path d="M541.461,40.082v-0.809h0.703v0.809H541.461z M541.461,45v-4.148h0.703V45H541.461z"/>
	<path d="M543.234,45v-4.148h0.629v0.582c0.13-0.203,0.303-0.367,0.52-0.49s0.462-0.186,0.738-0.186
		c0.307,0,0.559,0.064,0.756,0.191s0.335,0.306,0.416,0.535c0.328-0.484,0.755-0.727,1.281-0.727c0.412,0,0.728,0.114,0.949,0.342
		s0.332,0.579,0.332,1.053V45h-0.699v-2.613c0-0.281-0.023-0.484-0.068-0.607s-0.128-0.223-0.248-0.299s-0.26-0.113-0.422-0.113
		c-0.292,0-0.534,0.097-0.727,0.291s-0.289,0.504-0.289,0.932V45h-0.703v-2.695c0-0.312-0.057-0.547-0.172-0.703
		s-0.302-0.234-0.562-0.234c-0.198,0-0.381,0.052-0.549,0.156s-0.29,0.256-0.365,0.457s-0.113,0.49-0.113,0.867V45H543.234z"/>
	<path d="M552.738,43.664l0.727,0.09c-0.115,0.424-0.327,0.754-0.637,0.988s-0.706,0.352-1.188,0.352
		c-0.607,0-1.088-0.187-1.443-0.561s-0.533-0.898-0.533-1.572c0-0.698,0.18-1.24,0.539-1.625s0.826-0.578,1.398-0.578
		c0.555,0,1.008,0.189,1.359,0.566s0.527,0.909,0.527,1.594c0,0.042-0.001,0.104-0.004,0.188h-3.094
		c0.026,0.456,0.155,0.805,0.387,1.047s0.521,0.363,0.867,0.363c0.258,0,0.478-0.068,0.66-0.203S552.631,43.961,552.738,43.664z
		 M550.43,42.527h2.316c-0.031-0.349-0.12-0.611-0.266-0.785c-0.224-0.271-0.514-0.406-0.871-0.406
		c-0.323,0-0.594,0.108-0.814,0.324S550.453,42.166,550.43,42.527z"/>
	<path d="M554.348,45v-4.148h0.633v0.59c0.305-0.456,0.745-0.684,1.32-0.684c0.25,0,0.48,0.045,0.689,0.135s0.367,0.208,0.471,0.354
		s0.177,0.319,0.219,0.52c0.026,0.13,0.039,0.358,0.039,0.684V45h-0.703v-2.523c0-0.287-0.027-0.5-0.082-0.643
		s-0.152-0.255-0.291-0.34s-0.303-0.127-0.49-0.127c-0.299,0-0.558,0.095-0.775,0.285s-0.326,0.551-0.326,1.082V45H554.348z"/>
	<path d="M560.332,44.371l0.102,0.621c-0.198,0.042-0.375,0.062-0.531,0.062c-0.255,0-0.453-0.041-0.594-0.121
		s-0.24-0.187-0.297-0.318s-0.086-0.408-0.086-0.83v-2.387h-0.516v-0.547h0.516v-1.027l0.699-0.422v1.449h0.707v0.547h-0.707v2.426
		c0,0.201,0.012,0.33,0.037,0.387s0.065,0.103,0.121,0.137s0.136,0.051,0.24,0.051C560.102,44.398,560.205,44.389,560.332,44.371z"
		/>
	<path d="M563.727,44.488c-0.26,0.221-0.511,0.377-0.752,0.469s-0.5,0.137-0.775,0.137c-0.456,0-0.806-0.111-1.051-0.334
		s-0.367-0.507-0.367-0.854c0-0.203,0.046-0.389,0.139-0.557s0.213-0.303,0.363-0.404s0.318-0.178,0.506-0.23
		c0.138-0.037,0.346-0.072,0.625-0.105c0.568-0.068,0.986-0.148,1.254-0.242c0.002-0.096,0.004-0.158,0.004-0.184
		c0-0.287-0.066-0.488-0.199-0.605c-0.18-0.159-0.447-0.238-0.801-0.238c-0.331,0-0.575,0.058-0.732,0.174s-0.274,0.321-0.35,0.615
		l-0.688-0.094c0.062-0.294,0.166-0.532,0.309-0.713s0.35-0.32,0.621-0.418s0.584-0.146,0.941-0.146
		c0.354,0,0.642,0.042,0.863,0.125s0.384,0.188,0.488,0.314s0.177,0.286,0.219,0.479c0.023,0.12,0.035,0.336,0.035,0.648v0.938
		c0,0.654,0.015,1.067,0.045,1.24s0.089,0.339,0.178,0.498h-0.734C563.794,44.854,563.748,44.684,563.727,44.488z M563.668,42.918
		c-0.255,0.104-0.638,0.193-1.148,0.266c-0.289,0.042-0.494,0.088-0.613,0.141s-0.212,0.128-0.277,0.229s-0.098,0.211-0.098,0.334
		c0,0.188,0.071,0.344,0.213,0.469s0.35,0.188,0.623,0.188c0.271,0,0.512-0.059,0.723-0.178s0.366-0.281,0.465-0.486
		c0.076-0.159,0.113-0.393,0.113-0.703V42.918z"/>
	<path d="M565.453,45v-5.727h0.703V45H565.453z"/>
	<path d="M572.16,45v-0.523c-0.263,0.412-0.65,0.617-1.16,0.617c-0.331,0-0.635-0.091-0.912-0.273s-0.492-0.437-0.645-0.764
		s-0.229-0.703-0.229-1.127c0-0.414,0.069-0.79,0.207-1.127s0.345-0.596,0.621-0.775s0.584-0.27,0.926-0.27
		c0.25,0,0.473,0.053,0.668,0.158s0.354,0.243,0.477,0.412v-2.055h0.699V45H572.16z M569.938,42.93c0,0.531,0.112,0.928,0.336,1.191
		s0.488,0.395,0.793,0.395c0.307,0,0.568-0.125,0.783-0.377s0.322-0.635,0.322-1.15c0-0.568-0.109-0.984-0.328-1.25
		s-0.488-0.398-0.809-0.398c-0.312,0-0.574,0.127-0.783,0.383S569.938,42.38,569.938,42.93z"/>
	<path d="M576.625,44.488c-0.26,0.221-0.511,0.377-0.752,0.469s-0.5,0.137-0.775,0.137c-0.456,0-0.806-0.111-1.051-0.334
		s-0.367-0.507-0.367-0.854c0-0.203,0.046-0.389,0.139-0.557s0.213-0.303,0.363-0.404s0.318-0.178,0.506-0.23
		c0.138-0.037,0.346-0.072,0.625-0.105c0.568-0.068,0.986-0.148,1.254-0.242c0.002-0.096,0.004-0.158,0.004-0.184
		c0-0.287-0.066-0.488-0.199-0.605c-0.18-0.159-0.447-0.238-0.801-0.238c-0.331,0-0.575,0.058-0.732,0.174s-0.274,0.321-0.35,0.615
		l-0.688-0.094c0.062-0.294,0.166-0.532,0.309-0.713s0.35-0.32,0.621-0.418s0.584-0.146,0.941-0.146
		c0.354,0,0.642,0.042,0.863,0.125s0.384,0.188,0.488,0.314s0.177,0.286,0.219,0.479c0.023,0.12,0.035,0.336,0.035,0.648v0.938
		c0,0.654,0.015,1.067,0.045,1.24s0.089,0.339,0.178,0.498h-0.734C576.693,44.854,576.646,44.684,576.625,44.488z M576.566,42.918
		c-0.255,0.104-0.638,0.193-1.148,0.266c-0.289,0.042-0.494,0.088-0.613,0.141s-0.212,0.128-0.277,0.229s-0.098,0.211-0.098,0.334
		c0,0.188,0.071,0.344,0.213,0.469s0.35,0.188,0.623,0.188c0.271,0,0.512-0.059,0.723-0.178s0.366-0.281,0.465-0.486
		c0.076-0.159,0.113-0.393,0.113-0.703V42.918z"/>
	<path d="M579.902,44.371l0.102,0.621c-0.198,0.042-0.375,0.062-0.531,0.062c-0.255,0-0.453-0.041-0.594-0.121
		s-0.24-0.187-0.297-0.318s-0.086-0.408-0.086-0.83v-2.387h-0.516v-0.547h0.516v-1.027l0.699-0.422v1.449h0.707v0.547h-0.707v2.426
		c0,0.201,0.012,0.33,0.037,0.387s0.065,0.103,0.121,0.137s0.136,0.051,0.24,0.051C579.672,44.398,579.775,44.389,579.902,44.371z"
		/>
	<path d="M583.297,44.488c-0.26,0.221-0.511,0.377-0.752,0.469s-0.5,0.137-0.775,0.137c-0.456,0-0.806-0.111-1.051-0.334
		s-0.367-0.507-0.367-0.854c0-0.203,0.046-0.389,0.139-0.557s0.213-0.303,0.363-0.404s0.318-0.178,0.506-0.23
		c0.138-0.037,0.346-0.072,0.625-0.105c0.568-0.068,0.986-0.148,1.254-0.242c0.002-0.096,0.004-0.158,0.004-0.184
		c0-0.287-0.066-0.488-0.199-0.605c-0.18-0.159-0.447-0.238-0.801-0.238c-0.331,0-0.575,0.058-0.732,0.174s-0.274,0.321-0.35,0.615
		l-0.688-0.094c0.062-0.294,0.166-0.532,0.309-0.713s0.35-0.32,0.621-0.418s0.584-0.146,0.941-0.146
		c0.354,0,0.642,0.042,0.863,0.125s0.384,0.188,0.488,0.314s0.177,0.286,0.219,0.479c0.023,0.12,0.035,0.336,0.035,0.648v0.938
		c0,0.654,0.015,1.067,0.045,1.24s0.089,0.339,0.178,0.498h-0.734C583.365,44.854,583.318,44.684,583.297,44.488z M583.238,42.918
		c-0.255,0.104-0.638,0.193-1.148,0.266c-0.289,0.042-0.494,0.088-0.613,0.141s-0.212,0.128-0.277,0.229s-0.098,0.211-0.098,0.334
		c0,0.188,0.071,0.344,0.213,0.469s0.35,0.188,0.623,0.188c0.271,0,0.512-0.059,0.723-0.178s0.366-0.281,0.465-0.486
		c0.076-0.159,0.113-0.393,0.113-0.703V42.918z"/>
</g>
<g>
</g>
<g>
</g>
<g>
</g>
<g>
</g>
<g>
</g>
<g>
</g>
<g>
</g>
<g>
</g>
<g>
</g>
<g>
</g>
<g>
</g>
</svg>
